<svg width="195" height="91" viewBox="0 0 195 91" fill="none" xmlns="http://www.w3.org/2000/svg">
<g clip-path="url(#clip0)">
<path d="M161.61 43.2H159.58V71.49H161.61V43.2Z" fill="#0F94F7"/>
<path d="M148.76 43.2H146.73V71.49H148.76V43.2Z" fill="#0F94F7"/>
<path d="M174.61 43.2H172.58V71.49H174.61V43.2Z" fill="#0F94F7"/>
<path d="M174.61 40.12H136.21V42.34H174.61V40.12Z" fill="#0F94F7"/>
<path d="M34.5701 43.2H32.5601V71.49H34.5701V43.2Z" fill="#0F94F7"/>
<path d="M21.5701 43.2H19.5701V71.49H21.5701V43.2Z" fill="#0F94F7"/>
<path d="M47.4299 43.2H45.3999V71.49H47.4299V43.2Z" fill="#0F94F7"/>
<path d="M19.57 42.34L57.9501 42.3V40.12H19.55V42.32H19.57V42.34Z" fill="#0F94F7"/>
<path d="M58.8501 74.59H135.31V72.39L58.8501 72.37V74.59Z" fill="#0F94F7"/>
<path d="M194.16 72.36H136.21V74.59H194.16V72.36Z" fill="#0F94F7"/>
<path d="M57.95 72.37V72.36L0 72.37V74.59H57.95V72.37Z" fill="#0F94F7"/>
<path d="M75.0701 90.56H81.3301V81.21H85.2201V90.56H95.1001V81.21H99.0001V90.56H108.88V81.21H112.78V90.56H119.09V75.46H75.0701V90.56Z" fill="#0F94F7"/>
<path d="M136.21 75.46V90.52H174.61V75.46H136.21ZM143.05 85.23H139.16V81.21H143.05V85.23ZM156.04 85.23H152.15V81.21H156.04V85.23ZM169.18 85.23H165.29V81.21H169.18V85.23Z" fill="#0F94F7"/>
<path d="M19.55 90.52H57.9501V75.46H19.55V90.52ZM51.19 81.21H55.0801V85.23H51.19V81.21ZM38.0401 81.21H41.93V85.23H38.0401V81.21ZM25.05 81.21H28.9401V85.23H25.05V81.21Z" fill="#0F94F7"/>
<path d="M18.69 40.12H0V42.32H18.69V40.12Z" fill="#0F94F7"/>
<path d="M194.16 40.12H175.47V42.34H194.16V40.12Z" fill="#0F94F7"/>
<path d="M92.1101 31.01V71.48H102.05V31.01H92.1101ZM99.0001 67.35H95.1001V57.56H99.0001V67.35ZM99.0001 46.64H95.1001V36.85H99.0001V46.64Z" fill="#0F94F7"/>
<path d="M78.01 71.49H88.3V31.01H78.01V71.49ZM81.33 36.86H85.22V46.65H81.33V36.86ZM81.33 57.56H85.22V67.35H81.33V57.56Z" fill="#0F94F7"/>
<path d="M105.86 71.49H116.15V31.01H105.86V71.49ZM108.88 36.86H112.77V46.65H108.88V36.86ZM108.88 57.56H112.77V67.35H108.88V57.56Z" fill="#0F94F7"/>
<path d="M194.16 43.2H175.47V71.49H194.16V43.2ZM186.77 67.35H182.88V57.56H186.77V67.35ZM186.77 50.67H182.88V46.65H186.77V50.67Z" fill="#0F94F7"/>
<path d="M182.88 81.21H186.77V90.52H194.16V75.46H175.48V90.52H182.88V81.21Z" fill="#0F94F7"/>
<path d="M97.08 8.11L131.8 20.98H141.8L144.88 18.05L96.88 0L49.22 18.04L52.3 20.98H62.36L97.08 8.11Z" fill="#0F94F7"/>
<path d="M64.8301 20.98H129.33L97.0801 9.03003L64.8301 20.98Z" fill="#0F94F7"/>
<path d="M77.1401 31.01H75.0801V71.48H77.1401V31.01Z" fill="#0F94F7"/>
<path d="M91.2399 31.01H89.1699V71.48H91.2399V31.01Z" fill="#0F94F7"/>
<path d="M104.99 31.01H102.92V71.48H104.99V31.01Z" fill="#0F94F7"/>
<path d="M119.09 31.01H117.02V71.48H119.09V31.01Z" fill="#0F94F7"/>
<path d="M149.62 43.21V71.49H158.71V43.21H149.62ZM156.11 67.35H152.22V57.56H156.11V67.35ZM156.11 50.67H152.22V46.65H156.11V50.67Z" fill="#0F94F7"/>
<path d="M162.48 43.21V71.49H171.7V43.21H162.48ZM169.1 67.35H165.21V57.56H169.1V67.35ZM169.1 50.67H165.21V46.65H169.1V50.67Z" fill="#0F94F7"/>
<path d="M136.21 43.21V71.49H145.86V43.21H136.21ZM142.97 67.35H139.08V57.56H142.97V67.35ZM142.97 50.67H139.08V46.65H142.97V50.67Z" fill="#0F94F7"/>
<path d="M0 71.47H18.67V43.22H0V71.47ZM7.39 46.64H11.28V50.66H7.39V46.64ZM7.39 57.56H11.28V67.35H7.39V57.56Z" fill="#0F94F7"/>
<path d="M0 75.46V90.52H7.39V81.21H11.28V90.52H18.69V75.46H0Z" fill="#0F94F7"/>
<path d="M35.45 71.49H44.54V43.2H35.45V71.49ZM38.04 46.64H41.93V50.66H38.04V46.64ZM38.04 57.56H41.93V67.35H38.04V57.56Z" fill="#0F94F7"/>
<path d="M22.46 71.47H31.66V43.2H22.46V71.47ZM25.05 46.64H28.94V50.66H25.05V46.64ZM25.05 57.56H28.94V67.35H25.05V57.56Z" fill="#0F94F7"/>
<path d="M48.3 71.49H57.9501V43.2H48.3V71.49ZM51.19 46.64H55.0801V50.66H51.19V46.64ZM51.19 57.56H55.0801V67.35H51.19V57.56Z" fill="#0F94F7"/>
<path d="M119.09 25.45H75.0801V30.14H119.09V25.45Z" fill="#0F94F7"/>
<path d="M74.1801 25.46H58.8501V39.22V71.47H74.1801V25.46Z" fill="#0F94F7"/>
<path d="M74.2001 75.46H58.8501V90.56H74.2001V75.46Z" fill="#0F94F7"/>
<path d="M135.31 75.46H119.96V90.42H135.31V75.46Z" fill="#0F94F7"/>
<path d="M135.32 25.45H119.96V71.49H135.31L135.32 25.45Z" fill="#0F94F7"/>
<path d="M141.52 21.84H52.6399V24.58H141.52V21.84Z" fill="#0F94F7"/>
</g>
<defs>
<clipPath id="clip0">
<rect width="194.16" height="90.56" fill="white"/>
</clipPath>
</defs>
</svg>
