<svg width="288" height="117" viewBox="0 0 288 117" fill="none" xmlns="http://www.w3.org/2000/svg">
<g clip-path="url(#clip0)">
<path d="M2.59003 51.11H1.03003V57.64H2.59003V51.11Z" fill="#0F94F7"/>
<path d="M35.3601 51.08H33.8V57.61H35.3601V51.08Z" fill="#0F94F7"/>
<path d="M36.38 64.27H34.71V94.19H36.38V64.27Z" fill="#0F94F7"/>
<path d="M119.37 58.55H37.28V63.37H119.37V58.64V58.55Z" fill="#0F94F7"/>
<path d="M143.74 2.40002H143.73L141.91 39.5H145.35L143.74 2.40002Z" fill="#0F94F7"/>
<path d="M36.38 58.55H0V63.37H36.38V58.55Z" fill="#0F94F7"/>
<path d="M287.25 95.09H250.87V98.02H287.25V95.09Z" fill="#0F94F7"/>
<path d="M287.25 64.27H285.58V94.19H287.25V64.27Z" fill="#0F94F7"/>
<path d="M164.41 64.27H162.72V94.19H164.41V64.27Z" fill="#0F94F7"/>
<path d="M13.21 64.27H11.54V94.19H13.21V64.27Z" fill="#0F94F7"/>
<path d="M167.88 98.02H249.97V64.27H167.88V98.02ZM239.89 68.89H245.03V76.43H239.89V68.89ZM239.89 85.24H245.03V92.78H239.89V85.24ZM228.8 68.89H233.94V76.43H228.8V68.89ZM228.8 85.24H233.94V92.78H228.8V85.24ZM217.71 68.89H222.85V76.43H217.71V68.89ZM217.71 85.24H222.85V92.78H217.71V85.24ZM206.62 68.89H211.76V76.43H206.62V68.89ZM206.62 85.24H211.76V92.78H206.62V85.24ZM195.53 68.89H200.67V76.43H195.53V68.89ZM195.53 85.24H200.67V92.78H195.53V85.24ZM184.44 68.89H189.58V76.43H184.44V68.89ZM184.44 85.24H189.58V92.78H184.44V85.24ZM173.35 68.89H178.49V76.43H173.35V68.89ZM173.35 85.24H178.49V92.78H173.35V85.24Z" fill="#0F94F7"/>
<path d="M37.28 94.19V95.09V98.02H119.37V95.09V94.19V64.27H37.28V94.19ZM108.76 68.89H113.9V76.43H108.76V68.89ZM108.76 85.24H113.9V92.78H108.76V85.24ZM97.67 68.89H102.81V76.43H97.67V68.89ZM97.67 85.24H102.81V92.78H97.67V85.24ZM86.58 68.89H91.72V76.43H86.58V68.89ZM86.58 85.24H91.72V92.78H86.58V85.24ZM75.49 68.89H80.63V76.43H75.49V68.89ZM75.49 85.24H80.63V92.78H75.49V85.24ZM64.4 68.89H69.54V76.43H64.4V68.89ZM64.4 85.24H69.54V92.78H64.4V85.24ZM53.32 68.89H58.46V76.43H53.32V68.89ZM53.32 85.24H58.46V92.78H53.32V85.24ZM42.23 68.89H47.37V76.43H42.23V68.89ZM42.23 85.24H47.37V92.78H42.23V85.24Z" fill="#0F94F7"/>
<path d="M121.94 64.27H120.27V94.19H121.94V64.27Z" fill="#0F94F7"/>
<path d="M1.67 64.27H0V94.19H1.67V64.27Z" fill="#0F94F7"/>
<path d="M287.25 58.55H250.87V63.37H287.25V58.55Z" fill="#0F94F7"/>
<path d="M150.44 64.27H148.77V94.19H150.44V64.27Z" fill="#0F94F7"/>
<path d="M124.54 64.27H122.85V94.19H124.54V64.27Z" fill="#0F94F7"/>
<path d="M140.67 45.78L143.45 44.84L143.61 44.78L143.76 44.84L146.59 45.8V42.54L147.26 41.81V41.39L146.33 40.39H146.29H140.96H140.92L139.99 41.39V41.81L140.67 42.54V45.78Z" fill="#0F94F7"/>
<path d="M166.98 95.09H120.27V98.02H166.98V95.09Z" fill="#0F94F7"/>
<path d="M127.11 64.27H125.44V94.19H127.11V64.27Z" fill="#0F94F7"/>
<path d="M167.88 58.64V63.37H249.97V58.55H167.88V58.64Z" fill="#0F94F7"/>
<path d="M138.65 64.27H136.98V94.19H138.65V64.27Z" fill="#0F94F7"/>
<path d="M162.85 52.26L143.61 45.74L124.29 52.29H120.28L120.27 57.74H166.98V52.29H162.92L162.85 52.26Z" fill="#0F94F7"/>
<path d="M120.27 116.26H128.99V102.82H135.09V116.26H140.63V102.82H146.73V116.26H152.25V102.82H158.35V116.26H166.98V98.92H120.27V116.26Z" fill="#0F94F7"/>
<path d="M25.0001 64.27H23.3301V94.19H25.0001V64.27Z" fill="#0F94F7"/>
<path d="M161.81 64.27H160.14V94.19H161.81V64.27Z" fill="#0F94F7"/>
<path d="M167.88 116.26H249.97V98.92H167.88V116.26ZM239.89 102.61H245.03V110.15H239.89V102.61ZM228.8 102.61H233.94V110.15H228.8V102.61ZM217.71 102.61H222.85V110.15H217.71V102.61ZM206.62 102.61H211.76V110.15H206.62V102.61ZM195.53 102.61H200.67V110.15H195.53V102.61ZM184.44 102.61H189.58V110.15H184.44V102.61ZM173.35 102.61H178.49V110.15H173.35V102.61Z" fill="#0F94F7"/>
<path d="M37.28 116.26H119.37V98.92H37.28V116.26ZM108.76 102.61H113.9V110.15H108.76V102.61ZM97.67 102.61H102.81V110.15H97.67V102.61ZM86.58 102.61H91.72V110.15H86.58V102.61ZM75.49 102.61H80.63V110.15H75.49V102.61ZM64.4 102.61H69.54V110.15H64.4V102.61ZM53.32 102.61H58.46V110.15H53.32V102.61ZM42.23 102.61H47.37V110.15H42.23V102.61Z" fill="#0F94F7"/>
<path d="M275.71 64.27H274.04V94.19H275.71V64.27Z" fill="#0F94F7"/>
<path d="M36.38 95.09H0V98.02H36.38V95.09Z" fill="#0F94F7"/>
<path d="M166.98 64.27H165.31V94.19H166.98V64.27Z" fill="#0F94F7"/>
<path d="M263.92 64.27H262.25V94.19H263.92V64.27Z" fill="#0F94F7"/>
<path d="M166.99 58.64H120.28V63.38H166.99V58.64Z" fill="#0F94F7"/>
<path d="M252.54 64.27H250.87V94.19H252.54V64.27Z" fill="#0F94F7"/>
<path d="M0 116.26H15.2V102.82H21.3V116.26H36.38V98.92H0V116.26Z" fill="#0F94F7"/>
<path d="M143.76 1.51C143.9 1.51 144.03 1.47 144.14 1.4C144.36 1.27 144.51 1.03 144.51 0.76C144.51 0.46 144.33 0.21 144.08 0.08C143.98 0.03 143.87 0 143.75 0C143.62 0 143.49 0.04 143.38 0.1C143.16 0.23 143 0.47 143 0.75C143 1 143.13 1.23 143.32 1.37C143.45 1.46 143.6 1.51 143.76 1.51Z" fill="#0F94F7"/>
<path d="M250.87 116.26H265.96V102.82H272.06V116.26H287.25V98.92H250.87V116.26Z" fill="#0F94F7"/>
<path d="M286.23 51.11H284.67V57.64H286.23V51.11Z" fill="#0F94F7"/>
<path d="M253.45 51.08H251.89V57.61H253.45V51.08Z" fill="#0F94F7"/>
<path d="M139.55 64.27V94.19H147.87V64.27H139.55ZM146.05 92.78H141.37V85.24H146.05V92.78ZM146.05 76.43H141.37V68.89H146.05V76.43Z" fill="#0F94F7"/>
<path d="M151.34 64.27V94.19H159.25V64.27H151.34ZM157.63 92.78H152.95V85.24H157.63V92.78ZM157.63 76.43H152.95V68.89H157.63V76.43Z" fill="#0F94F7"/>
<path d="M128.01 64.27V94.19H136.08V64.27H128.01ZM134.38 92.78H129.7V85.24H134.38V92.78ZM134.38 76.43H129.7V68.89H134.38V76.43Z" fill="#0F94F7"/>
<path d="M2.57007 64.27V94.19H10.6401V64.27H2.57007ZM8.95007 92.78H4.27007V85.24H8.95007V92.78ZM8.95007 76.43H4.27007V68.89H8.95007V76.43Z" fill="#0F94F7"/>
<path d="M25.8999 64.27V94.19H33.8099V64.27H25.8999ZM32.1499 92.78H27.5599V85.24H32.1499V92.78ZM32.1499 76.43H27.5599V68.89H32.1499V76.43Z" fill="#0F94F7"/>
<path d="M14.1101 64.27V94.19H22.4301V64.27H14.1101ZM20.6901 92.78H15.8601V85.24H20.6901V92.78ZM20.6901 76.43H15.8601V68.89H20.6901V76.43Z" fill="#0F94F7"/>
<path d="M276.61 64.27V94.19H284.68V64.27H276.61ZM282.99 92.78H278.31V85.24H282.99V92.78ZM282.99 76.43H278.31V68.89H282.99V76.43Z" fill="#0F94F7"/>
<path d="M253.45 64.27V94.19H261.36V64.27H253.45ZM259.69 92.78H255.1V85.24H259.69V92.78ZM259.69 76.43H255.1V68.89H259.69V76.43Z" fill="#0F94F7"/>
<path d="M264.82 64.27V94.19H273.14V64.27H264.82ZM271.4 92.78H266.57V85.24H271.4V92.78ZM271.4 76.43H266.57V68.89H271.4V76.43Z" fill="#0F94F7"/>
</g>
<defs>
<clipPath id="clip0">
<rect width="287.26" height="116.26" fill="white"/>
</clipPath>
</defs>
</svg>
