<svg width="127" height="57" viewBox="0 0 127 57" fill="none" xmlns="http://www.w3.org/2000/svg">
<path d="M30.788 26.8582C25.6226 26.4924 21.5409 22.1592 21.5409 16.8718H13.425V31.8593H30.788V26.8582Z" fill="#0F94F7"/>
<path d="M32.2119 26.8582V31.8593H49.5748V16.8718H41.459C41.459 22.1671 37.3852 26.4924 32.2119 26.8582Z" fill="#0F94F7"/>
<path d="M30.788 6.88548V0H13.425V15.4406H21.6438C22.3003 10.8212 26.0893 7.21942 30.788 6.88548Z" fill="#0F94F7"/>
<path d="M41.3561 15.4406H49.5748V0H32.2119V6.88548C36.9027 7.21942 40.6996 10.8212 41.3561 15.4406Z" fill="#0F94F7"/>
<path d="M50.7534 32.4953H12.2385V39.6988H50.7534V32.4953Z" fill="#0F94F7"/>
<path d="M13.425 57H17.7282V42.418H24.705V57H28.0115V42.418H34.9883V57H38.627V42.418H45.6038V57H49.5747V40.3349H13.425V57Z" fill="#0F94F7"/>
<path d="M127 4.03906H50.2078V18.1758H127V4.03906Z" fill="#0F94F7"/>
<path d="M50.2078 31.8672H52.7628V22.7237H68.2747V31.8672H70.5291V22.7237H86.041V31.8672H88.2954V22.7237H103.807V31.8672H106.07V22.7237H121.582V31.8672H127V18.8118H50.2078V31.8672Z" fill="#0F94F7"/>
<path d="M127 32.4953H51.3862V39.6988H127V32.4953Z" fill="#0F94F7"/>
<path d="M50.2078 40.3349V57H127V40.3349H50.2078ZM106.07 42.418H121.582V51.8716H106.07V42.418ZM88.2954 42.418H103.807V51.8716H88.2954V42.418ZM70.5291 42.418H86.041V51.8716H70.5291V42.418ZM52.7628 42.418H68.2747V51.8716H52.7628V42.418Z" fill="#0F94F7"/>
<path d="M25.5277 15.4406C25.4169 15.9018 25.3616 16.3788 25.3616 16.8797C25.3616 20.0362 27.7346 22.6521 30.788 23.0019C31.0253 23.0258 31.2626 23.0417 31.4999 23.0417C31.7451 23.0417 31.9824 23.0258 32.2118 23.0019C35.2572 22.6441 37.6382 20.0362 37.6382 16.8797C37.6382 16.3868 37.5749 15.9018 37.4721 15.4406C36.8788 12.9599 34.7905 11.0517 32.2197 10.7496C31.9824 10.7257 31.7451 10.7098 31.5078 10.7098C31.2626 10.7098 31.0253 10.7257 30.7959 10.7496C28.2092 11.0517 26.121 12.952 25.5277 15.4406ZM37.0054 16.8718C37.0054 19.6785 34.9092 22.0081 32.2118 22.3579C31.9745 22.3897 31.7372 22.4056 31.4999 22.4056C31.2626 22.4056 31.0174 22.3897 30.788 22.3579C28.0906 22.0081 25.9944 19.6785 25.9944 16.8718C25.9944 16.3788 26.0577 15.8938 26.1842 15.4327C26.7538 13.3018 28.5652 11.6719 30.788 11.3857C31.0253 11.3539 31.2626 11.338 31.4999 11.338C31.7372 11.338 31.9824 11.3539 32.2118 11.3857C34.4346 11.6798 36.246 13.3018 36.8156 15.4327C36.9421 15.8938 37.0054 16.3788 37.0054 16.8718Z" fill="#0F94F7"/>
<path d="M33.5488 15.4406C33.2244 14.9874 32.7577 14.6535 32.2119 14.4945C31.9904 14.4309 31.7531 14.3911 31.5158 14.3911C31.2627 14.3911 31.0175 14.4309 30.7881 14.5024C30.2581 14.6614 29.7993 15.0033 29.4829 15.4406C29.1902 15.8461 29.0162 16.3391 29.0083 16.8797C29.0083 16.8956 29.0083 16.9036 29.0083 16.9195C29.0083 18.0565 29.7598 19.0185 30.7881 19.3366C31.0175 19.4081 31.2627 19.4479 31.5158 19.4479C31.7611 19.4479 31.9904 19.4081 32.2119 19.3445C33.2561 19.0424 34.0234 18.0724 34.0234 16.9195C34.0234 16.9036 34.0234 16.8956 34.0234 16.8797C34.0155 16.3391 33.8414 15.8461 33.5488 15.4406ZM30.3135 18.1042V15.7269H32.6786V18.1042H30.3135Z" fill="#0F94F7"/>
<path d="M12.7923 4.03906H-64V18.1758H12.7923V4.03906Z" fill="#0F94F7"/>
<path d="M-58.5815 22.7237H-43.0696V31.8672H-40.8073V22.7237H-25.2953V31.8672H-23.0409V22.7237H-7.529V31.8672H-5.27459V22.7237H10.2373V31.8672H12.7923V18.8118H-64V31.8672H-58.5815V22.7237Z" fill="#0F94F7"/>
<path d="M11.6137 32.4953H-64V39.6988H11.6137V32.4953Z" fill="#0F94F7"/>
<path d="M-64 40.3349V57H12.7923V40.3349H-64ZM-43.0696 51.8716H-58.5815V42.418H-43.0696V51.8716ZM-25.2953 51.8716H-40.8073V42.418H-25.2953V51.8716ZM-7.529 51.8716H-23.0409V42.418H-7.529V51.8716ZM10.2373 51.8716H-5.27459V42.418H10.2373V51.8716Z" fill="#0F94F7"/>
</svg>
