<svg width="60" height="48" viewBox="0 0 60 48" fill="none" xmlns="http://www.w3.org/2000/svg">
<path d="M55.643 19.226V7.14748C55.643 3.58006 52.7406 0.677673 49.1732 0.677673H10.8268C7.25941 0.677673 4.35703 3.58006 4.35703 7.14748V19.226C1.77199 20.5642 0 23.2625 0 26.3687V45.5645C0 46.5353 0.787031 47.3223 1.75781 47.3223H5.81484C6.54727 47.3223 7.20293 46.8682 7.46039 46.1825L10.1134 39.1187H49.8864L52.5394 46.1825C52.797 46.8682 53.4525 47.3223 54.1849 47.3223H58.2422C59.213 47.3223 60 46.5353 60 45.5645C60 44.8124 60 27.1235 60 26.3687C60 23.2625 58.228 20.5642 55.643 19.226ZM3.51562 35.6031V32.2398H56.4844V35.6031H3.51562ZM7.87266 7.14748C7.87266 5.51857 9.19793 4.1933 10.8268 4.1933H49.1732C50.8021 4.1933 52.1273 5.51857 52.1273 7.14748V18.3337C52.0718 18.3326 52.0167 18.3295 51.9608 18.3295H48.0279V12.4642C48.0279 10.129 45.9104 8.3674 43.6044 8.78353C41.1423 9.22744 38.6454 9.22744 36.1834 8.78353C33.8747 8.36881 31.7599 10.1304 31.7599 12.4643V18.3295H28.24V12.4642C28.24 10.1286 26.1221 8.3674 23.8165 8.78353C21.3544 9.2272 18.8575 9.22732 16.3955 8.78353C14.0871 8.36869 11.972 10.13 11.972 12.4643V18.3295H8.03918C7.98328 18.3295 7.9282 18.3326 7.87266 18.3337V7.14748ZM35.2757 18.3295V12.4643C35.2757 12.316 35.4121 12.2171 35.56 12.2434C38.4357 12.7618 41.3522 12.7616 44.2281 12.2434C44.3755 12.2163 44.5124 12.3163 44.5124 12.4642V18.3295H35.2757ZM15.4877 18.3295V12.4643C15.4877 12.3167 15.6232 12.217 15.772 12.2434C18.6478 12.7618 21.5643 12.7616 24.4402 12.2434C24.5871 12.2164 24.7245 12.3157 24.7245 12.4642V18.3295H15.4877ZM3.51562 26.3687C3.51562 23.8745 5.54484 21.8451 8.03918 21.8451H51.9608C54.4552 21.8451 56.4844 23.8744 56.4844 26.3687V28.7242H3.51562V26.3687ZM4.59738 43.8067H3.51562V39.1187H6.35801L4.59738 43.8067ZM55.4026 43.8067L53.642 39.1187H56.4844V43.8067H55.4026Z" fill="white"/>
</svg>
