<svg width="150" height="60" viewBox="0 0 150 60" fill="none" xmlns="http://www.w3.org/2000/svg">
<path d="M75.3387 0H74.6865V10.0058H75.3387V0Z" fill="white"/>
<path d="M74.9974 27.6052L93.669 34.5404V26.6503H56.3308V34.5404L74.9974 27.6052Z" fill="white"/>
<path d="M93.674 24.0622H56.3308V25.8261H93.674V24.0622Z" fill="white"/>
<path d="M133.435 40.6766H130.295V57.3613H133.435V40.6766Z" fill="white"/>
<path d="M149.99 57.894H123.844V59.6077H149.99V57.894Z" fill="white"/>
<path d="M143.549 40.6766H140.408V57.3613H143.549V40.6766Z" fill="white"/>
<path d="M19.7051 40.6766H16.5647V57.3613H19.7051V40.6766Z" fill="white"/>
<path d="M26.1563 57.894H0.0100098V59.6077H26.1563V57.894Z" fill="white"/>
<path d="M9.58665 40.6766H6.44629V57.3613H9.58665V40.6766Z" fill="white"/>
<path d="M63.2737 41.6012V57.3613H65.0796V46.8629H68.0595V57.3613H69.8654V41.6012H63.2737Z" fill="white"/>
<path d="M80.2598 41.6012V57.3613H82.0657V46.8629H85.0456V57.3613H86.8515V41.6012H80.2598Z" fill="white"/>
<path d="M56.0549 41.6012V57.3613H61.6283V41.6012H56.0549ZM57.2689 52.1448V46.8629H60.4093V52.1498H57.2689V52.1448Z" fill="white"/>
<path d="M45.7158 59.5926L104.284 59.6027V57.889H45.7158V59.5926Z" fill="white"/>
<path d="M47.1606 41.6012V57.3613H54.3494V41.6012H47.1606ZM49.1873 52.1448V46.8629H52.3277V52.1498H49.1873V52.1448Z" fill="white"/>
<path d="M95.8262 41.6012V57.3613H102.804V41.6012H95.8262ZM97.7475 52.1448V46.8629H100.888V52.1498H97.7475V52.1448Z" fill="white"/>
<path d="M88.3416 41.6012V57.3613H94.1257V41.6012H88.3416ZM89.6659 52.1448V46.8629H92.8063V52.1498H89.6659V52.1448Z" fill="white"/>
<path d="M71.6113 41.6012V57.3613H78.3987V41.6012H71.6113ZM73.337 52.1448V46.8629H76.653V52.1498H73.337V52.1448Z" fill="white"/>
<path d="M74.9975 28.168L46.9048 38.6965H103.09L74.9975 28.168ZM74.7065 32.3844H75.3236C77.3252 32.3844 78.9455 34.1484 78.9455 36.3295H71.0846C71.0846 34.1534 72.7049 32.3844 74.7065 32.3844Z" fill="white"/>
<path d="M104.284 39.2242H45.7158V41.0735H104.284V39.2242Z" fill="white"/>
<path d="M67.8088 16.8104V23.5395H69.4041V19.2277C69.4041 18.5492 69.9559 17.9964 70.6332 17.9964C71.3104 17.9964 71.8622 18.5492 71.8622 19.2277V23.5395H73.914V19.2277C73.914 18.5492 74.4658 17.9964 75.143 17.9964C75.8203 17.9964 76.3721 18.5492 76.3721 19.2277V23.5395H78.2934V19.2277C78.2934 18.5492 78.8453 17.9964 79.5225 17.9964C80.2048 17.9964 80.7516 18.5492 80.7516 19.2277V23.5395H82.2114V16.8104H67.8088Z" fill="white"/>
<path d="M22.1179 40.6766H20.2317V57.3613H22.1179V40.6766Z" fill="white"/>
<path d="M26.1514 40.6766H24.2651V57.3613H26.1514V40.6766Z" fill="white"/>
<path d="M12.0046 40.6766H10.1184V57.3613H12.0046V40.6766Z" fill="white"/>
<path d="M16.0378 40.6766H14.1516V57.3613H16.0378V40.6766Z" fill="white"/>
<path d="M1.8862 40.6766H0.0100098V57.3613H1.8862V40.6766Z" fill="white"/>
<path d="M0.0100331 40.6766H0V57.3613H0.0100331V40.6766Z" fill="white"/>
<path d="M4.0332 57.3563L5.91943 57.311V40.6766H4.0332V57.3563Z" fill="white"/>
<path d="M0.797607 38.6965H25.3587L13.0781 32.1784L0.797607 38.6965Z" fill="white"/>
<path d="M45.184 40.6766H26.678V57.3613H45.184V40.6766ZM32.0658 52.1448H28.9254V46.863H32.0658V52.1448ZM37.5037 52.1448H34.3633V46.863H37.5037V52.1448ZM42.9467 52.1448H39.8063V46.863H42.9467V52.1448Z" fill="white"/>
<path d="M45.184 57.889H26.678V59.6027H45.184V57.889Z" fill="white"/>
<path d="M45.184 39.2242H26.678V40.1438V40.1488H45.184V39.2242Z" fill="white"/>
<path d="M45.1891 41.6012H45.1841V57.3613H45.1891V41.6012Z" fill="white"/>
<path d="M45.1891 39.2242H45.1841V40.1488H45.1891V39.2242Z" fill="white"/>
<path d="M45.1891 41.0736V40.6766H45.1841V41.0736H45.1891Z" fill="white"/>
<path d="M45.1891 41.0736H45.1841V41.6013H45.1891V41.0736Z" fill="white"/>
<path d="M14.1367 32.1432L26.1514 38.5206V32.1432H14.1367Z" fill="white"/>
<path d="M26.1513 39.2242H0V40.1438H26.1513V39.2242Z" fill="white"/>
<path d="M45.3998 38.6965L55.8041 34.7364V32.1432H26.678V38.6965H45.3998Z" fill="white"/>
<path d="M45.6558 38.601L45.3999 38.6965H45.4049L45.6558 38.601Z" fill="white"/>
<path d="M129.768 40.6766H127.882V57.3613H129.768V40.6766Z" fill="white"/>
<path d="M125.73 40.6766H123.844V57.3613H125.73V40.6766Z" fill="white"/>
<path d="M139.882 40.6766H137.995V57.3613H139.882V40.6766Z" fill="white"/>
<path d="M135.848 40.6766H133.962V57.3613H135.848V40.6766Z" fill="white"/>
<path d="M149.99 40.6766H148.114V57.3613H149.99V40.6766Z" fill="white"/>
<path d="M150 40.6766H149.99V57.3613H150V40.6766Z" fill="white"/>
<path d="M145.967 40.6766H144.081V57.3613H145.967V40.6766Z" fill="white"/>
<path d="M149.202 38.6965L136.922 32.1784L124.641 38.6965H149.202Z" fill="white"/>
<path d="M104.811 57.889V59.6027H123.317V57.894V57.889H104.811Z" fill="white"/>
<path d="M104.811 39.2242V40.1488H123.317V40.1438V39.2242H104.811Z" fill="white"/>
<path d="M104.811 40.6766V57.3613H123.317V40.6766H104.811ZM110.194 52.1448H107.053V46.863H110.194V52.1448ZM115.637 52.1448H112.496V46.863H115.637V52.1448ZM117.934 52.1448V46.863H121.074V52.1498H117.934V52.1448Z" fill="white"/>
<path d="M123.844 32.1432V38.5206L135.863 32.1432H123.844Z" fill="white"/>
<path d="M149.995 39.2242H123.844V40.1438H149.995V39.2242Z" fill="white"/>
<path d="M123.317 38.6965V32.1432H94.1958V34.7364L104.595 38.6965H123.317Z" fill="white"/>
<path d="M82.2214 15.2927C81.8552 15.2927 81.5391 15.0364 81.4739 14.6795C80.8469 11.1164 78.3285 8.91527 74.9925 8.91527C71.6565 8.91527 69.1332 11.1114 68.5111 14.6795C68.4509 15.0364 68.1299 15.2927 67.7637 15.2927V16.1319H82.2264V15.2927H82.2214Z" fill="white"/>
</svg>
