<svg width="100" height="49" viewBox="0 0 100 49" fill="none" xmlns="http://www.w3.org/2000/svg">
<path d="M26.4001 44.5713H0.902344V48.9478H26.4001V44.5713Z" fill="white"/>
<path d="M57.6441 44.5713H42.3074V48.9478H57.6441V44.5713Z" fill="white"/>
<path d="M99.2543 44.575H73.5999V48.9515H99.2543V44.575Z" fill="white"/>
<path d="M69.6287 44.0638H99.0977V26.7293H69.6287V44.0638ZM75.2629 40.5976H72.265V33.8593H75.2629V40.5976ZM82.8586 40.5976H79.8606V33.8593H82.8586V40.5976ZM90.4542 40.5976H87.4562V33.8593H90.4542V40.5976ZM86.7403 31.4939H91.1664V32.0572H86.7403V31.4939ZM79.1447 31.4939H83.5708V32.0572H79.1447V31.4939ZM75.9789 31.4939V32.0572H71.5527V31.4939H75.9789Z" fill="white"/>
<path d="M99.0977 44.0638H69.6287V44.0676H99.0977V44.0638Z" fill="white"/>
<path d="M73.089 44.575H64.3076V48.9478H73.089V44.575Z" fill="white"/>
<path d="M73.089 48.9478H64.3076V48.9515H73.089V48.9478Z" fill="white"/>
<path d="M63.8005 44.575H58.155V48.9478H63.8005V44.575Z" fill="white"/>
<path d="M63.8005 48.9478H58.155V48.9515H63.8005V48.9478Z" fill="white"/>
<path d="M69.6621 23.3154V24.0952H98.6389V21.2074H71.355V23.3154H69.6621Z" fill="white"/>
<path d="M99.9999 24.6175H69.636V26.2032H99.9999V24.6175Z" fill="white"/>
<path d="M0.902344 26.7293V44.0601H30.3676V26.7293H0.902344ZM12.5438 40.5976H9.54579V33.8593H12.5438V40.5976ZM13.2597 32.0572H8.83359V31.4939H13.2597V32.0572ZM20.1394 40.5976H17.1414V33.8593H20.1394V40.5976ZM20.8554 32.0572H16.4292V31.4939H20.8554V32.0572ZM27.7351 40.5976H24.7371V33.8593H27.7351V40.5976ZM24.0249 32.0572V31.4939H28.451V32.0572H24.0249Z" fill="white"/>
<path d="M62.3462 32.0572V44.06H66.7872V32.0572H62.3462ZM63.1143 40.5976V33.8593H66.1123V40.5976H63.1143Z" fill="white"/>
<path d="M66.7872 26.7218H62.3462V31.4939H66.7872V26.7218Z" fill="white"/>
<path d="M59.5048 26.7218H55.0637V31.4939H59.5048V26.7218Z" fill="white"/>
<path d="M52.2186 26.7218H47.7776V31.4939H52.2186V26.7218Z" fill="white"/>
<path d="M55.0637 32.0572V44.06H59.5048V32.0572H55.0637ZM55.8953 40.5976V33.8593H58.8932V40.5976H55.8953Z" fill="white"/>
<path d="M47.7776 32.0572V44.06H48.542V33.8593H51.5363V44.06H52.2186V32.0572H47.7776Z" fill="white"/>
<path d="M69.1216 17.8009H30.8823V20.6962H69.1216V17.8009Z" fill="white"/>
<path d="M30.8898 26.2107H69.1141L69.1179 23.3154H30.8823L30.8898 26.2107Z" fill="white"/>
<path d="M69.1215 24.0952H69.114V26.2107H69.1215V24.0952Z" fill="white"/>
<path d="M32.7057 26.7218H31.1843V44.0601H32.7057V26.7218Z" fill="white"/>
<path d="M30.8899 26.7218V26.7293H30.8823V44.0638H30.9313V26.7218H30.8899Z" fill="white"/>
<path d="M30.8822 26.7293H30.8784V44.0638H30.8822V26.7293Z" fill="white"/>
<path d="M31.1842 44.0601V26.7218H32.7056H30.9307V44.0638H32.7056V44.0601H31.1842Z" fill="white"/>
<path d="M39.988 26.7218H38.1609V44.0601H39.988V26.7218Z" fill="white"/>
<path d="M39.988 44.0601H38.1609V44.0638H39.988V44.0601Z" fill="white"/>
<path d="M47.2705 26.7218H45.4434V44.0601H47.2705V26.7218Z" fill="white"/>
<path d="M47.2705 44.0601H45.4434V44.0638H47.2705V44.0601Z" fill="white"/>
<path d="M54.5566 26.7218H52.7295V44.0601H54.5566V26.7218Z" fill="white"/>
<path d="M54.5566 44.0601H52.7295V44.0638H54.5566V44.0601Z" fill="white"/>
<path d="M61.8391 26.7218H60.012V44.0601H61.8391V26.7218Z" fill="white"/>
<path d="M61.8391 44.0601H60.012V44.0638H61.8391V44.0601Z" fill="white"/>
<path d="M69.1178 44.0601V26.7293H69.1141V26.7218H67.2944V44.0601H69.1178Z" fill="white"/>
<path d="M69.1179 26.7218H69.114V26.7296H69.1179V26.7218Z" fill="white"/>
<path d="M69.1178 44.0601H67.2944V44.0638H69.1178V44.0601Z" fill="white"/>
<path d="M66.9178 6.63008H33.1606V7.83894H66.9178V6.63008Z" fill="white"/>
<path d="M50.041 0C41.1105 0 33.8728 1.11559 33.8728 2.49608V6.11894H66.213V2.49608C66.2093 1.11559 58.9679 0 50.041 0Z" fill="white"/>
<path d="M37.7098 11.5961C38.7353 11.5961 39.5631 12.4282 39.5631 13.4505V17.2935H41.8526V12.7714C41.8526 11.7454 42.6841 10.9171 43.7058 10.9171C44.7312 10.9171 45.5591 11.7491 45.5591 12.7714V17.2935H48.1879V12.4319C48.1879 11.4058 49.0194 10.5776 50.0411 10.5776C51.0665 10.5776 51.8943 11.4096 51.8943 12.4319V17.2935H54.5232V12.7714C54.5232 11.7454 55.3547 10.9171 56.3764 10.9171C57.4018 10.9171 58.2296 11.7491 58.2296 12.7714V17.2935H60.5192V13.4505C60.5192 12.4244 61.3507 11.5961 62.3724 11.5961C63.3978 11.5961 64.2256 12.4282 64.2256 13.4505V17.2935H66.2094V8.34638H33.8691V17.2935H35.8529V13.4505C35.8529 12.4244 36.6844 11.5961 37.7098 11.5961Z" fill="white"/>
<path d="M35.6925 44.575H26.9111V48.9478H35.6925V44.575Z" fill="white"/>
<path d="M35.6925 48.9478H26.9111V48.9515H35.6925V48.9478Z" fill="white"/>
<path d="M41.8934 44.5713H36.1995V48.9478H41.8934V44.5713Z" fill="white"/>
<path d="M41.8934 48.9478H36.1995V48.9963H41.8934V48.9478Z" fill="white"/>
<path d="M37.6537 44.5713H36.1995V44.575H37.6537V44.5713Z" fill="white"/>
<path d="M41.8934 44.5713H40.4951V44.575H41.8934V44.5713Z" fill="white"/>
<path d="M37.6537 44.5265H36.1995V44.5675H37.6537V44.5265Z" fill="white"/>
<path d="M41.8934 44.5265H40.4951V44.5675H41.8934V44.5265Z" fill="white"/>
<path d="M40.4952 44.5713H37.6538V44.575H40.4952V44.5713Z" fill="white"/>
<path d="M40.4952 44.5265H37.6538V44.5675H40.4952V44.5265Z" fill="white"/>
<path d="M36.2037 44.5713H36.1548V48.9478H36.2037V44.5713Z" fill="white"/>
<path d="M36.2037 48.9478H36.1548V48.9963H36.2037V48.9478Z" fill="white"/>
<path d="M36.2037 44.5713H36.1548V44.575H36.2037V44.5713Z" fill="white"/>
<path d="M36.2037 44.5265H36.1548V44.5675H36.2037V44.5265Z" fill="white"/>
<path d="M28.7345 23.3154V21.2074H1.36108V24.0952H30.3379V23.3154H28.7345Z" fill="white"/>
<path d="M30.3639 24.6175H0V26.2032H30.3639V24.6175Z" fill="white"/>
<path d="M70.848 21.2074H29.2454V22.808H70.848V21.2074Z" fill="white"/>
<path d="M44.9287 32.0572H40.5026L40.4951 44.06H44.9362L44.9287 32.0572ZM44.1158 40.5976H41.1178V33.8593H44.1158V40.5976Z" fill="white"/>
<path d="M40.5026 31.4939H44.9287L44.9362 26.7218H40.4951L40.5026 31.4939Z" fill="white"/>
<path d="M37.6537 26.7218H33.2126V31.4976H37.6537V26.7218Z" fill="white"/>
<path d="M33.2201 32.0572L33.2126 44.06H37.6537V32.0572H33.2201ZM36.893 40.5976H33.895V33.8593H36.893V40.5976Z" fill="white"/>
</svg>
