<svg width="44" height="60" viewBox="0 0 44 60" fill="none" xmlns="http://www.w3.org/2000/svg">
<path d="M10.5742 0C4.56379 0 0.0273438 8.34633 0.0273438 14.0625C0.0273438 17.8513 2.06324 21.3173 5.30078 23.1875V54.7266C5.30078 57.6343 7.66645 60 10.5742 60C13.482 60 15.8477 57.6343 15.8477 54.7266V23.1875C19.0852 21.3173 21.1211 17.8513 21.1211 14.0625C21.1211 8.34211 16.5849 0 10.5742 0V0ZM13.3851 20.4993C12.7454 20.7792 12.332 21.4113 12.332 22.1096V54.7266C12.332 55.6958 11.5435 56.4844 10.5742 56.4844C9.60496 56.4844 8.81641 55.6958 8.81641 54.7266V22.1095C8.81641 21.4112 8.40309 20.7791 7.76336 20.4991C5.19953 19.3772 3.54297 16.8506 3.54297 14.0625C3.54297 9.9457 6.97973 3.51562 10.5742 3.51562C14.2158 3.51562 17.6055 10.0167 17.6055 14.0625C17.6055 16.8506 15.9489 19.3772 13.3851 20.4993Z" fill="white"/>
<path d="M42.2148 0C41.2441 0 40.457 0.787031 40.457 1.75781V14.0625H36.9414V1.75781C36.9414 0.787031 36.1544 0 35.1836 0C34.2128 0 33.4258 0.787031 33.4258 1.75781V14.0625H29.9102V1.75781C29.9102 0.787031 29.1231 0 28.1523 0C27.1816 0 26.3945 0.787031 26.3945 1.75781V19.3359C26.3945 21.6277 27.8639 23.5827 29.9102 24.3082V54.7266C29.9102 57.6343 32.2758 60 35.1836 60C38.0914 60 40.457 57.6343 40.457 54.7266V24.3082C42.5032 23.5827 43.9727 21.6278 43.9727 19.3359V1.75781C43.9727 0.787031 43.1856 0 42.2148 0ZM38.6992 21.0938C37.7284 21.0938 36.9414 21.8808 36.9414 22.8516V54.7266C36.9414 55.6958 36.1529 56.4844 35.1836 56.4844C34.2143 56.4844 33.4258 55.6958 33.4258 54.7266V22.8516C33.4258 21.8808 32.6388 21.0938 31.668 21.0938C30.6987 21.0938 29.9102 20.3052 29.9102 19.3359V17.5781H40.457V19.3359C40.457 20.3052 39.6685 21.0938 38.6992 21.0938Z" fill="white"/>
</svg>
