<svg width="57" height="57" viewBox="0 0 57 57" fill="none" xmlns="http://www.w3.org/2000/svg">
<path d="M33.993 28.2626C34.5244 28.4548 35.1176 28.3652 35.5686 28.0238C36.0195 27.6824 36.267 27.1362 36.2265 26.5722L35.8186 20.9192L39.2989 16.4465C39.646 15.9999 39.7438 15.4081 39.559 14.874C39.3737 14.3396 38.9301 13.9356 38.3813 13.7999L32.8793 12.4405L29.7008 7.74861C29.3833 7.28024 28.851 7.0041 28.2853 7.01584C27.7199 7.02671 27.1985 7.3233 26.9002 7.8034L23.9074 12.6162L18.4627 14.1891C17.9196 14.3461 17.4925 14.7675 17.3281 15.3089C17.1642 15.8499 17.2851 16.4374 17.6491 16.8697L21.3016 21.2032L21.1155 26.8675C21.0968 27.4328 21.3655 27.969 21.8295 28.2926C22.2944 28.6161 22.8902 28.6822 23.4134 28.4696L28.6636 26.3347L33.993 28.2626ZM27.9996 22.9997L24.5379 24.4069L24.661 20.6722C24.6745 20.2595 24.5349 19.8568 24.2688 19.5411L21.8604 16.684L25.4503 15.6468C25.8469 15.5324 26.187 15.275 26.4049 14.9245L28.3779 11.7512L30.474 14.8449C30.7053 15.1863 31.0554 15.4302 31.4559 15.5294L35.0837 16.4252L32.7893 19.3746C32.5357 19.7003 32.4118 20.1082 32.4414 20.52L32.7101 24.2469L29.1963 22.9762C28.808 22.8357 28.3818 22.844 27.9996 22.9997Z" fill="white"/>
<path d="M43.8337 45.3575C41.1049 44.6008 37.6019 44.0672 33.7594 43.812C39.9068 34.6905 43.0814 30.1095 44.85 26.6757C46.5473 23.3798 46.8691 21.2137 46.8691 18.3691C46.8691 8.24046 38.6287 0 28.5 0C18.3713 0 10.1309 8.24046 10.1309 18.3691C10.1309 24.8144 11.8025 26.8357 23.2411 43.812C19.3981 44.0672 15.8956 44.6008 13.1663 45.3575C10.474 46.1042 6.79102 47.5219 6.79102 50.3203C6.79102 53.3218 11.0067 54.753 13.9251 55.4827C17.8386 56.4612 23.0149 57 28.5 57C33.9851 57 39.1614 56.4612 43.0749 55.4827C45.9924 54.7534 50.209 53.3218 50.209 50.3203C50.209 47.5219 46.5256 46.1042 43.8337 45.3575ZM13.4707 18.3691C13.4707 10.0822 20.213 3.33984 28.5 3.33984C36.787 3.33984 43.5293 10.0822 43.5293 18.3691C43.5293 23.3737 42.3534 25.1149 33.2019 38.667C31.8016 40.7404 30.2525 43.0344 28.5 45.6484C26.7696 43.0675 25.2376 40.7983 23.8525 38.7461C14.6527 25.1175 13.4707 23.3663 13.4707 18.3691ZM41.4863 52.4268C37.9272 53.2222 33.3154 53.6602 28.5 53.6602C23.6846 53.6602 19.0728 53.2222 15.5137 52.4268C11.6734 51.5684 10.5105 50.6434 10.2061 50.3203C10.4896 50.0189 11.5216 49.1944 14.7923 48.3838C17.6646 47.6719 21.4072 47.2005 25.4128 47.0414C25.9586 47.855 26.5244 48.6995 27.1114 49.5784C27.4215 50.042 27.9425 50.3203 28.5 50.3203C29.0575 50.3203 29.5785 50.042 29.8886 49.5784C30.4756 48.6991 31.0414 47.8546 31.5872 47.0414C35.5933 47.2005 39.3354 47.6715 42.2077 48.3838C45.4784 49.1944 46.5104 50.0189 46.7939 50.3203C46.4899 50.6434 45.3266 51.5684 41.4863 52.4268Z" fill="white"/>
</svg>
