<svg width="52" height="60" viewBox="0 0 52 60" fill="none" xmlns="http://www.w3.org/2000/svg">
<path d="M50.3907 21.7458C51.5721 18.2429 49.5607 14.4765 46.0303 13.4806C46.2231 9.97061 43.5805 7.01017 40.1785 6.70301C39.1379 2.97601 35.0519 0.995899 31.4862 2.48672C28.876 -0.826818 24.0647 -0.831037 21.451 2.48672C17.878 0.992852 13.7977 2.98198 12.7588 6.70301C9.35428 7.01041 6.71437 9.9733 6.90692 13.4806C3.45486 14.4544 1.45576 18.0644 2.47582 21.5116L1.63507 21.738C0.731154 21.9815 0.176592 22.8906 0.373712 23.8059L7.87412 58.6125C8.04851 59.422 8.76444 60.0001 9.59254 60.0001H43.3444C44.1897 60.0001 44.9152 59.3985 45.0718 58.5679L51.6347 23.7613C51.8033 22.8683 51.2633 21.9952 50.3907 21.7458ZM8.89652 16.766C10.2226 16.888 11.2058 15.5322 10.6609 14.3026C9.71254 12.1641 11.5704 9.77794 13.936 10.252C15.063 10.479 16.0809 9.59043 16.0386 8.469C16.03 5.88652 19.0425 4.58731 20.9076 6.24115C21.8302 7.05904 23.2909 6.69691 23.7217 5.53857C24.1652 4.34565 25.295 3.51252 26.4687 3.51252C27.6425 3.51252 28.7721 4.34565 29.2157 5.53857C29.6448 6.69234 31.1029 7.06209 32.0298 6.24115C33.8779 4.60231 36.8883 5.85429 36.8991 8.46232C36.8564 9.59629 37.8861 10.4752 39.0014 10.252C41.364 9.77864 43.2262 12.1612 42.2765 14.3026C41.7343 15.526 42.7076 16.8867 44.0409 16.766C46.2161 16.5717 47.8627 18.8118 46.963 20.8601C36.9929 18.485 26.6111 17.8033 16.2574 18.9256C16.2305 18.9277 16.2039 18.928 16.177 18.9311C12.7189 19.3302 9.57402 19.8242 5.89202 20.6644C5.17831 18.6501 6.81035 16.5796 8.89652 16.766ZM22.405 56.4842L21.5167 49.002C24.7082 49.7585 28.2243 49.7597 31.4207 49.002L30.5324 56.4842H22.405ZM26.4687 46.0539C20.3068 46.0539 15.1009 42.9948 15.1009 39.3739C15.1009 37.508 16.4832 35.7914 18.6663 34.5656C18.6924 34.5519 18.7184 34.5381 18.7437 34.5231C23.1617 32.0866 29.7647 32.0856 34.1849 34.5183C34.2159 34.5369 34.2478 34.5541 34.2801 34.5709C36.458 35.7963 37.8364 37.5107 37.8364 39.3739C37.8365 42.9948 32.6306 46.0539 26.4687 46.0539ZM33.6267 30.4123C29.1861 28.7651 23.7476 28.7663 19.3099 30.4126L18.3416 22.2533C23.7467 21.7748 29.1857 21.8027 34.5854 22.3381L33.6267 30.4123ZM4.16353 24.7019C7.68743 23.7864 11.2556 23.0976 14.8461 22.6328L15.9701 32.1046C9.5446 36.4439 10.177 44.0025 17.8221 47.7041L18.8644 56.4842H11.0123L4.16353 24.7019ZM41.8873 56.4842H34.0731L35.1154 47.7041C38.535 46.0484 41.3523 43.1706 41.3523 39.3739C41.3523 36.5872 39.7976 34.0155 36.9663 32.1038L38.0763 22.7555C41.3701 23.2173 44.6434 23.8669 47.8786 24.7084L41.8873 56.4842Z" fill="white"/>
</svg>
