<svg width="196" height="111" viewBox="0 0 196 111" fill="none" xmlns="http://www.w3.org/2000/svg">
<path d="M97.97 2.5C98.6603 2.5 99.22 1.94036 99.22 1.25C99.22 0.559644 98.6603 0 97.97 0C97.2796 0 96.72 0.559644 96.72 1.25C96.72 1.94036 97.2796 2.5 97.97 2.5Z" fill="#0F94F7"/>
<path d="M116.61 66.48L116.78 66.31L97.9699 58.52H97.9599L79.1599 66.3L79.3099 66.48H116.61ZM97.9799 60.68C99.0099 60.68 99.8399 61.51 99.8399 62.54C99.8399 63.57 98.9999 64.4 97.9799 64.4C96.9499 64.4 96.1199 63.57 96.1199 62.54C96.1199 61.51 96.9499 60.68 97.9799 60.68Z" fill="#0F94F7"/>
<path d="M0 71.35V106.1H78.2L78.21 71.35H0ZM10.53 101.1H5.16V92.09H10.53V101.1ZM10.53 83.04H5.16V74.03H10.53V83.04ZM23.34 101.1H17.97V92.09H23.34V101.1ZM23.34 83.04H17.97V74.03H23.34V83.04ZM36.16 101.1H30.8V92.09H36.17V101.1H36.16ZM36.16 83.04H30.8V74.03H36.17V83.04H36.16ZM48.98 101.1H43.61V92.09H48.98V101.1ZM48.98 83.04H43.61V74.03H48.98V83.04ZM61.8 101.1H56.43V92.09H61.8V101.1ZM61.8 83.04H56.43V74.03H61.8V83.04ZM74.62 101.1H69.25V92.09H74.62V101.1ZM74.62 83.04H69.25V74.03H74.62V83.04Z" fill="#0F94F7"/>
<path d="M102.05 95.12V110.34H116.79V92.27H79.1699V110.34H94.1899V95.12H102.05Z" fill="#0F94F7"/>
<path d="M101.37 71.35H94.6599V89.17H101.37V71.35Z" fill="#0F94F7"/>
<path d="M109.2 71.35H104.58V89.17H109.2V71.35Z" fill="#0F94F7"/>
<path d="M83.5999 71.35H81.4399V89.17H83.5999V71.35Z" fill="#0F94F7"/>
<path d="M91.4301 71.35H86.8101V89.17H91.4301V71.35Z" fill="#0F94F7"/>
<path d="M114.59 71.35H112.43V89.17H114.59V71.35Z" fill="#0F94F7"/>
<path d="M102.54 53.19C102.54 52.45 103.14 51.84 103.89 51.84C104.63 51.84 105.24 52.44 105.24 53.19V57.59H106.83V49.02H88.78V57.59H90.37V53.19C90.37 52.45 90.97 51.84 91.72 51.84C92.46 51.84 93.07 52.44 93.07 53.19V57.59H96.46V53.19C96.46 52.45 97.06 51.84 97.81 51.84C98.56 51.84 99.16 52.44 99.16 53.19V57.59H102.55V53.19H102.54Z" fill="#0F94F7"/>
<path d="M80.4999 71.35H79.1599V89.17H80.4999V71.35Z" fill="#0F94F7"/>
<path d="M85.87 71.35H84.53V89.17H85.87V71.35Z" fill="#0F94F7"/>
<path d="M93.7101 71.35H92.3701V89.17H93.7101V71.35Z" fill="#0F94F7"/>
<path d="M116.8 71.35H115.52V89.17H116.8V71.35Z" fill="#0F94F7"/>
<path d="M111.48 71.35H110.14V89.17H111.48V71.35Z" fill="#0F94F7"/>
<path d="M103.64 71.35H102.3V89.17H103.64V71.35Z" fill="#0F94F7"/>
<path d="M116.81 67.43H79.1599V70.45H116.81V67.43Z" fill="#0F94F7"/>
<path d="M101.63 43.14L100.66 42.1H95.02L94.05 43.14V43.58L94.76 44.34V48.08H100.93V44.34L101.63 43.58V43.14Z" fill="#0F94F7"/>
<path d="M116.81 90.2H79.1599V91.31H116.81V90.2Z" fill="#0F94F7"/>
<path d="M23.4999 60.91L20.1399 63.92H82.1199V60.91H23.4999Z" fill="#0F94F7"/>
<path d="M78.16 66.69L77.44 65.98L78.22 65.66V64.86H0V68.17H78.16V66.69Z" fill="#0F94F7"/>
<path d="M78.2 107.04H0V110.35H78.2V107.04Z" fill="#0F94F7"/>
<path d="M83.0801 58.55V63.64L95.3701 58.55H83.0801Z" fill="#0F94F7"/>
<path d="M112.89 63.64V58.55H100.6L112.89 63.64Z" fill="#0F94F7"/>
<path d="M78.15 69.11H0V70.42H78.15V69.11Z" fill="#0F94F7"/>
<path d="M117.75 106.1H195.96V71.35H117.8L117.75 106.1ZM185.43 74.03H190.8V83.04H185.43V74.03ZM185.43 92.09H190.8V101.1H185.43V92.09ZM172.62 74.03H177.99V83.04H172.62V74.03ZM172.62 92.09H177.99V101.1H172.62V92.09ZM159.8 74.03H165.17V83.04H159.8V74.03ZM159.8 92.09H165.17V101.1H159.8V92.09ZM146.98 74.03H152.35V83.04H146.98V74.03ZM146.98 92.09H152.35V101.1H146.98V92.09ZM134.16 74.03H139.53V83.04H134.16V74.03ZM134.16 92.09H139.53V101.1H134.16V92.09ZM121.34 74.03H126.71V83.04H121.34V74.03ZM121.34 92.09H126.71V101.1H121.34V92.09Z" fill="#0F94F7"/>
<path d="M172.46 60.91H113.85V63.92H175.82L172.46 60.91Z" fill="#0F94F7"/>
<path d="M117.8 66.64V68.17H195.96V64.86H117.74V65.68L118.48 65.98L117.8 66.64Z" fill="#0F94F7"/>
<path d="M195.96 107.04H117.75V110.35H195.96V107.04Z" fill="#0F94F7"/>
<path d="M195.96 70.42V69.11H117.8V70.16V70.42H195.96Z" fill="#0F94F7"/>
<path d="M97.9801 2.65997H97.9601L96.1001 41.16H99.6901L97.9801 2.65997Z" fill="#0F94F7"/>
</svg>
