<svg width="202" height="87" viewBox="0 0 202 87" fill="none" xmlns="http://www.w3.org/2000/svg">
<g clip-path="url(#clip0)">
<path d="M108.84 49.34H115.64V60.3H123.33V49.34H130.13V60.3H137.82V49.34H144.62V60.3H152.31V49.34H159.11V60.3H166.8V49.34H173.6V60.3H181.29V49.34H188.09V60.3H201.2V43.53H103.77V60.3H108.87V49.34H108.84ZM184.31 45.7H185C187.24 45.7 189.05 46.74 189.05 48.02H180.26C180.26 46.73 182.07 45.7 184.31 45.7ZM169.83 45.7H170.52C172.76 45.7 174.57 46.74 174.57 48.02H165.78C165.78 46.73 167.59 45.7 169.83 45.7ZM155.34 45.7H156.03C158.27 45.7 160.08 46.74 160.08 48.02H151.29C151.29 46.73 153.11 45.7 155.34 45.7ZM140.86 45.7H141.55C143.79 45.7 145.6 46.74 145.6 48.02H136.81C136.81 46.73 138.62 45.7 140.86 45.7ZM126.38 45.7H127.07C129.31 45.7 131.12 46.74 131.12 48.02H122.33C122.33 46.73 124.14 45.7 126.38 45.7ZM111.89 45.7H112.58C114.82 45.7 116.63 46.74 116.63 48.02H107.84C107.84 46.73 109.66 45.7 111.89 45.7Z" fill="#0F94F7"/>
<path d="M108.84 82.01V71.05H115.64V82.01H123.32V71.05H130.12V82.01H137.81V71.05H144.6V82.01H152.29V71.05H159.09V82.01H166.77V71.05H173.57V82.01H181.26V71.05H188.05V82.01H201.16V66.21H103.74V82.01H108.84Z" fill="#0F94F7"/>
<path d="M201.17 61.21H103.74V65.31H201.17V61.21Z" fill="#0F94F7"/>
<path d="M201.17 82.92H103.74V86.98H201.17V82.92Z" fill="#0F94F7"/>
<path d="M12.5801 86.98H14.9701V71.05H21.7701V86.98H24.1301V43.52H12.5801V86.98ZM21.7701 60.76H14.9701V49.34H21.7701V60.76ZM18.0201 45.7H18.7101C20.9501 45.7 22.7601 46.74 22.7601 48.02H13.9701C13.9701 46.73 15.7901 45.7 18.0201 45.7Z" fill="#0F94F7"/>
<path d="M67.3101 86.98H69.6501V71.05H76.4501V86.98H78.8201V43.52H67.3101V86.98ZM76.4501 60.76H69.6501V49.34H76.4501V60.76ZM72.7001 45.7H73.3901C75.6301 45.7 77.4401 46.74 77.4401 48.02H68.6501C68.6501 46.73 70.4701 45.7 72.7001 45.7Z" fill="#0F94F7"/>
<path d="M49.0801 86.98H51.4401V71.05H58.2401V86.98H60.6001V43.52H49.0801V86.98ZM58.2301 60.76H51.4301V49.34H58.2301V60.76ZM54.4901 45.7H55.1801C57.4201 45.7 59.2301 46.74 59.2301 48.02H50.4401C50.4401 46.73 52.2501 45.7 54.4901 45.7Z" fill="#0F94F7"/>
<path d="M85.54 86.98H87.88V71.05H94.68V86.98H97.02V43.52H85.54V86.98ZM94.68 60.76H87.88V49.34H94.68V60.76ZM90.93 45.7H91.62C93.86 45.7 95.67 46.74 95.67 48.02H86.88C86.88 46.73 88.7 45.7 90.93 45.7Z" fill="#0F94F7"/>
<path d="M30.8401 43.52V86.98H33.2001V71.05H40.0001V86.98H42.3601V43.52H30.8401ZM40.0001 60.76H33.2001V49.34H40.0001V60.76ZM32.2101 48.01C32.2101 46.73 34.0201 45.69 36.2601 45.69H36.9501C39.1901 45.69 41.0001 46.73 41.0001 48.01H32.2101Z" fill="#0F94F7"/>
<path d="M102.74 43.53H98.02V86.98H102.74V43.53Z" fill="#0F94F7"/>
<path d="M84.5401 43.53H79.8201V86.98H84.5401V43.53Z" fill="#0F94F7"/>
<path d="M66.3101 43.52H61.5901V86.98H66.3101V43.52Z" fill="#0F94F7"/>
<path d="M48.0801 43.52H43.3601V86.98H48.0801V43.52Z" fill="#0F94F7"/>
<path d="M29.8499 43.52H25.1299V86.98H29.8499V43.52Z" fill="#0F94F7"/>
<path d="M11.5801 43.53H6.86011V86.99H11.5801V43.53Z" fill="#0F94F7"/>
<path d="M102.72 29.17H6.86011V39.27H102.73L102.72 29.17Z" fill="#0F94F7"/>
<path d="M102.73 40.27H6.86011V42.52H102.73V40.27Z" fill="#0F94F7"/>
<path d="M201.16 40.28H103.74V42.53H201.16V40.28Z" fill="#0F94F7"/>
<path d="M136.36 29.17H103.73V33.17H136.36V29.17Z" fill="#0F94F7"/>
<path d="M201.16 34.18H103.73V39.27H201.16V34.18Z" fill="#0F94F7"/>
<path d="M54.64 9.29L94.43 24.05H106.14L109.66 20.69L54.64 0L0 20.69L3.52 24.05H14.84L54.64 9.29Z" fill="#0F94F7"/>
<path d="M91.5999 24.05L54.6399 10.34L17.6799 24.05H91.5999Z" fill="#0F94F7"/>
<path d="M105.68 25.05H3.78003V28.18H105.68V25.05Z" fill="#0F94F7"/>
</g>
<defs>
<clipPath id="clip0">
<rect width="201.16" height="86.98" fill="white"/>
</clipPath>
</defs>
</svg>
