<svg width="191" height="57" viewBox="0 0 191 57" fill="none" xmlns="http://www.w3.org/2000/svg">
<path d="M94.788 26.8582C89.6226 26.4924 85.5409 22.1592 85.5409 16.8718H77.425V31.8593H94.788V26.8582Z" fill="#0F94F7"/>
<path d="M96.2119 26.8582V31.8593H113.575V16.8718H105.459C105.459 22.1671 101.385 26.4924 96.2119 26.8582Z" fill="#0F94F7"/>
<path d="M94.788 6.88548V0H77.425V15.4406H85.6438C86.3003 10.8212 90.0893 7.21942 94.788 6.88548Z" fill="#0F94F7"/>
<path d="M105.356 15.4406H113.575V0H96.2119V6.88548C100.903 7.21942 104.7 10.8212 105.356 15.4406Z" fill="#0F94F7"/>
<path d="M114.753 32.4953H76.2385V39.6988H114.753V32.4953Z" fill="#0F94F7"/>
<path d="M77.425 57H81.7282V42.418H88.705V57H92.0115V42.418H98.9883V57H102.627V42.418H109.604V57H113.575V40.3349H77.425V57Z" fill="#0F94F7"/>
<path d="M191 4.03906H114.208V18.1758H191V4.03906Z" fill="#0F94F7"/>
<path d="M114.208 31.8672H116.763V22.7237H132.275V31.8672H134.529V22.7237H150.041V31.8672H152.295V22.7237H167.807V31.8672H170.07V22.7237H185.582V31.8672H191V18.8118H114.208V31.8672Z" fill="#0F94F7"/>
<path d="M191 32.4953H115.386V39.6988H191V32.4953Z" fill="#0F94F7"/>
<path d="M114.208 40.3349V57H191V40.3349H114.208ZM170.07 42.418H185.582V51.8716H170.07V42.418ZM152.295 42.418H167.807V51.8716H152.295V42.418ZM134.529 42.418H150.041V51.8716H134.529V42.418ZM116.763 42.418H132.275V51.8716H116.763V42.418Z" fill="#0F94F7"/>
<path d="M89.5277 15.4406C89.4169 15.9018 89.3616 16.3788 89.3616 16.8797C89.3616 20.0362 91.7346 22.6521 94.788 23.0019C95.0253 23.0258 95.2626 23.0417 95.4999 23.0417C95.7451 23.0417 95.9824 23.0258 96.2118 23.0019C99.2572 22.6441 101.638 20.0362 101.638 16.8797C101.638 16.3868 101.575 15.9018 101.472 15.4406C100.879 12.9599 98.7905 11.0517 96.2197 10.7496C95.9824 10.7257 95.7451 10.7098 95.5078 10.7098C95.2626 10.7098 95.0253 10.7257 94.7959 10.7496C92.2092 11.0517 90.121 12.952 89.5277 15.4406ZM101.005 16.8718C101.005 19.6785 98.9092 22.0081 96.2118 22.3579C95.9745 22.3897 95.7372 22.4056 95.4999 22.4056C95.2626 22.4056 95.0174 22.3897 94.788 22.3579C92.0906 22.0081 89.9944 19.6785 89.9944 16.8718C89.9944 16.3788 90.0577 15.8938 90.1842 15.4327C90.7538 13.3018 92.5652 11.6719 94.788 11.3857C95.0253 11.3539 95.2626 11.338 95.4999 11.338C95.7372 11.338 95.9824 11.3539 96.2118 11.3857C98.4346 11.6798 100.246 13.3018 100.816 15.4327C100.942 15.8938 101.005 16.3788 101.005 16.8718Z" fill="#0F94F7"/>
<path d="M97.5488 15.4406C97.2244 14.9874 96.7577 14.6535 96.2119 14.4945C95.9904 14.4309 95.7531 14.3911 95.5158 14.3911C95.2627 14.3911 95.0175 14.4309 94.7881 14.5024C94.2581 14.6614 93.7993 15.0033 93.4829 15.4406C93.1902 15.8461 93.0162 16.3391 93.0083 16.8797C93.0083 16.8956 93.0083 16.9036 93.0083 16.9195C93.0083 18.0565 93.7598 19.0185 94.7881 19.3366C95.0175 19.4081 95.2627 19.4479 95.5158 19.4479C95.7611 19.4479 95.9904 19.4081 96.2119 19.3445C97.2561 19.0424 98.0234 18.0724 98.0234 16.9195C98.0234 16.9036 98.0234 16.8956 98.0234 16.8797C98.0155 16.3391 97.8414 15.8461 97.5488 15.4406ZM94.3135 18.1042V15.7269H96.6786V18.1042H94.3135Z" fill="#0F94F7"/>
<path d="M76.7923 4.03906H0V18.1758H76.7923V4.03906Z" fill="#0F94F7"/>
<path d="M5.4185 22.7237H20.9304V31.8672H23.1927V22.7237H38.7047V31.8672H40.9591V22.7237H56.471V31.8672H58.7254V22.7237H74.2373V31.8672H76.7923V18.8118H0V31.8672H5.4185V22.7237Z" fill="#0F94F7"/>
<path d="M75.6137 32.4953H0V39.6988H75.6137V32.4953Z" fill="#0F94F7"/>
<path d="M0 40.3349V57H76.7923V40.3349H0ZM20.9304 51.8716H5.4185V42.418H20.9304V51.8716ZM38.7047 51.8716H23.1927V42.418H38.7047V51.8716ZM56.471 51.8716H40.9591V42.418H56.471V51.8716ZM74.2373 51.8716H58.7254V42.418H74.2373V51.8716Z" fill="#0F94F7"/>
</svg>
