<?xml version="1.0" encoding="iso-8859-1"?>
<!-- Generator: Adobe Illustrator 22.1.0, SVG Export Plug-In . SVG Version: 6.00 Build 0)  -->
<svg fill="#fff" xmlns="http://www.w3.org/2000/svg" xmlns:xlink="http://www.w3.org/1999/xlink" version="1.1" id="Layer_1_1_" x="0px" y="0px" viewBox="0 0 64 64" style="enable-background:new 0 0 64 64;" xml:space="preserve" width="512" height="512">
<g>
	<rect x="12" y="53" width="2" height="2"/>
	<path d="M52.164,35.407C57.548,32.5,61,26.125,61,19c0-9.925-6.729-18-15-18S31,9.075,31,19c0,7.125,3.452,13.5,8.836,16.407   L41,42.086V45h-5.525C35.809,44.06,36,43.053,36,42c0-4.962-4.038-9-9-9s-9,4.038-9,9c0,1.053,0.191,2.06,0.525,3H12v2h7.522   c1.617,2.41,4.365,4,7.478,4s5.861-1.59,7.478-4H49v2h-7v2h7v2H16v2h25v2c-1.103,0-2,0.897-2,2v2c0,1.103,0.897,2,2,2h10   c1.103,0,2-0.897,2-2v-2c0-1.103-0.897-2-2-2V42.086L52.164,35.407z M27,35c2.373,0,4.47,1.189,5.736,3H32   c-1.635,0-3.042,1.22-3.272,2.838l-0.435,3.041C28.202,44.518,27.646,45,27,45s-1.202-0.482-1.293-1.122l-0.435-3.04   C25.042,39.22,23.635,38,22,38h-0.736C22.53,36.189,24.627,35,27,35z M27,49c-3.86,0-7-3.14-7-7c0-0.695,0.105-1.366,0.295-2H22   c0.646,0,1.202,0.482,1.293,1.122l0.435,3.04C23.958,45.78,25.365,47,27,47s3.042-1.22,3.272-2.838l0.435-3.041   C30.798,40.482,31.354,40,32,40h1.705C33.895,40.634,34,41.305,34,42C34,45.86,30.86,49,27,49z M33,19c0-8.822,5.832-16,13-16   s13,7.178,13,16c0,6.569-3.21,12.398-8.179,14.85l-0.456,0.225L49.159,41h-6.318l-1.207-6.925l-0.456-0.225   C36.21,31.398,33,25.569,33,19z M43,45v-2h6v2H43z M51.001,61H41v-2h10L51.001,61z M43,57v-2h6v2H43z"/>
	<path d="M43.43,32.73L44.522,39h2.955l1.092-6.27l1.367-0.674C54.162,29.972,57,24.725,57,19c0-7.72-4.935-14-11-14s-11,6.28-11,14   c0,5.725,2.838,10.972,7.063,13.056L43.43,32.73z M46.774,31.385L46,35.828l-0.774-4.443l-1.472-0.726L46,28.414l2.246,2.246   L46.774,31.385z M50.069,29.655L47.414,27L50,24.414l2.629,2.629C51.908,28.095,51.044,28.984,50.069,29.655z M37.164,16.75   c0.206-1.444,0.611-2.791,1.169-4.003L40.586,15L38,17.586L37.164,16.75z M38,20.414L40.586,23l-2.239,2.239   c-0.567-1.22-0.968-2.571-1.177-3.995L38,20.414z M39.414,19L42,16.414L44.586,19L42,21.586L39.414,19z M54.83,21.244   c-0.209,1.424-0.61,2.775-1.177,3.995L51.414,23L54,20.414L54.83,21.244z M54,17.586L51.414,15l2.253-2.253   c0.558,1.211,0.963,2.559,1.169,4.003L54,17.586z M52.586,19L50,21.586L47.414,19L50,16.414L52.586,19z M46,17.586L43.414,15   L46,12.414L48.586,15L46,17.586z M46,20.414L48.586,23L46,25.586L43.414,23L46,20.414z M52.647,10.939L50,13.586L47.414,11   l2.676-2.676C51.058,8.986,51.921,9.876,52.647,10.939z M48.206,7.38L46,9.586L43.794,7.38C44.501,7.141,45.238,7,46,7   S47.499,7.141,48.206,7.38z M41.91,8.324L44.586,11L42,13.586l-2.647-2.647C40.079,9.876,40.942,8.986,41.91,8.324z M39.371,27.043   L42,24.414L44.586,27l-2.655,2.655C40.956,28.984,40.092,28.095,39.371,27.043z"/>
	<rect x="34" y="49" width="2" height="2"/>
	<rect x="38" y="49" width="2" height="2"/>
	<rect x="8" y="53" width="2" height="2"/>
	<rect x="4" y="53" width="2" height="2"/>
	<rect x="8" y="45" width="2" height="2"/>
	<rect x="4" y="45" width="2" height="2"/>
</g>
</svg>
