<svg fill="#fff" xmlns="http://www.w3.org/2000/svg" height="590pt" version="1.1" viewBox="-64 0 590 590.954" width="590pt">
<g id="surface1">
<path d="M 359.785156 419.90625 C 359.425781 407 348.671875 396.832031 335.769531 397.191406 C 322.863281 397.546875 312.695312 408.300781 313.054688 421.203125 C 313.066406 421.769531 313.105469 422.339844 313.164062 422.90625 C 303.195312 433.617188 291.410156 442.480469 278.359375 449.089844 C 255.367188 460.140625 206.765625 460.140625 183.773438 449.089844 C 170.714844 442.460938 158.929688 433.578125 148.96875 422.84375 C 150.589844 410.039062 141.523438 398.339844 128.71875 396.714844 C 115.914062 395.09375 104.210938 404.164062 102.589844 416.96875 C 100.96875 429.773438 110.035156 441.472656 122.84375 443.09375 C 123.800781 443.214844 124.757812 443.28125 125.722656 443.28125 C 138.480469 457.082031 153.625 468.460938 170.425781 476.871094 C 189.535156 485.265625 210.234375 489.402344 231.097656 489.007812 C 251.984375 489.410156 272.707031 485.269531 291.832031 476.871094 C 308.636719 468.453125 323.777344 457.074219 336.539062 443.28125 C 349.378906 443.179688 359.75 432.75 359.785156 419.90625 Z M 334.75 430.378906 C 332.660156 430.074219 330.558594 430.8125 329.128906 432.359375 C 317.011719 445.957031 302.457031 457.152344 286.210938 465.378906 C 256.640625 479.8125 205.550781 479.8125 175.917969 465.378906 C 159.671875 457.152344 145.117188 445.957031 133 432.359375 C 131.800781 431.0625 130.109375 430.324219 128.339844 430.316406 L 125.785156 430.316406 C 119.925781 430.304688 115.195312 425.546875 115.207031 419.691406 C 115.222656 413.832031 119.980469 409.101562 125.835938 409.113281 C 131.691406 409.128906 136.425781 413.886719 136.410156 419.742188 C 136.410156 420.796875 136.25 421.84375 135.9375 422.84375 C 135.195312 425.066406 135.738281 427.519531 137.34375 429.230469 C 148.894531 442.152344 162.761719 452.8125 178.214844 460.652344 C 204.910156 473.425781 257.214844 473.425781 283.910156 460.652344 C 299.367188 452.8125 313.230469 442.152344 324.785156 429.230469 C 326.386719 427.519531 326.929688 425.066406 326.1875 422.84375 C 324.496094 417.238281 327.664062 411.324219 333.273438 409.632812 C 338.878906 407.9375 344.792969 411.105469 346.484375 416.714844 C 348.175781 422.320312 345.007812 428.234375 339.402344 429.929688 C 338.410156 430.226562 337.378906 430.382812 336.34375 430.382812 L 334.75 430.382812 Z M 334.75 430.378906 " style=" stroke:none;fill-rule:nonzero;fill:rgb(0%,0%,0%);fill-opacity:1;" />
<path d="M 440.761719 548.210938 L 440.761719 544.570312 C 440.722656 534.191406 435.085938 524.636719 426.007812 519.597656 L 426.007812 395.511719 C 437.632812 392.152344 444.332031 380.003906 440.972656 368.386719 C 438.136719 358.585938 428.914062 352.039062 418.730469 352.59375 L 416.300781 352.59375 L 416.300781 342.824219 C 429.921875 331.621094 431.890625 311.503906 420.695312 297.875 C 409.5 284.246094 389.375 282.285156 375.75 293.480469 C 362.121094 304.675781 360.160156 324.800781 371.355469 338.429688 C 372.671875 340.03125 374.144531 341.5 375.75 342.824219 L 375.75 352.59375 L 373.320312 352.59375 C 361.226562 352.472656 351.320312 362.1875 351.199219 374.28125 C 351.101562 383.757812 357.121094 392.226562 366.105469 395.253906 L 366.105469 519.660156 C 357.03125 524.699219 351.390625 534.253906 351.351562 544.632812 L 351.351562 548.273438 C 339.011719 551.746094 330.46875 562.980469 330.40625 575.796875 L 330.40625 584.613281 C 330.40625 588.136719 333.265625 590.996094 336.789062 590.996094 L 455.324219 590.996094 C 458.847656 590.996094 461.710938 588.136719 461.710938 584.613281 L 461.710938 575.796875 C 461.679688 562.957031 453.128906 551.691406 440.761719 548.210938 Z M 396.058594 299.140625 C 406.640625 299.140625 415.21875 307.714844 415.21875 318.296875 C 415.21875 328.882812 406.640625 337.457031 396.058594 337.457031 C 385.476562 337.457031 376.898438 328.882812 376.898438 318.296875 C 376.96875 307.769531 385.527344 299.265625 396.058594 299.265625 Z M 388.585938 349.210938 C 393.503906 350.523438 398.675781 350.523438 403.59375 349.210938 L 403.59375 352.59375 L 388.585938 352.59375 Z M 373.386719 365.367188 L 418.730469 365.367188 C 423.808594 365.359375 427.933594 369.472656 427.941406 374.550781 C 427.945312 379.628906 423.832031 383.753906 418.757812 383.757812 C 418.75 383.757812 418.738281 383.757812 418.730469 383.757812 L 373.386719 383.757812 C 368.308594 383.753906 364.195312 379.628906 364.203125 374.550781 C 364.207031 369.480469 368.316406 365.371094 373.386719 365.367188 Z M 378.941406 396.53125 L 413.238281 396.53125 L 413.238281 515.957031 L 378.878906 515.957031 Z M 380.15625 528.347656 L 412.089844 528.347656 C 420.890625 528.378906 428.023438 535.515625 428.054688 544.316406 L 428.054688 546.742188 L 364.191406 546.742188 L 364.191406 544.316406 C 364.363281 535.609375 371.453125 528.636719 380.15625 528.605469 Z M 448.9375 577.90625 L 343.242188 577.90625 L 343.242188 575.480469 C 343.273438 566.679688 350.40625 559.542969 359.207031 559.511719 L 432.972656 559.511719 C 441.773438 559.542969 448.90625 566.679688 448.9375 575.480469 C 448.9375 575.480469 448.9375 577.90625 448.9375 577.90625 Z M 448.9375 577.90625 " style=" stroke:none;fill-rule:nonzero;fill:rgb(0%,0%,0%);fill-opacity:1;" />
<path d="M 110.777344 548.210938 L 110.777344 544.570312 C 110.738281 534.191406 105.097656 524.636719 96.023438 519.597656 L 96.023438 395.511719 C 107.640625 392.144531 114.332031 379.992188 110.96875 368.375 C 108.136719 358.609375 98.960938 352.078125 88.804688 352.59375 L 86.378906 352.59375 L 86.378906 342.820312 C 100 331.621094 101.96875 311.503906 90.773438 297.875 C 79.570312 284.253906 59.453125 282.285156 45.828125 293.480469 C 32.199219 304.675781 30.238281 324.800781 41.433594 338.425781 C 42.746094 340.03125 44.222656 341.5 45.828125 342.820312 L 45.828125 352.59375 L 43.398438 352.59375 C 31.304688 352.472656 21.398438 362.183594 21.277344 374.28125 C 21.179688 383.757812 27.195312 392.226562 36.183594 395.253906 L 36.183594 519.660156 C 27.109375 524.699219 21.46875 534.253906 21.429688 544.632812 L 21.429688 548.273438 C 9.089844 551.746094 0.546875 562.980469 0.480469 575.796875 L 0.480469 584.609375 C 0.480469 588.136719 3.34375 590.996094 6.867188 590.996094 L 125.335938 590.996094 C 128.863281 590.996094 131.722656 588.136719 131.722656 584.609375 L 131.722656 575.796875 C 131.691406 562.957031 123.140625 551.691406 110.777344 548.210938 Z M 66.070312 299.140625 C 76.65625 299.140625 85.230469 307.714844 85.230469 318.296875 C 85.230469 328.882812 76.65625 337.457031 66.070312 337.457031 C 55.488281 337.457031 46.914062 328.882812 46.914062 318.296875 C 46.980469 307.742188 55.578125 299.230469 66.136719 299.265625 Z M 58.664062 349.335938 C 63.582031 350.652344 68.753906 350.652344 73.671875 349.335938 L 73.671875 352.59375 L 58.664062 352.59375 Z M 43.464844 365.367188 L 88.808594 365.367188 C 93.886719 365.371094 97.996094 369.5 97.992188 374.574219 C 97.984375 379.644531 93.878906 383.753906 88.808594 383.757812 L 43.464844 383.757812 C 38.386719 383.753906 34.273438 379.628906 34.28125 374.550781 C 34.285156 369.480469 38.394531 365.371094 43.464844 365.367188 Z M 49.019531 396.53125 L 83.316406 396.53125 L 83.316406 515.957031 L 48.957031 515.957031 Z M 50.234375 528.347656 L 82.164062 528.347656 C 90.964844 528.378906 98.101562 535.515625 98.132812 544.316406 L 98.132812 546.742188 L 34.265625 546.742188 L 34.265625 544.316406 C 34.4375 535.609375 41.527344 528.636719 50.234375 528.605469 Z M 119.015625 577.90625 L 13.253906 577.90625 L 13.253906 575.480469 C 13.289062 566.679688 20.421875 559.542969 29.222656 559.511719 L 102.984375 559.511719 C 111.785156 559.542969 118.917969 566.679688 118.953125 575.480469 Z M 119.015625 577.90625 " style=" stroke:none;fill-rule:nonzero;fill:rgb(0%,0%,0%);fill-opacity:1;" />
<path d="M 24.625 276.660156 C 24.9375 277.347656 25.371094 277.976562 25.902344 278.511719 C 26.164062 278.703125 26.445312 278.875 26.730469 279.023438 C 27.109375 279.320312 27.511719 279.578125 27.945312 279.789062 C 28.710938 280.113281 29.535156 280.285156 30.371094 280.300781 L 431.628906 280.300781 C 432.46875 280.285156 433.289062 280.113281 434.058594 279.789062 C 434.464844 279.578125 434.855469 279.316406 435.207031 279.023438 C 435.5 278.851562 435.773438 278.65625 436.035156 278.445312 C 436.566406 277.910156 437 277.285156 437.3125 276.59375 C 437.582031 275.921875 437.734375 275.207031 437.761719 274.488281 L 437.761719 5.621094 C 437.734375 4.898438 437.582031 4.183594 437.3125 3.511719 C 437 2.820312 436.566406 2.195312 436.035156 1.660156 C 435.8125 1.492188 435.578125 1.347656 435.335938 1.214844 C 434.542969 0.460938 433.496094 0.0234375 432.394531 0 L 29.734375 0 C 28.636719 0.0273438 27.585938 0.460938 26.792969 1.214844 C 26.550781 1.347656 26.316406 1.492188 26.09375 1.660156 C 25.5625 2.195312 25.128906 2.820312 24.816406 3.511719 C 24.546875 4.183594 24.394531 4.898438 24.367188 5.621094 L 24.367188 274.488281 C 24.328125 275.222656 24.414062 275.957031 24.625 276.660156 Z M 64.285156 248.878906 L 397.910156 248.878906 L 416.558594 268.035156 L 45.890625 268.035156 Z M 394.269531 236.105469 L 373.960938 236.105469 L 285.636719 56.390625 C 284.066406 53.234375 280.226562 51.953125 277.074219 53.523438 C 275.832031 54.144531 274.824219 55.144531 274.207031 56.390625 L 226.179688 153.976562 L 189.96875 80.46875 C 188.398438 77.3125 184.558594 76.03125 181.40625 77.601562 C 180.164062 78.21875 179.15625 79.222656 178.535156 80.46875 L 101.898438 236.105469 L 67.988281 236.105469 L 67.988281 44 L 394.207031 44 Z M 162.316406 142.417969 C 165.335938 143.453125 168.507812 143.992188 171.703125 144.011719 C 176.484375 143.921875 181.230469 143.1875 185.816406 141.839844 C 191.960938 139.703125 198.53125 139.0625 204.976562 139.988281 L 252.363281 236.359375 L 116.140625 236.359375 Z M 168 130.792969 L 184.285156 97.710938 L 198.398438 126.449219 C 193.003906 126.707031 187.664062 127.625 182.496094 129.195312 C 177.871094 130.941406 172.890625 131.488281 168 130.792969 Z M 266.542969 236.105469 L 233.269531 168.410156 L 258.367188 117.316406 C 261.417969 118.320312 264.605469 118.835938 267.820312 118.851562 C 272.792969 118.664062 277.722656 117.875 282.507812 116.488281 C 288.203125 114.71875 294.207031 114.15625 300.132812 114.828125 L 359.71875 236.167969 Z M 264.113281 105.757812 L 279.886719 73.824219 L 293.683594 101.863281 C 288.867188 102.207031 284.097656 103.023438 279.441406 104.289062 C 274.511719 105.9375 269.269531 106.441406 264.113281 105.757812 Z M 407.042969 239.871094 L 407.042969 40.234375 L 425.246094 21.394531 L 425.246094 258.710938 Z M 397.910156 31.226562 L 64.285156 31.226562 L 45.636719 12.070312 L 416.304688 12.070312 Z M 55.214844 40.234375 L 55.214844 239.871094 L 36.949219 258.714844 L 36.949219 21.394531 Z M 55.214844 40.234375 " style=" stroke:none;fill-rule:nonzero;fill:rgb(0%,0%,0%);fill-opacity:1;" />
<path d="M 116.140625 116.296875 C 132.964844 116.296875 146.605469 102.65625 146.605469 85.832031 C 146.605469 69.011719 132.964844 55.367188 116.140625 55.367188 C 99.320312 55.367188 85.679688 69.011719 85.679688 85.832031 C 85.679688 102.65625 99.320312 116.296875 116.140625 116.296875 Z M 116.140625 68.207031 C 125.914062 68.207031 133.832031 76.125 133.832031 85.894531 C 133.832031 95.667969 125.914062 103.585938 116.140625 103.585938 C 106.371094 103.585938 98.449219 95.667969 98.449219 85.894531 C 98.382812 76.125 106.242188 68.148438 116.011719 68.078125 C 116.058594 68.078125 116.097656 68.078125 116.140625 68.078125 Z M 116.140625 68.207031 " style=" stroke:none;fill-rule:nonzero;fill:rgb(0%,0%,0%);fill-opacity:1;" />
</g>
</svg>