<svg fill="#fff" id="_x33_0" enable-background="new 0 0 64 64" height="512" viewBox="0 0 64 64" width="512" xmlns="http://www.w3.org/2000/svg"><g><path fill="#fff" d="m47 27h2.697l6.303 4.202 7-4.667v-21.07l-7-4.667-6.303 4.202h-2.697c-1.103 0-2 .897-2 2v6.105l-15.207 1.69c-1.413-2.273-3.925-3.795-6.793-3.795-4.411 0-8 3.589-8 8 0 2.313.992 4.393 2.567 5.855l-13.237 32.145h-1.33c-1.103 0-2 .897-2 2v2c0 1.103.897 2 2 2h58v-19.333l-10-13.334-8.168 10.89-5.832-9.072-3.391 5.274-5.176-12.57c1.179-1.094 2.03-2.534 2.382-4.162l14.185-1.576v5.883c0 1.103.897 2 2 2zm4-10h4v4.612l-4-1.333zm6 0h4v3.279l-4 1.333zm4-2h-4v-4.612l4 1.333zm-6 0h-4v-3.279l4-1.333zm-4 7.388 4 1.333v4.411l-4-2.667zm6 5.744v-4.411l4-1.333v3.077zm4-18.52-4-1.333v-4.411l4 2.667zm-6-5.744v4.411l-4 1.333v-3.077zm-8 3.132h2v18h-2zm-18 42h3.213l3.294 8h-6.507zm.832-2 .949-1.477.608 1.477zm-2.832.706v9.294h-16.507l12.356-30.008c.051.001.1.008.151.008s.1-.007.151-.008l6.702 16.277zm-4-22.706c-.414 0-.819-.042-1.21-.123l1.21-.924 1.21.924c-.391.081-.796.123-1.21.123zm0-3.563-2.447 1.87.924-2.991-2.742-2.316h3.336l.929-2.813.93 2.813h3.336l-2.742 2.315.924 2.991zm5.188-5.437h-2.813l-.931-2.817c1.596.397 2.939 1.43 3.744 2.817zm-6.632-2.817-.931 2.817h-2.813c.805-1.387 2.148-2.42 3.744-2.817zm-4.548 5.977 2.167 1.83-.625 2.022c-.926-1.028-1.503-2.373-1.542-3.852zm2.228 6.895c.496.266 1.025.476 1.576.633l-12.482 30.312h-1.837zm23.764 34.945h-40v-2h40zm-2-5.627-2.624-6.373h2.624zm12 5.627h-4v-6c0-1.103.897-2 2-2s2 .897 2 2zm2 0v-6c0-2.206-1.794-4-4-4s-4 1.794-4 4v6h-2v-2c0-1.103-.897-2-2-2v-8h16v12zm-2-16v2h-4v-2zm-3.719-2 1.719-6.877 1.719 6.877zm5.719 2h4v2h-4zm-.247-2-1.599-6.462 4.846 6.462zm-7.534 0h-3.219l4.829-6.438zm-4.219 2h4.021l-.014 2h-4.007zm-6-9.151 4.552 7.081-.552.737v3.333h-3.448l-3.014-7.32zm2.507 21.151h-1.837l-12.481-30.312c.551-.157 1.08-.367 1.576-.633zm-12.058-33.989-.625-2.022 2.167-1.83c-.038 1.48-.615 2.825-1.542 3.852zm3.534-4.348c-.028-.675-.135-1.33-.321-1.953l14.338-1.593v1.988z"/><path d="m5.301 9.285-2.957 2.957 1.414 1.414 2.957-2.957c.092.045.187.082.285.117v4.184h2v-4.184c.098-.035.193-.072.285-.116l2.957 2.957 1.414-1.414-2.957-2.957c.045-.093.082-.188.117-.286h4.184v-2h-4.184c-.035-.098-.072-.193-.116-.285l2.957-2.957-1.414-1.414-2.958 2.957c-.092-.045-.187-.082-.285-.117v-4.184h-2v4.184c-.098.035-.193.072-.285.117l-2.958-2.958-1.414 1.414 2.957 2.957c-.044.093-.081.188-.116.286h-4.184v2h4.184c.035.098.072.193.117.285zm1.699-1.285c0-.551.449-1 1-1s1 .449 1 1-.449 1-1 1-1-.449-1-1z"/><path d="m26 7c1.654 0 3-1.346 3-3s-1.346-3-3-3-3 1.346-3 3 1.346 3 3 3zm0-4c.551 0 1 .449 1 1s-.449 1-1 1-1-.449-1-1 .449-1 1-1z"/><path d="m4 25c1.654 0 3-1.346 3-3s-1.346-3-3-3-3 1.346-3 3 1.346 3 3 3zm0-4c.551 0 1 .449 1 1s-.449 1-1 1-1-.449-1-1 .449-1 1-1z"/><path d="m9 28c0 1.654 1.346 3 3 3s3-1.346 3-3-1.346-3-3-3-3 1.346-3 3zm4 0c0 .551-.449 1-1 1s-1-.449-1-1 .449-1 1-1 1 .449 1 1z"/><path d="m37 11h2v-2h2v-2h-2v-2h-2v2h-2v2h2z"/><path d="m43 33v-2h2v-2h-2v-2h-2v2h-2v2h2v2z"/><path d="m35 23h2v2h-2z"/><path d="m23 39h2v2h-2z"/><path d="m19 5h2v2h-2z"/><path d="m7 35h2v2h-2z"/></g></svg>