<?xml version="1.0" standalone="no"?>
<!DOCTYPE svg PUBLIC "-//W3C//DTD SVG 1.1//EN" "http://www.w3.org/Graphics/SVG/1.1/DTD/svg11.dtd" >
<svg>
<metadata>
Created by FontForge 20090914 at Tue Sep  7 14:23:45 2021
 By www-data
Copyright (c) 2019 by Kyrylo Tkachov. All rights reserved.
</metadata>
<defs>
<font id="RockStar-Regular" horiz-adv-x="742" >
  <font-face 
    font-family="Rock Star "
    font-weight="400"
    font-stretch="normal"
    units-per-em="1000"
    panose-1="0 0 0 0 0 0 0 0 0 0"
    ascent="765"
    descent="-235"
    x-height="529"
    cap-height="700"
    bbox="-49 -293 1453 975"
    underline-thickness="47"
    underline-position="-93"
    unicode-range="U+000D-U+FB02"
  />
<missing-glyph horiz-adv-x="302" 
 />
    <glyph glyph-name=".notdef" horiz-adv-x="302" 
 />
    <glyph glyph-name="CR" unicode="&#xd;" horiz-adv-x="302" 
 />
    <glyph glyph-name="CR" horiz-adv-x="302" 
 />
    <glyph glyph-name="space" unicode=" " horiz-adv-x="302" 
 />
    <glyph glyph-name="exclam" unicode="!" horiz-adv-x="296" 
d="M95 0v103h106v-103h-106zM107 184l-12 516h105l-11 -516h-82z" />
    <glyph glyph-name="quotedbl" unicode="&#x22;" horiz-adv-x="294" 
d="M50 491l-13 259h87l-13 -259h-61zM183 491l-13 259h87l-14 -259h-60z" />
    <glyph glyph-name="numbersign" unicode="#" horiz-adv-x="870" 
d="M420 0l75 192h-245l-75 -192h-73l74 192h-143v64h169l76 195h-184v64h209l73 185h74l-73 -185h245l73 185h73l-73 -185h142v-64h-167l-76 -195h182v-64h-208l-74 -192h-74zM351 451l-76 -195h245l76 195h-245z" />
    <glyph glyph-name="dollar" unicode="$" horiz-adv-x="837" 
d="M768 540l-73.002 -50c-47.333 61.333 -126.666 97 -237.999 107v-198c64.667 -6 119.334 -15.167 164.001 -27.5s81.334 -31.5 110.001 -57.5s43 -58.333 43 -97c0 -42.667 -15 -78.834 -45 -108.501s-68 -51.334 -114 -65.001s-98.667 -21.5 -158 -23.5v-60h-69v60
c-76 4.66699 -145.5 20.667 -208.5 48s-109.5 62 -139.5 104l72 49c23.333 -33.333 60.166 -60.666 110.499 -81.999s105.5 -34.666 165.5 -39.999v226c-102.667 10 -179.667 27.333 -231 52s-77 62.667 -77 114c0 54.667 29.167 99.167 87.5 133.5s131.833 52.5 220.5 54.5
v61h69v-63c68.667 -5.33301 130.5 -20 185.5 -44s96.833 -55 125.5 -93zM685.998 215c0 31.333 -19.833 54.832 -59.5 70.499s-96.167 26.834 -169.5 33.501v-221c68 1.33301 123.167 11.5 165.5 30.5s63.5 47.833 63.5 86.5zM171.998 494.999
c0 -27.333 16.833 -47.333 50.5 -60s88.834 -22.667 165.501 -30v196c-58.667 0 -109.334 -10 -152.001 -30s-64 -45.333 -64 -76z" />
    <glyph glyph-name="percent" unicode="%" horiz-adv-x="1058" 
d="M123 0l720 700h91l-720 -700h-91zM69 536c0 55.333 19.333 99.166 58 131.499s90 48.5 154 48.5c64.667 0 116.334 -16.167 155.001 -48.5s58 -76.166 58 -131.499s-19.333 -99.166 -58 -131.499s-90.334 -48.5 -155.001 -48.5c-64 0 -115.333 16.167 -154 48.5
s-58 76.166 -58 131.499zM564 162c0 55.333 19.333 99.166 58 131.499s90 48.5 154 48.5c64.667 0 116.334 -16.167 155.001 -48.5s58 -76.166 58 -131.499s-19.333 -99.166 -58 -131.499s-90.334 -48.5 -155.001 -48.5c-64 0 -115.333 16.167 -154 48.5
s-58 76.166 -58 131.499zM422 536c0 36.667 -13 65.834 -39 87.501s-60 32.5 -102 32.5c-41.333 0 -75 -10.833 -101 -32.5s-39 -50.834 -39 -87.501s13 -66 39 -88s59.667 -33 101 -33c42 0 76 11 102 33s39 51.333 39 88zM917 162c0 36.667 -13 65.834 -39 87.501
s-60 32.5 -102 32.5c-41.333 0 -75 -10.833 -101 -32.5s-39 -50.834 -39 -87.501s13 -66 39 -88s59.667 -33 101 -33c42 0 76 11 102 33s39 51.333 39 88z" />
    <glyph glyph-name="ampersand" unicode="&#x26;" horiz-adv-x="854" 
d="M614 533c0 -94 -81.3291 -159.332 -243.996 -195.999c77.333 -74 147.666 -132.333 210.999 -175c76.667 71.333 131.667 168 165 290c38.667 0 67.667 -0.333008 87 -1c-30.667 -136.667 -89 -247 -175 -331c51.333 -30 92.666 -45 123.999 -45c24.667 0 44 3 58 9
l-15 -83c-21.333 -5.33301 -42 -8 -62 -8c-41.333 0 -100 23 -176 69c-74 -51.333 -158.667 -77 -254 -77c-82.667 0 -149.834 18.167 -201.501 54.5s-77.5 84.166 -77.5 143.499c0 84.667 58.667 145.667 176 183c-44.667 59.333 -67 114.333 -67 165s20.667 93.5 62 128.5
s95.666 52.5 162.999 52.5c68.667 0 123.5 -17.167 164.5 -51.5s61.5 -76.833 61.5 -127.5zM343.004 61.001c60.667 0 117 16 169 48c-84.667 60.667 -163.667 128.667 -237 204c-42 -13.333 -74.667 -29.5 -98 -48.5s-35 -44.5 -35 -76.5c0 -38.667 19 -69.5 57 -92.5
s86 -34.5 144 -34.5zM254.004 522.001c0 -38.667 22.334 -83.6699 67.001 -135.003c65.333 18.667 115.166 38.334 149.499 59.001s51.5 47.334 51.5 80.001s-11.5 58.834 -34.5 78.501s-56.167 29.5 -99.5 29.5c-44 0 -77.333 -10.167 -100 -30.5s-34 -47.5 -34 -81.5z" />
    <glyph glyph-name="quotesingle" unicode="'" horiz-adv-x="156" 
d="M43 511l-11 239h92l-11 -239h-70z" />
    <glyph glyph-name="parenleft" unicode="(" horiz-adv-x="280" 
d="M131 312c0 -75.333 10.5 -151.831 31.5 -229.498s47.833 -142.834 80.5 -195.501l-61 -3c-43.333 58 -77.833 124.833 -103.5 200.5s-38.5 151.5 -38.5 227.5s12.833 151.833 38.5 227.5s60.167 142.5 103.5 200.5l61 -3c-32.667 -52.667 -59.5 -117.834 -80.5 -195.501
s-31.5 -154.167 -31.5 -229.5z" />
    <glyph glyph-name="parenright" unicode=")" horiz-adv-x="280" 
d="M149 312c0 75.333 -10.5 151.831 -31.5 229.498s-47.833 142.834 -80.5 195.501l61 3c43.333 -58 77.833 -124.833 103.5 -200.5s38.5 -151.5 38.5 -227.5s-12.833 -151.833 -38.5 -227.5s-60.167 -142.5 -103.5 -200.5l-61 3c32.667 52.667 59.5 117.834 80.5 195.501
s31.5 154.167 31.5 229.5z" />
    <glyph glyph-name="asterisk" unicode="*" horiz-adv-x="549" 
d="M315 750l-21 -213l175 123l41 -70l-195 -89l195 -90l-41 -70l-175 123l21 -212h-81l19 213l-174 -124l-41 70l194 90l-194 89l41 70l174 -124l-19 214h81z" />
    <glyph glyph-name="plus" unicode="+" horiz-adv-x="586" 
d="M85 275v79h168v168h79v-168h168v-79h-168v-168h-79v168h-168z" />
    <glyph glyph-name="comma" unicode="," horiz-adv-x="238" 
d="M83 0v97h96v-106c0 -98 -29.667 -147 -89 -147c-9.33301 0 -16 1.33301 -20 4l-12 61c4 -2 9.33301 -3 16 -3c26 0 39 28.333 39 85v9h-30z" />
    <glyph glyph-name="hyphen" unicode="-" horiz-adv-x="569" 
d="M87 269v87h395v-87h-395z" />
    <glyph glyph-name="period" unicode="." horiz-adv-x="213" 
d="M58 0v97h96v-97h-96z" />
    <glyph glyph-name="slash" unicode="/" horiz-adv-x="483" 
d="M8 -153l365 853h83l-365 -853h-83z" />
    <glyph glyph-name="zero" unicode="0" horiz-adv-x="841" 
d="M43 349c0 112 34.167 199.667 102.5 263s159.833 95 274.5 95s206.167 -31.5 274.5 -94.5s102.5 -150.833 102.5 -263.5s-34.167 -200.5 -102.5 -263.5s-159.833 -94.5 -274.5 -94.5s-206.167 31.667 -274.5 95s-102.5 151 -102.5 263zM706 349
c0 87.333 -26.167 154.833 -78.5 202.5s-121.5 71.5 -207.5 71.5s-155 -23.833 -207 -71.5s-78 -115.167 -78 -202.5c0 -86.667 26 -154 78 -202s121 -72 207 -72s155.167 24 207.5 72s78.5 115.333 78.5 202z" />
    <glyph glyph-name="one" unicode="1" horiz-adv-x="459" 
d="M264 700l80.002 0.000976562v-700h-90c0 259.333 -0.333008 454 -1 584c-23.333 -24.667 -55.833 -45.167 -97.5 -61.5s-85.167 -24.5 -130.5 -24.5v73c47.333 0 91.666 11.667 132.999 35s76.666 54.666 105.999 93.999z" />
    <glyph glyph-name="two" unicode="2" 
d="M125 444l-88 26.001c26 75.333 69.833 133.666 131.5 174.999s135.5 62 221.5 62c90 0 161.5 -21.167 214.5 -63.5s79.5 -95.833 79.5 -160.5c0 -54 -21.5 -104 -64.5 -150s-109.833 -92.667 -200.5 -140l-206 -107h487v-86h-646v74l326 184c74 42 128.167 79 162.5 111
s51.5 68 51.5 108c0 42.667 -18.333 77.667 -55 105s-85.667 41 -147 41c-66 0 -122 -15.5 -168 -46.5s-79 -75.167 -99 -132.5z" />
    <glyph glyph-name="three" unicode="3" horiz-adv-x="767" 
d="M621 202c0 40.667 -20.667 70.832 -62 90.499s-97 29.5 -167 29.5h-87v81h92c60.667 0 108 9 142 27s51 44.333 51 79c0 34 -19 61.5 -57 82.5s-88 31.5 -150 31.5c-114.667 0 -197.667 -41.667 -249 -125l-80 45c30.667 52 75 92.333 133 121s123.667 43 197 43
c88.667 0 160.167 -18.167 214.5 -54.5s81.5 -82.166 81.5 -137.499c0 -60 -37.333 -109 -112 -147c45.333 -14.667 81 -36.5 107 -65.5s39 -63.833 39 -104.5c0 -64 -30 -114.333 -90 -151s-138 -55 -234 -55c-77.333 0 -147.833 14 -211.5 42s-110.5 67 -140.5 117l79 44
c22.667 -38 59.334 -67.5 110.001 -88.5s105 -31.5 163 -31.5c69.333 0 125.166 10.833 167.499 32.5s63.5 53.167 63.5 94.5z" />
    <glyph glyph-name="four" unicode="4" horiz-adv-x="738" 
d="M713 150h-121v-150h-89c0 16.667 -0.166992 41.667 -0.5 75s-0.5 58.333 -0.5 75h-482v66l492 484h80v-470h121v-80zM146 230h356v349z" />
    <glyph glyph-name="five" unicode="5" horiz-adv-x="780" 
d="M42 151l79.001 43.999c22 -38 58.5 -67.5 109.5 -88.5s105.167 -31.5 162.5 -31.5c74.667 0 135.167 14.167 181.5 42.5s69.5 66.5 69.5 114.5c0 48.667 -23.5 87 -70.5 115s-108.167 42 -183.5 42c-101.333 0 -174.333 -23.333 -219 -70l-67 37l13 344h570v-87h-487
l-10 -201c56.667 40.667 127 61 211 61c98 0 178 -21.167 240 -63.5s93 -100.166 93 -173.499c0 -76 -30.833 -135.833 -92.5 -179.5s-143.834 -65.5 -246.501 -65.5c-76.667 0 -147.167 14.167 -211.5 42.5s-111.5 67.5 -141.5 117.5z" />
    <glyph glyph-name="six" unicode="6" horiz-adv-x="790" 
d="M743 553l-80.9971 -42.999c-24.667 36 -59.334 63.833 -104.001 83.5s-93.667 29.5 -147 29.5c-80.667 0 -144.834 -21.833 -192.501 -65.5s-74.834 -105.834 -81.501 -186.501c-0.666992 -6.66699 -1 -18 -1 -34c54 80 148 120 282 120c98 0 177 -20.333 237 -61
s90 -97 90 -169s-31.333 -129.333 -94 -172s-143.667 -64 -243 -64c-109.333 0 -197.5 29 -264.5 87s-100.5 141.333 -100.5 250c0 116.667 33.167 209 99.5 277s156.833 102 271.5 102c72 0 136.667 -13.333 194 -40s102.333 -64.667 135 -114zM162.003 227.001
c0 -44 24 -80.333 72 -109s106.667 -43 176 -43c70.667 0 128.667 13.667 174 41s68 64.333 68 111c0 46 -22.833 81.833 -68.5 107.5s-105.5 38.5 -179.5 38.5c-70.667 0 -128.667 -13.167 -174 -39.5s-68 -61.833 -68 -106.5z" />
    <glyph glyph-name="seven" unicode="7" horiz-adv-x="661" 
d="M38 700h640v-75c-103.333 -66.667 -186.833 -154 -250.5 -262s-95.5 -229 -95.5 -363h-98c0 128.667 31 246.5 93 353.5s139.333 193.5 232 259.5h-432v-151h-89v238z" />
    <glyph glyph-name="eight" unicode="8" horiz-adv-x="774" 
d="M604 510c0 34.667 -19.833 62.834 -59.5 84.501s-92.167 32.5 -157.5 32.5c-66 0 -118.667 -10.833 -158 -32.5s-59 -49.834 -59 -84.501c0 -33.333 20.333 -59.666 61 -78.999s92.667 -29 156 -29c62.667 0 114.5 9.66699 155.5 29s61.5 45.666 61.5 78.999zM46 196
c0 82 51.667 139.002 155 171.002c-38 15.333 -67.833 35.666 -89.5 60.999s-32.5 54.666 -32.5 87.999c0 56 28.333 102.167 85 138.5s131 54.5 223 54.5s166.333 -18.167 223 -54.5s85 -82.5 85 -138.5c0 -66 -41 -115.667 -123 -149c104 -32 156 -89 156 -171
c0 -64 -31.5 -114.333 -94.5 -151s-145.167 -55 -246.5 -55c-102 0 -184.333 18.333 -247 55s-94 87 -94 151zM637 200.002c0 42 -22.667 73 -68 93s-106 30 -182 30s-136.667 -10 -182 -30s-68 -51 -68 -93s22.833 -73.833 68.5 -95.5s106.167 -32.5 181.5 -32.5
c74.667 0 135 10.833 181 32.5s69 53.5 69 95.5z" />
    <glyph glyph-name="nine" unicode="9" horiz-adv-x="793" 
d="M50 471c0 72 31.1689 129.332 93.502 171.999s143.166 64 242.499 64c108.667 0 196.5 -29 263.5 -87s100.5 -141.333 100.5 -250c0 -116.667 -33.5 -209 -100.5 -277s-157.833 -102 -272.5 -102c-74 0 -140.5 13.833 -199.5 41.5s-104.5 67.167 -136.5 118.5l81 43
c24 -38 59.167 -67.333 105.5 -88s97.166 -31 152.499 -31c80.667 0 145.167 21.833 193.5 65.5s75.833 105.834 82.5 186.501c0.666992 6.66699 1 18 1 34c-54 -80 -147.667 -120 -281 -120c-98 0 -176.833 20.333 -236.5 61s-89.5 97 -89.5 169zM631.002 470.999
c0 44 -23.833 80.333 -71.5 109s-106.167 43 -175.5 43c-70.667 0 -128.5 -13.667 -173.5 -41s-67.5 -64.333 -67.5 -111s22.667 -82.667 68 -108s105 -38 179 -38c70.667 0 128.5 13 173.5 39s67.5 61.667 67.5 107z" />
    <glyph glyph-name="colon" unicode=":" horiz-adv-x="216" 
d="M58 0v100h99v-100h-99zM58 424v100h99v-100h-99z" />
    <glyph glyph-name="semicolon" unicode=";" horiz-adv-x="244" 
d="M86 0l-0.00195312 100h99v-89c0 -57.333 -6.66699 -100.333 -20 -129s-35.666 -43 -66.999 -43c-9.33301 0 -18.333 1.66699 -27 5l-13 54c6.66699 -2.66699 14.334 -4 23.001 -4c24.667 0 37 32.667 37 98v8h-32zM85.998 423v101h99v-101h-99z" />
    <glyph glyph-name="less" unicode="&#x3c;" horiz-adv-x="580" 
d="M79 259v111l415 153v-84l-332 -124l332 -125v-83z" />
    <glyph glyph-name="equal" unicode="=" horiz-adv-x="589" 
d="M87 179v79h415v-79h-415zM87 372v79h415v-79h-415z" />
    <glyph glyph-name="greater" unicode="&#x3e;" horiz-adv-x="580" 
d="M502 370v-111l-415 -152v83l332 125l-332 124v84z" />
    <glyph glyph-name="question" unicode="?" horiz-adv-x="789" 
d="M354 184l-5 187.999c63.333 4.66699 115.5 11.334 156.5 20.001s75.333 22.667 103 42s41.5 44 41.5 74c0 36.667 -23.167 65.834 -69.5 87.501s-102.833 32.5 -169.5 32.5c-127.333 0 -218 -38 -272 -114c-8 2.66699 -23.167 9 -45.5 19s-37.5 16.667 -45.5 20
c32.667 48.667 80.5 87 143.5 115s136.167 42 219.5 42c98 0 179.667 -18.333 245 -55s98 -84.334 98 -143.001c0 -32 -8.5 -60 -25.5 -84s-41 -43 -72 -57s-64 -25 -99 -33s-74.833 -14 -119.5 -18c0 -68 -0.666992 -113.333 -2 -136h-82zM342 -0.000976562v103h106v-103
h-106z" />
    <glyph glyph-name="at" unicode="@" horiz-adv-x="1083" 
d="M831 500v-328.998c0 -76 23.333 -114 70 -114c64 0 96 65.667 96 197c0 113.333 -41.333 206 -124 278s-192.667 108 -330 108c-135.333 0 -244.833 -35.833 -328.5 -107.5s-125.5 -164.5 -125.5 -278.5c0 -116.667 41.333 -210.167 124 -280.5
s192.667 -105.5 330 -105.5c113.333 0 209 25.333 287 76l14 -40c-92.667 -51.333 -193 -77 -301 -77c-156 0 -279.667 38.833 -371 116.5s-137 181.167 -137 310.5c0 126 46.667 228.833 140 308.5s216 119.5 368 119.5c155.333 0 278.666 -40.167 369.999 -120.5
s137 -182.833 137 -307.5c0 -82.667 -15.167 -145.334 -45.5 -188.001s-72.5 -64 -126.5 -64c-28.667 0 -54.334 10.167 -77.001 30.5s-37.667 51.166 -45 92.499c-22 -40 -53.667 -70.667 -95 -92s-89.666 -32 -144.999 -32c-82.667 0 -149.5 22.667 -200.5 68
s-76.5 108.333 -76.5 189s25.5 143.667 76.5 189s117.833 68 200.5 68c52.667 0 99.334 -10 140.001 -30s71.667 -48.667 93 -86v101h82zM325 258.002c0 -58.667 19 -103.832 57 -135.499s88.667 -47.5 152 -47.5s114.5 15.833 153.5 47.5s58.5 76.5 58.5 134.5
c0 58.667 -19.333 104 -58 136s-90 48 -154 48c-63.333 0 -114 -15.833 -152 -47.5s-57 -76.834 -57 -135.501z" />
    <glyph glyph-name="A" unicode="A" horiz-adv-x="846" 
d="M478 700l356 -700h-98l-135 263h-359l-134 -263h-96l355 700h111zM422 616l-140 -272h279z" />
    <glyph glyph-name="B" unicode="B" horiz-adv-x="879" 
d="M814 210c0 -62.667 -22.1689 -113.332 -66.502 -151.999s-100.166 -58 -167.499 -58h-465v700h438c62 0 112 -15.333 150 -46s57 -72.334 57 -125.001c0 -57.333 -24 -101 -72 -131c38.667 -16 69.334 -40.333 92.001 -73s34 -71 34 -115zM721.998 214.002
c0 40.667 -13.333 72.5 -40 95.5s-60.667 34.5 -102 34.5h-375v-260h375c41.333 0 75.333 11.5 102 34.5s40 54.833 40 95.5zM669.998 522.002c0 62.667 -47.667 94 -143 94h-322v-188h322c95.333 0 143 31.333 143 94z" />
    <glyph glyph-name="C" unicode="C" horiz-adv-x="847" 
d="M809 557l-75 -53c-26.667 38.667 -64 68.167 -112 88.5s-103 30.5 -165 30.5c-97.333 0 -175.5 -23.833 -234.5 -71.5s-88.5 -115.167 -88.5 -202.5c0 -86.667 29.5 -154 88.5 -202s137.167 -72 234.5 -72c63.333 0 119.5 10.5 168.5 31.5s86.833 51.5 113.5 91.5l74 -52
c-34.667 -50 -82.667 -88.333 -144 -115s-132 -40 -212 -40c-126 0 -226.5 31.5 -301.5 94.5s-112.5 150.833 -112.5 263.5s37.5 200.5 112.5 263.5s175.5 94.5 301.5 94.5c164 0 281.333 -50 352 -150z" />
    <glyph glyph-name="D" unicode="D" horiz-adv-x="899" 
d="M855 348c0 -110.667 -37.1689 -196.333 -111.502 -257s-174.166 -91 -299.499 -91h-329v700h329c124.667 0 224.334 -31.167 299.001 -93.5s112 -148.5 112 -258.5zM763.998 348.001c0 84.667 -29.333 150.5 -88 197.5s-136 70.5 -232 70.5h-239v-532h248
c94 1.33301 169.333 24.833 226 70.5s85 110.167 85 193.5z" />
    <glyph glyph-name="E" unicode="E" horiz-adv-x="807" 
d="M721 0h-606v700h602v-84h-512v-177h471v-84h-471v-271h516v-84z" />
    <glyph glyph-name="F" unicode="F" horiz-adv-x="770" 
d="M665 343h-460v-343h-90v700h592v-84h-502v-189h460v-84z" />
    <glyph glyph-name="G" unicode="G" horiz-adv-x="931" 
d="M134 349c0 -86.667 30.333 -153.999 91 -201.999s139.667 -72 237 -72c66 0 123.833 11.333 173.5 34s87.834 55 114.501 97v149h-431l40 84h479v-439h-88v93c-77.333 -67.333 -173.333 -101 -288 -101c-126.667 0 -228.167 31.5 -304.5 94.5s-114.5 150.5 -114.5 262.5
s38.333 199.667 115 263s178.334 95 305.001 95c80 0 151.167 -12.833 213.5 -38.5s110.5 -62.834 144.5 -111.501l-75 -53c-26.667 38.667 -64.834 68.167 -114.501 88.5s-105.834 30.5 -168.501 30.5c-98 0 -177.333 -24 -238 -72s-91 -115.333 -91 -202z" />
    <glyph glyph-name="H" unicode="H" horiz-adv-x="920" 
d="M716 0v362h-511v-362h-90v700h90v-254h511v254h89v-700h-89z" />
    <glyph glyph-name="I" unicode="I" horiz-adv-x="320" 
d="M115 0v700h90v-700h-90z" />
    <glyph glyph-name="J" unicode="J" horiz-adv-x="659" 
d="M34 243v25.999l82 44v-36c0 -64 15.667 -113.667 47 -149s75.333 -53 132 -53c119.333 0 179 71 179 213v328h-214v84h303v-413c0 -95.333 -23.5 -168.5 -70.5 -219.5s-113.167 -76.5 -198.5 -76.5c-77.333 0 -140 22.833 -188 68.5s-72 106.834 -72 183.501z" />
    <glyph glyph-name="K" unicode="K" horiz-adv-x="848" 
d="M115 0v700h90v-285l460 285h137l-376 -237l407 -463h-117l-365 415l-146 -91v-324h-90z" />
    <glyph glyph-name="L" unicode="L" 
d="M115 0v700h90v-616h501v-84h-591z" />
    <glyph glyph-name="M" unicode="M" horiz-adv-x="1102" 
d="M987 700v-700h-89v552l-311 -552h-71l-311 553v-553h-90v700h104l332 -591l333 591h103z" />
    <glyph glyph-name="N" unicode="N" horiz-adv-x="944" 
d="M732 0l-527 575v-575h-90v700h98l527 -576v576h89v-700h-97z" />
    <glyph glyph-name="O" unicode="O" horiz-adv-x="915" 
d="M43 349c0 112.667 37.5 200.5 112.5 263.5s175.5 94.5 301.5 94.5s226.5 -31.5 301.5 -94.5s112.5 -150.833 112.5 -263.5s-37.5 -200.5 -112.5 -263.5s-175.5 -94.5 -301.5 -94.5s-226.5 31.5 -301.5 94.5s-112.5 150.833 -112.5 263.5zM457 623
c-97.333 0 -175.5 -24 -234.5 -72s-88.5 -115.333 -88.5 -202c0 -87.333 29.5 -154.833 88.5 -202.5s137.167 -71.5 234.5 -71.5s175.5 23.833 234.5 71.5s88.5 115.167 88.5 202.5c0 86.667 -29.5 154 -88.5 202s-137.167 72 -234.5 72z" />
    <glyph glyph-name="P" unicode="P" horiz-adv-x="802" 
d="M769 511c0 -56.667 -19.333 -102.168 -58 -136.501s-88.667 -51.5 -150 -51.5h-356v-323h-90v700h446c62 0 112.167 -17.167 150.5 -51.5s57.5 -80.166 57.5 -137.499zM679 510.999c0 70 -48.667 105 -146 105h-328v-209h328c97.333 0 146 34.667 146 104z" />
    <glyph glyph-name="Q" unicode="Q" horiz-adv-x="916" 
d="M43 349c0 112.667 37.5 200.5 112.5 263.5s175.5 94.5 301.5 94.5s226.5 -31.5 301.5 -94.5s112.5 -150.833 112.5 -263.5c0 -118.667 -42 -210 -126 -274l114 -115h-110l-75 75c-62 -29.333 -134.333 -44 -217 -44c-126 0 -226.5 31.5 -301.5 94.5
s-112.5 150.833 -112.5 263.5zM681 139c66 48.667 99 118.667 99 210c0 87.333 -29.5 154.833 -88.5 202.5s-137.167 71.5 -234.5 71.5s-175.5 -23.833 -234.5 -71.5s-88.5 -115.167 -88.5 -202.5c0 -86.667 29.5 -154 88.5 -202s137.167 -72 234.5 -72
c58 0 107.667 9.33301 149 28l-141 142h111z" />
    <glyph glyph-name="R" unicode="R" horiz-adv-x="861" 
d="M719 0l-287 340.998h-227v-341h-90v700h446c62 0 111.833 -16.167 149.5 -48.5s56.5 -76.166 56.5 -131.499c0 -54.667 -19.333 -96.167 -58 -124.5s-88 -44.166 -148 -47.499l-17 -1l289 -347h-114zM677 519.998c0 64 -47.667 96 -143 96h-329v-191h329
c95.333 0 143 31.667 143 95z" />
    <glyph glyph-name="S" unicode="S" horiz-adv-x="871" 
d="M800 561l-75.998 -53c-28 36 -69.667 64.333 -125 85s-115.333 31 -180 31c-68 0 -124.667 -10.667 -170 -32s-68 -49.666 -68 -84.999c0 -18 5.66699 -32.833 17 -44.5s30 -21.334 56 -29.001s54.667 -13.667 86 -18s72.666 -8.5 123.999 -12.5
c108.667 -8.66699 193.167 -28 253.5 -58s90.5 -76.333 90.5 -139c0 -49.333 -16.667 -90.666 -50 -123.999s-75.833 -56.833 -127.5 -70.5s-110.834 -20.5 -177.501 -20.5c-87.333 0 -169.333 15.167 -246 45.5s-132.334 70.166 -167.001 119.499l75 53
c28 -40.667 74.667 -73.334 140 -98.001s133.333 -37 204 -37c171.333 0 257 43.333 257 130c0 19.333 -6.5 35.833 -19.5 49.5s-32.667 24.667 -59 33s-54.666 15 -84.999 20s-67.5 9.5 -111.5 13.5c-57.333 4.66699 -106.5 10.834 -147.5 18.501s-77.833 18.5 -110.5 32.5
s-57 32 -73 54s-24 48 -24 78c0 62 31.5 111.667 94.5 149s142.5 56 238.5 56c81.333 0 156.333 -13 225 -39s120.667 -62 156 -108z" />
    <glyph glyph-name="T" unicode="T" horiz-adv-x="771" 
d="M762 616h-332v-616h-89v616h-332v84h753v-84z" />
    <glyph glyph-name="U" unicode="U" horiz-adv-x="884" 
d="M442 -9c-111.333 0 -197.333 29 -258 87s-91 141.667 -91 251v371h89v-322c0 -104 19.833 -180.5 59.5 -229.5s106.5 -73.5 200.5 -73.5s160.833 24.5 200.5 73.5s59.5 125.5 59.5 229.5v322h89v-371c0 -109.333 -30.333 -193 -91 -251s-146.667 -87 -258 -87z" />
    <glyph glyph-name="V" unicode="V" horiz-adv-x="867" 
d="M378 0l-356 700h98l314 -617l314 617h96l-355 -700h-111z" />
    <glyph glyph-name="W" unicode="W" horiz-adv-x="1365" 
d="M322 0l-291 700h94l251 -605l260 605h94l261 -605l251 605h92l-291 -700h-106l-255 591l-254 -591h-106z" />
    <glyph glyph-name="X" unicode="X" horiz-adv-x="910" 
d="M798 0l-345 330l-346 -330h-120l406 389l-323 311h124l261 -249l261 249h120l-321 -309l406 -391h-123z" />
    <glyph glyph-name="Y" unicode="Y" horiz-adv-x="861" 
d="M863 700l-328 -343l-61 -63v-294h-89v295l-387 405h119l316 -330l316 330h114z" />
    <glyph glyph-name="Z" unicode="Z" horiz-adv-x="769" 
d="M737 0h-702v70l562 546h-515v84h644v-70l-563 -546h574v-84z" />
    <glyph glyph-name="bracketleft" unicode="[" horiz-adv-x="300" 
d="M247 -109h-158v828h158v-66h-77v-697h77v-65z" />
    <glyph glyph-name="backslash" unicode="\" horiz-adv-x="483" 
d="M110 700l365 -853h-83l-365 853h83z" />
    <glyph glyph-name="bracketright" unicode="]" horiz-adv-x="300" 
d="M211 -109h-158v65h77v697h-77v66h158v-828z" />
    <glyph glyph-name="underscore" unicode="_" horiz-adv-x="644" 
d="M49 -124v68h545v-68h-545z" />
    <glyph glyph-name="grave" unicode="`" horiz-adv-x="717" 
d="M273 617l-138 163h109l107 -163h-78z" />
    <glyph glyph-name="a" unicode="a" 
d="M549 105c-1.33301 6.66699 -2 11.668 -2 15.001c-26.667 -40.667 -64.5 -72.167 -113.5 -94.5s-103.5 -33.5 -163.5 -33.5c-62 0 -111.833 15 -149.5 45s-56.5 67.667 -56.5 113c0 31.333 8.83301 58.666 26.5 81.999s40 41.5 67 54.5s60.833 23.5 101.5 31.5
s80.167 13.167 118.5 15.5s81.5 3.5 129.5 3.5h29c-12 78 -76.333 117 -193 117c-41.333 0 -80.833 -7.16699 -118.5 -21.5s-67.5 -33.5 -89.5 -57.5l-55 68c30.667 28 71.5 50.667 122.5 68s101.167 26 150.5 26c87.333 0 155 -20.167 203 -60.5s72 -101.833 72 -184.5
v-127c0 -33.333 4.66699 -56.5 14 -69.5s24.333 -19.5 45 -19.5c24 0 43.333 2.66699 58 8l-15 -82c-16 -5.33301 -36.667 -8 -62 -8c-71.333 0 -111 37 -119 111zM540 251.001v18.001c-34.667 0 -65 -0.333008 -91 -1s-55 -2.16699 -87 -4.5s-59 -6.16602 -81 -11.499
s-43 -11.833 -63 -19.5s-35 -17.834 -45 -30.501s-15 -27.334 -15 -44.001c0 -28 11.833 -49.333 35.5 -64s53.167 -22 88.5 -22c68.667 0 128.167 16.167 178.5 48.5s76.833 75.833 79.5 130.5z" />
    <glyph glyph-name="b" unicode="b" horiz-adv-x="761" 
d="M709 264c0 -85.333 -26.5 -152.001 -79.5 -200.001s-123.833 -72 -212.5 -72c-109.333 0 -188.666 35 -237.999 105v-97h-88v750h88v-318c49.333 70 128.666 105 237.999 105c88.667 0 159.5 -24.167 212.5 -72.5s79.5 -115.166 79.5 -200.499zM180 263.999
c0 -60.667 20.167 -107.5 60.5 -140.5s93.833 -49.5 160.5 -49.5s119.834 16.5 159.501 49.5s59.5 79.833 59.5 140.5s-19.833 107.5 -59.5 140.5s-92.834 49.5 -159.501 49.5s-120.167 -16.5 -160.5 -49.5s-60.5 -79.833 -60.5 -140.5z" />
    <glyph glyph-name="c" unicode="c" horiz-adv-x="680" 
d="M578 160l71.001 -49.998c-27.333 -38 -64.833 -67.333 -112.5 -88s-102.167 -31 -163.5 -31c-98 0 -176 24.167 -234 72.5s-87 115.166 -87 200.499s29 152.166 87 200.499s135.333 72.5 232 72.5c61.333 0 115.666 -10 162.999 -30s84.333 -48.667 111 -86l-72 -52
c-38.667 56.667 -106 85 -202 85c-69.333 0 -125 -16.5 -167 -49.5s-63 -79.833 -63 -140.5s21.167 -107.5 63.5 -140.5s98.5 -49.5 168.5 -49.5c96.667 0 165 28.667 205 86z" />
    <glyph glyph-name="d" unicode="d" horiz-adv-x="761" 
d="M52 264c0 86 26.666 153 79.999 201s124.333 72 213 72c108.667 0 187.667 -35 237 -105v318h88v-750h-88v97c-49.333 -70 -128.666 -105 -237.999 -105c-88.667 0 -159.5 24 -212.5 72s-79.5 114.667 -79.5 200zM580.999 264c0 60.667 -20.167 107.5 -60.5 140.5
s-93.833 49.5 -160.5 49.5s-119.834 -16.5 -159.501 -49.5s-59.5 -79.833 -59.5 -140.5s19.833 -107.5 59.5 -140.5s92.834 -49.5 159.501 -49.5s120.167 16.5 160.5 49.5s60.5 79.833 60.5 140.5z" />
    <glyph glyph-name="e" unicode="e" horiz-adv-x="730" 
d="M52 264c0 85.333 28.6689 152.167 86.002 200.5s133.333 72.5 228 72.5c95.333 0 171.666 -24 228.999 -72s86 -114.667 86 -200v-18h-539c4 -55.333 27.5 -98 70.5 -128s98.5 -45 166.5 -45c48.667 0 92.167 8.16699 130.5 24.5s66.5 39.5 84.5 69.5l72 -50
c-26 -40 -64.333 -71 -115 -93s-108 -33 -172 -33c-100.667 0 -180.334 24 -239.001 72s-88 114.667 -88 200zM583.002 319.001c-10.667 44 -35.334 77.667 -74.001 101s-86.334 35 -143.001 35c-57.333 0 -105.166 -11.667 -143.499 -35s-63.166 -57 -74.499 -101h435z" />
    <glyph glyph-name="f" unicode="f" horiz-adv-x="362" 
d="M21 442l0.00292969 76.998h99v40c0 126.667 50.333 190 151 190c25.333 0 46.666 -2.66699 63.999 -8c1.33301 -9.33301 3.66602 -23.166 6.99902 -41.499s5.66602 -32.166 6.99902 -41.499c-20 6 -40.333 9 -61 9c-30 0 -50.833 -8.5 -62.5 -25.5
s-17.5 -45.833 -17.5 -86.5v-36h126v-77h-126v-442h-88v442h-99z" />
    <glyph glyph-name="g" unicode="g" horiz-adv-x="701" 
d="M617 334c0 -62.667 -24.499 -111.998 -73.499 -147.998s-114.167 -54 -195.5 -54c-52.667 0 -100.334 7.66699 -143.001 23c-16 -2.66699 -29.667 -8.16699 -41 -16.5s-17 -17.833 -17 -28.5c0 -16.667 17.5 -27.667 52.5 -33s95.5 -8.33301 181.5 -9
c100 -1.33301 174.667 -11.833 224 -31.5s74 -54.5 74 -104.5c0 -52.667 -29.333 -92.834 -88 -120.501s-145 -41.5 -259 -41.5c-86.667 0 -157 11 -211 33s-81 54 -81 96c0 47.333 27.667 84 83 110c-45.333 14 -68 40 -68 78c0 40 32.667 72 98 96
c-50.667 34.667 -76 85 -76 151c0 63.333 24.5 113 73.5 149s114.167 54 195.5 54c78.667 0 144 -18.333 196 -55c6 21.333 17.5 38.666 34.5 51.999s38.833 20 65.5 20c8.66699 0 23 -1.33301 43 -4l14 -80c-14 5.33301 -29 8 -45 8c-38.667 0 -60.667 -15.667 -66 -47
c19.333 -30.667 29 -63 29 -97zM163.001 334.002c0 -42 16.667 -73.833 50 -95.5s78.333 -32.5 135 -32.5c55.333 0 99.5 10.833 132.5 32.5s49.5 53.5 49.5 95.5s-16.667 73.833 -50 95.5s-78 32.5 -134 32.5s-100.5 -10.833 -133.5 -32.5s-49.5 -53.5 -49.5 -95.5z
M356.001 -154.998c153.333 0 230.001 26.999 230.001 80.999c0 26.667 -22.167 44.167 -66.5 52.5s-108.5 12.5 -192.5 12.5c-46.667 0 -89.334 0.666992 -128.001 2c-20 -4.66699 -36.333 -13.667 -49 -27s-19 -28.666 -19 -45.999c0 -50 75 -75 225 -75z" />
    <glyph glyph-name="h" unicode="h" horiz-adv-x="755" 
d="M587 0l0.00195312 296c0 52 -16.167 91.333 -48.5 118s-77.833 40 -136.5 40c-64.667 0 -117.834 -15.833 -159.501 -47.5s-62.834 -76.167 -63.501 -133.5v-273h-88v749h88v-323c49.333 74 130.333 111 243 111c77.333 0 138.833 -20.167 184.5 -60.5
s68.5 -95.833 68.5 -166.5v-310h-88z" />
    <glyph glyph-name="i" unicode="i" horiz-adv-x="275" 
d="M93 0v529h88v-529h-88zM91 640v97h93v-97h-93z" />
    <glyph glyph-name="j" unicode="j" horiz-adv-x="275" 
d="M94 -40l-0.000976562 569h88v-570c0 -126.667 -48.667 -190 -146 -190c-20.667 0 -40.667 3.66699 -60 11l-14 82c18.667 -7.33301 38.667 -11 60 -11c26.667 0 45.334 8.33301 56.001 25s16 44.667 16 84zM90.999 640v97h93v-97h-93z" />
    <glyph glyph-name="k" unicode="k" horiz-adv-x="693" 
d="M91 0v750h88v-463l361 242h128l-288 -194l318 -335h-114l-274 288l-131 -87v-201h-88z" />
    <glyph glyph-name="l" unicode="l" horiz-adv-x="270" 
d="M91 0v750h88v-750h-88z" />
    <glyph glyph-name="m" unicode="m" horiz-adv-x="1133" 
d="M528 0l-0.00390625 305.999c0 46.667 -13.167 83 -39.5 109s-65.166 39 -116.499 39c-55.333 0 -101.166 -15.333 -137.499 -46s-54.833 -71.667 -55.5 -123v-285h-88v529h88v-94c46 68 117 102 213 102c51.333 0 94.833 -11.167 130.5 -33.5s60.834 -53.5 75.501 -93.5
c21.333 40 52.166 71.167 92.499 93.5s86.5 33.5 138.5 33.5c69.333 0 124 -19.667 164 -59s60 -90.666 60 -153.999v-324h-88v306c0 46.667 -13.167 83 -39.5 109s-65.166 39 -116.499 39c-53.333 0 -98.666 -15.5 -135.999 -46.5s-56.333 -71.833 -57 -122.5v-285h-88z
" />
    <glyph glyph-name="n" unicode="n" horiz-adv-x="755" 
d="M587 0l0.00195312 296c0 52 -16.167 91.333 -48.5 118s-77.833 40 -136.5 40c-64.667 0 -117.834 -15.833 -159.501 -47.5s-62.834 -76.167 -63.501 -133.5v-273h-88v529h88v-103c49.333 74 130.333 111 243 111c77.333 0 138.833 -20.167 184.5 -60.5
s68.5 -95.833 68.5 -166.5v-310h-88z" />
    <glyph glyph-name="o" unicode="o" horiz-adv-x="739" 
d="M687 264c0 -85.333 -28.833 -152.166 -86.5 -200.499s-134.5 -72.5 -230.5 -72.5c-96.667 0 -173.834 24.167 -231.501 72.5s-86.5 115.166 -86.5 200.499s28.833 152.166 86.5 200.499s134.5 72.5 230.5 72.5c96.667 0 173.834 -24.167 231.501 -72.5
s86.5 -115.166 86.5 -200.499zM141 264c0 -61.333 20.667 -108.333 62 -141s97 -49 167 -49c69.333 0 124.666 16.333 165.999 49s62 79.667 62 141s-20.667 108.333 -62 141s-97 49 -167 49c-69.333 0 -124.666 -16.333 -165.999 -49s-62 -79.667 -62 -141z" />
    <glyph glyph-name="p" unicode="p" horiz-adv-x="761" 
d="M709 264c0 -85.333 -26.501 -152.168 -79.501 -200.501s-123.833 -72.5 -212.5 -72.5c-109.333 0 -188.666 35 -237.999 105v-317h-88v750h88v-98c50 70.667 129.333 106 238 106c88.667 0 159.5 -24.167 212.5 -72.5s79.5 -115.166 79.5 -200.499zM179.999 263.998
c0 -60.667 20.167 -107.5 60.5 -140.5s93.833 -49.5 160.5 -49.5s119.834 16.5 159.501 49.5s59.5 79.833 59.5 140.5s-19.833 107.5 -59.5 140.5s-92.834 49.5 -159.501 49.5s-120.167 -16.5 -160.5 -49.5s-60.5 -79.833 -60.5 -140.5z" />
    <glyph glyph-name="q" unicode="q" horiz-adv-x="763" 
d="M52 264c0 85.333 26.501 152 79.501 200s123.833 72 212.5 72c109.333 0 188.666 -35 237.999 -105v98h88v-751h-88v318c-49.333 -70 -128.333 -105 -237 -105c-88.667 0 -159.667 24 -213 72s-80 115 -80 201zM581.001 264c0 60.667 -20.167 107.5 -60.5 140.5
s-93.833 49.5 -160.5 49.5s-119.834 -16.5 -159.501 -49.5s-59.5 -79.833 -59.5 -140.5s19.833 -107.5 59.5 -140.5s92.834 -49.5 159.501 -49.5s120.167 16.5 160.5 49.5s60.5 79.833 60.5 140.5z" />
    <glyph glyph-name="r" unicode="r" horiz-adv-x="483" 
d="M179 263v-263h-88v529h88v-103c48 74 123.333 111 226 111c17.333 0 36 -0.666992 56 -2l16 -99c-19.333 7.33301 -45.333 11 -78 11c-66.667 0 -120 -15.667 -160 -47s-60 -77 -60 -137z" />
    <glyph glyph-name="s" unicode="s" horiz-adv-x="679" 
d="M338 230c-38 2.66699 -71.499 6.50098 -100.499 11.501s-57.167 12.667 -84.5 23s-48.333 24.666 -63 42.999s-22 40.5 -22 66.5c0 51.333 23.167 91.333 69.5 120s111.833 43 196.5 43c58.667 0 114.334 -10.167 167.001 -30.5s94 -48.5 124 -84.5l-70 -50
c-24 28 -57.167 49.167 -99.5 63.5s-87.5 21.5 -135.5 21.5c-109.333 0 -164 -25 -164 -75c0 -25.333 17.5 -42.833 52.5 -52.5s91.5 -17.5 169.5 -23.5c37.333 -2.66699 70.333 -7 99 -13s56 -14.5 82 -25.5s46 -26.333 60 -46s21 -43.167 21 -70.5
c0 -52 -25.167 -91.667 -75.5 -119s-119.5 -41 -207.5 -41c-68.667 0 -133.334 11.167 -194.001 33.5s-106.334 52.5 -137.001 90.5l68 54c24 -28.667 62.667 -52 116 -70s108 -27 164 -27c116.667 0 175 26 175 78c0 26.667 -17.667 45.5 -53 56.5s-88 18.833 -158 23.5z
" />
    <glyph glyph-name="t" unicode="t" horiz-adv-x="395" 
d="M215 698l0.000976562 -178.999h138v-77h-138v-250c0 -44 5.66699 -74.5 17 -91.5s33.333 -25.5 66 -25.5c18.667 0 39.667 2.33301 63 7l-14 -81c-20 -4.66699 -42.333 -7 -67 -7c-56.667 0 -96.334 14.667 -119.001 44s-34 77.666 -34 144.999v259h-115v77h115v114z" />
    <glyph glyph-name="u" unicode="u" horiz-adv-x="754" 
d="M168 529l-0.000976562 -297c0 -51.333 16.167 -90.333 48.5 -117s77.833 -40 136.5 -40c64 0 116.833 16.333 158.5 49s62.834 78 63.501 136v269h88v-529h-88v102c-50 -73.333 -130.667 -110 -242 -110c-77.333 0 -138.833 20.167 -184.5 60.5s-68.5 95.5 -68.5 165.5
v311h88z" />
    <glyph glyph-name="v" unicode="v" horiz-adv-x="677" 
d="M284 0l-286 529h98l242 -452l243 452h97l-286 -529h-108z" />
    <glyph glyph-name="w" unicode="w" horiz-adv-x="1095" 
d="M247 0l-237 529h94l197 -443l202 443h90l201 -443l198 443h93l-237 -529h-104l-197 431l-196 -431h-104z" />
    <glyph glyph-name="x" unicode="x" horiz-adv-x="716" 
d="M604 0l-248 232l-247 -232h-114l305 287l-256 242h116l198 -186l200 186h112l-256 -241l306 -288h-116z" />
    <glyph glyph-name="y" unicode="y" horiz-adv-x="696" 
d="M294 -72l27.001 52l-314 549h99l261 -455l226 455h96l-315 -623c-46 -90.667 -107 -136 -183 -136c-16.667 0 -33.334 2.33301 -50.001 7c-2.66699 15.333 -8.33398 44 -17.001 86c18.667 -4.66699 36.334 -7 53.001 -7c50 0 89 24 117 72z" />
    <glyph glyph-name="z" unicode="z" horiz-adv-x="655" 
d="M79 452v77h516v-59l-423 -393h443v-77h-571v59l423 393h-388z" />
    <glyph glyph-name="braceleft" unicode="{" horiz-adv-x="293" 
d="M42 343c53.333 0 80 27.333 80 82c0 9.33301 -3.83301 38.5 -11.5 87.5s-11.5 80.167 -11.5 93.5c0 80 42.667 124.667 128 134l18 -47c-40.667 -9.33301 -61 -36 -61 -80c0 -12 3.83301 -43.5 11.5 -94.5s11.5 -83.167 11.5 -96.5c0 -54 -20.667 -90.667 -62 -110
c41.333 -22 62 -59.333 62 -112c0 -12.667 -3.83301 -44.5 -11.5 -95.5s-11.5 -82.5 -11.5 -94.5c0 -44 20.333 -70.667 61 -80l-18 -46c-85.333 8 -128 52.667 -128 134c0 12.667 3.83301 43.5 11.5 92.5s11.5 78.5 11.5 88.5c0 54 -26.667 81 -80 81v63z" />
    <glyph glyph-name="bar" unicode="|" horiz-adv-x="245" 
d="M161 700v-853h-78v853h78z" />
    <glyph glyph-name="braceright" unicode="}" horiz-adv-x="293" 
d="M251 343v-63c-53.333 0 -80 -27 -80 -81c0 -10 3.83301 -39.5 11.5 -88.5s11.5 -79.833 11.5 -92.5c0 -81.333 -42.667 -126 -128 -134l-18 46c40.667 9.33301 61 36 61 80c0 12 -3.83301 43.5 -11.5 94.5s-11.5 82.833 -11.5 95.5c0 52.667 20.667 90 62 112
c-41.333 19.333 -62 56 -62 110c0 13.333 3.83301 45.5 11.5 96.5s11.5 82.5 11.5 94.5c0 44 -20.333 70.667 -61 80l18 47c85.333 -9.33301 128 -54 128 -134c0 -13.333 -3.83301 -44.5 -11.5 -93.5s-11.5 -78.167 -11.5 -87.5c0 -54.667 26.667 -82 80 -82z" />
    <glyph glyph-name="exclamdown" unicode="&#xa1;" horiz-adv-x="290" 
d="M198 519v-103h-106v103h106zM186 335l11 -516h-105l12 516h82z" />
    <glyph glyph-name="cent" unicode="&#xa2;" horiz-adv-x="680" 
d="M341 -40v130.997c-88.667 5.33301 -159 31.833 -211 79.5s-78 111.834 -78 192.501s26.167 144.834 78.5 192.501s122.5 74.167 210.5 79.5v105h54v-105c114.667 -4 198 -42.333 250 -115l-72 -52c-35.333 52 -94.666 80 -177.999 84v-378
c85.333 4 146.333 32.667 183 86l71 -51c-52.667 -73.333 -137.334 -112.666 -254.001 -117.999v-131h-54zM141 362.997c0 -56 18 -100.167 54 -132.5s84.667 -50.833 146 -55.5v376c-61.333 -4 -110 -22.167 -146 -54.5s-54 -76.833 -54 -133.5z" />
    <glyph glyph-name="sterling" unicode="&#xa3;" horiz-adv-x="675" 
d="M223 84h411v-84h-591v84h90v210h-92v87h92v118c0 64 19.833 114.833 59.5 152.5s93.5 56.5 161.5 56.5c104.667 0 190 -45 256 -135l-76 -53c-46 69.333 -106.333 104 -181 104c-44 0 -76.667 -11.5 -98 -34.5s-32 -54.5 -32 -94.5v-114h213v-87h-213v-210z" />
    <glyph glyph-name="yen" unicode="&#xa5;" horiz-adv-x="861" 
d="M863 700l-332 -347h105v-69h-162v-82h162v-69h-162v-133h-89v133h-161v69h161v82h-161v69h105l-331 347h119l316 -330l316 330h114z" />
    <glyph glyph-name="section" unicode="&#xa7;" horiz-adv-x="698" 
d="M53 111l68.998 54.001c22.667 -27.333 58.5 -49.5 107.5 -66.5s100.167 -25.5 153.5 -25.5c52.667 0 93.834 6.5 123.501 19.5s44.5 30.5 44.5 52.5c0 24 -14.833 40.667 -44.5 50s-75.834 15.333 -138.501 18c-88.667 4 -157 16.5 -205 37.5s-72 54.5 -72 100.5
c0 27.333 9.33301 51 28 71s43.334 33 74.001 39c-28 4 -51.5 15.5 -70.5 34.5s-28.5 40.833 -28.5 65.5c0 45.333 24.833 81.166 74.5 107.499s111.834 39.5 186.501 39.5c56 0 109.333 -9.83301 160 -29.5s90.334 -46.834 119.001 -81.501l-72 -52
c-22 26.667 -53 47.167 -93 61.5s-82.667 21.5 -128 21.5c-44.667 0 -82.334 -5.83301 -113.001 -17.5s-46 -27.834 -46 -48.501c0 -22.667 13.5 -38.667 40.5 -48s67.833 -14.666 122.5 -15.999c41.333 -2 77.833 -5.33301 109.5 -10s62.167 -12 91.5 -22
s51.833 -24.167 67.5 -42.5s23.5 -40.833 23.5 -67.5c0 -27.333 -9.33301 -51.166 -28 -71.499s-43.334 -33.5 -74.001 -39.5c28.667 -4.66699 53.834 -16.667 75.501 -36s32.5 -41 32.5 -65c0 -49.333 -24.333 -86.833 -73 -112.5s-115.667 -38.5 -201 -38.5
c-66 0 -127.833 10.667 -185.5 32s-101.167 50 -130.5 86zM183.998 357.001c0 -28 18.999 -48.333 56.999 -61s86.667 -19 146 -19c104.667 0 157 24.667 157 74c0 28 -19.167 48.333 -57.5 61s-87.166 19 -146.499 19c-104 0 -156 -24.667 -156 -74z" />
    <glyph glyph-name="dieresis" unicode="&#xa8;" horiz-adv-x="411" 
d="M83 643v95h83v-95h-83zM251 643v95h83v-95h-83z" />
    <glyph glyph-name="copyright" unicode="&#xa9;" horiz-adv-x="1023" 
d="M941 276c0 -119.333 -39.5 -216.333 -118.5 -291s-182.833 -112 -311.5 -112s-232.5 37.333 -311.5 112s-118.5 171.667 -118.5 291c0 118.667 39.5 215.5 118.5 290.5s182.833 112.5 311.5 112.5s232.5 -37.5 311.5 -112.5s118.5 -171.833 118.5 -290.5zM129 276
c0 -108 35.333 -196 106 -264s162.667 -102 276 -102s205.5 34 276.5 102s106.5 156 106.5 264c0 107.333 -35.5 195 -106.5 263s-163.167 102 -276.5 102s-205.333 -34 -276 -102s-106 -155.667 -106 -263zM736 396l-59.998 -33c-31.333 47.333 -85.333 71 -162 71
c-54.667 0 -98.334 -13.333 -131.001 -40s-49 -65 -49 -115c0 -49.333 16.5 -87.5 49.5 -114.5s76.833 -40.5 131.5 -40.5c78.667 0 133.334 24.667 164.001 74l60 -34c-20.667 -32 -50.334 -57 -89.001 -75s-83.334 -27 -134.001 -27
c-76.667 0 -137.834 19.167 -183.501 57.5s-68.5 91.5 -68.5 159.5s22.833 121.333 68.5 160s106.834 58 183.501 58c49.333 0 93 -9 131 -27s67.667 -42.667 89 -74z" />
    <glyph glyph-name="ordfeminine" unicode="&#xaa;" horiz-adv-x="522" 
d="M384 448c0 1.33301 -0.169922 3.00293 -0.50293 5.00293s-0.5 3.66699 -0.5 5c-18.667 -28.667 -45.167 -50.834 -79.5 -66.501s-72.5 -23.5 -114.5 -23.5c-43.333 0 -78.166 10.5 -104.499 31.5s-39.5 47.5 -39.5 79.5c0 27.333 8.66699 50.166 26 68.499
s42 31.666 74 39.999s64.167 14.166 96.5 17.499s70.166 5 113.499 5h20c-8.66699 54.667 -53.667 82 -135 82c-28.667 0 -56.167 -5 -82.5 -15s-47.166 -23.333 -62.499 -40l-39 47c21.333 20 49.833 36 85.5 48s70.834 18 105.501 18c60.667 0 108 -14.167 142 -42.5
s51 -71.5 51 -129.5v-88c0 -23.333 3.16699 -39.666 9.5 -48.999s16.833 -14 31.5 -14c17.333 0 31 2 41 6l-11 -58c-13.333 -3.33301 -27.666 -5 -42.999 -5c-49.333 0 -77.333 26 -84 78zM377.997 550.003l-0.000976562 11.999c-24.667 0 -46 -0.333008 -64 -1
s-38.167 -1.66699 -60.5 -3s-41.166 -3.83301 -56.499 -7.5s-30 -8.16699 -44 -13.5s-24.5 -12.5 -31.5 -21.5s-10.5 -19.167 -10.5 -30.5c0 -19.333 8.16699 -34.333 24.5 -45s36.833 -16 61.5 -16c48 0 89.667 11.333 125 34s54 53.334 56 92.001z" />
    <glyph glyph-name="guillemotleft" unicode="&#xab;" horiz-adv-x="487" 
d="M29 277l148 191h83l-149 -191l149 -191h-83zM216 277l148 191h82l-148 -191l148 -191h-82z" />
    <glyph glyph-name="uni00AD" unicode="&#xad;" horiz-adv-x="586" 
d="M85 275v79h415v-79h-415z" />
    <glyph glyph-name="registered" unicode="&#xae;" horiz-adv-x="1023" 
d="M941 276c0 -119.333 -39.5 -216.333 -118.5 -291s-182.833 -112 -311.5 -112s-232.5 37.333 -311.5 112s-118.5 171.667 -118.5 291c0 118.667 39.5 215.5 118.5 290.5s182.833 112.5 311.5 112.5s232.5 -37.5 311.5 -112.5s118.5 -171.833 118.5 -290.5zM129 276
c0 -108 35.333 -196 106 -264s162.667 -102 276 -102s205.5 34 276.5 102s106.5 156 106.5 264c0 107.333 -35.5 195 -106.5 263s-163.167 102 -276.5 102s-205.333 -34 -276 -102s-106 -155.667 -106 -263zM679 77l-168.998 196h-125v-196h-70v422h258
c43.333 0 77.666 -9.5 102.999 -28.5s38 -45.833 38 -80.5c0 -30 -9.83301 -54.5 -29.5 -73.5s-45.834 -30.833 -78.501 -35.5l-16 -3l174 -201h-85zM642.002 386c0 18 -6.5 32 -19.5 42s-30.5 15 -52.5 15h-185v-114h185c48 0 72 19 72 57z" />
    <glyph glyph-name="degree" unicode="&#xb0;" horiz-adv-x="453" 
d="M394 553c0 -46 -15.333 -83.5 -46 -112.5s-71.334 -43.5 -122.001 -43.5s-91.334 14.5 -122.001 43.5s-46 66.5 -46 112.5c0 46.667 15.333 84.5 46 113.5s71.334 43.5 122.001 43.5s91.334 -14.5 122.001 -43.5s46 -66.833 46 -113.5zM118 553
c0 -29.333 10.167 -54.166 30.5 -74.499s46.166 -30.5 77.499 -30.5s57.166 10.167 77.499 30.5s30.5 45.166 30.5 74.499c0 30 -10.167 55 -30.5 75s-46.166 30 -77.499 30s-57.166 -10 -77.499 -30s-30.5 -45 -30.5 -75z" />
    <glyph glyph-name="plusminus" unicode="&#xb1;" horiz-adv-x="586" 
d="M85 285v79h168v158h79v-158h168v-79h-168v-158h-79v158h-168zM85 0v79h415v-79h-415z" />
    <glyph glyph-name="twosuperior" unicode="&#xb2;" horiz-adv-x="532" 
d="M105 565l-62 18.001c18 52.667 48.667 93.5 92 122.5s95 43.5 155 43.5c63.333 0 113.5 -14.833 150.5 -44.5s55.5 -67.167 55.5 -112.5c0 -38 -15 -73 -45 -105s-77 -64.667 -141 -98l-144 -75h341v-60h-452v52l228 129c52 29.333 90 55.166 114 77.499s36 47.5 36 75.5
c0 30 -12.833 54.5 -38.5 73.5s-60.167 28.5 -103.5 28.5c-46 0 -85 -10.833 -117 -32.5s-55 -52.5 -69 -92.5z" />
    <glyph glyph-name="threesuperior" unicode="&#xb3;" horiz-adv-x="533" 
d="M443 395c0 56 -53.667 84.001 -161 84.001h-60v57h64c42 0 75 6.33301 99 19s36 31 36 55s-13.167 43.333 -39.5 58s-61.5 22 -105.5 22c-80 0 -138 -29 -174 -87l-56 31c21.333 36.667 52.333 65 93 85s86.667 30 138 30c62 0 112 -12.667 150 -38s57 -57.333 57 -96
c0 -42 -26 -76.333 -78 -103c68 -23.333 102 -63 102 -119c0 -44.667 -21 -80 -63 -106s-96.667 -39 -164 -39c-54 0 -103.333 9.83301 -148 29.5s-77.334 47.167 -98.001 82.5l55 31c16 -26.667 41.667 -47.334 77 -62.001s73.333 -22 114 -22
c48.667 0 87.834 7.5 117.501 22.5s44.5 36.833 44.5 65.5z" />
    <glyph glyph-name="acute" unicode="&#xb4;" horiz-adv-x="557" 
d="M412 781l-138 -163h-78l106 163h110z" />
    <glyph glyph-name="mu" unicode="&#xb5;" horiz-adv-x="765" 
d="M586 261v268.001h88v-529h-88v100c-48.667 -72 -127 -108 -235 -108c-76.667 0 -134 21 -172 63v-276h-88v750h88v-296c0 -51.333 16.5 -90.5 49.5 -117.5s78.167 -40.5 135.5 -40.5c65.333 0 118.5 16.167 159.5 48.5s61.833 78.166 62.5 137.499z" />
    <glyph glyph-name="mu" unicode="&#x3bc;" horiz-adv-x="765" 
d="M586 261v268.001h88v-529h-88v100c-48.667 -72 -127 -108 -235 -108c-76.667 0 -134 21 -172 63v-276h-88v750h88v-296c0 -51.333 16.5 -90.5 49.5 -117.5s78.167 -40.5 135.5 -40.5c65.333 0 118.5 16.167 159.5 48.5s61.833 78.166 62.5 137.499z" />
    <glyph glyph-name="paragraph" unicode="&#xb6;" horiz-adv-x="767" 
d="M43 443c0 80.667 28.5 143.667 85.5 189s133.5 68 229.5 68h356v-77h-70v-867h-91v867h-104v-867h-91v430c-96 0 -172.5 22.667 -229.5 68s-85.5 108.333 -85.5 189z" />
    <glyph glyph-name="periodcentered" unicode="&#xb7;" horiz-adv-x="429" 
d="M104 317c0 30 10 53.167 30 69.5s46.667 24.5 80 24.5c34 0 61 -8.16699 81 -24.5s30 -39.5 30 -69.5c0 -30.667 -10 -54 -30 -70s-47 -24 -81 -24c-33.333 0 -60 8 -80 24s-30 39.333 -30 70z" />
    <glyph glyph-name="cedilla" unicode="&#xb8;" horiz-adv-x="581" 
d="M208 -84l53 108.998h64l-39 -78c24 -7.33301 44.5 -19.666 61.5 -36.999s25.5 -37 25.5 -59c0 -33.333 -11.667 -58.666 -35 -75.999s-52 -26 -86 -26c-32.667 0 -63.667 7 -93 21l-11 65c27.333 -19.333 60.333 -29 99 -29s58 15 58 45c0 33.333 -32.333 55 -97 65z" />
    <glyph glyph-name="onesuperior" unicode="&#xb9;" horiz-adv-x="280" 
d="M189 750l56 0.000976562v-490h-63c0 181.333 -0.333008 317.666 -1 408.999c-16 -17.333 -38.5 -31.666 -67.5 -42.999s-59.5 -17 -91.5 -17v51c32.667 0 63.5 8.16699 92.5 24.5s53.833 38.166 74.5 65.499z" />
    <glyph glyph-name="ordmasculine" unicode="&#xba;" horiz-adv-x="539" 
d="M491 559c0 -60 -20.167 -106.833 -60.5 -140.5s-94.166 -50.5 -161.499 -50.5s-121.333 17 -162 51s-61 80.667 -61 140s20.167 106 60.5 140s94.166 51 161.499 51c68 0 122.167 -16.833 162.5 -50.5s60.5 -80.5 60.5 -140.5zM109 559c0 -42.667 14.5 -75.5 43.5 -98.5
s67.833 -34.5 116.5 -34.5s87.5 11.5 116.5 34.5s43.5 55.833 43.5 98.5s-14.5 75.5 -43.5 98.5s-68.167 34.5 -117.5 34.5c-48 0 -86.5 -11.5 -115.5 -34.5s-43.5 -55.833 -43.5 -98.5z" />
    <glyph glyph-name="guillemotright" unicode="&#xbb;" horiz-adv-x="487" 
d="M375 277l-148 191h82l148 -191l-148 -191h-82zM188 277l-148 191h82l149 -191l-149 -191h-82z" />
    <glyph glyph-name="questiondown" unicode="&#xbf;" horiz-adv-x="757" 
d="M431 335l4.99902 -187.998c-62.667 -4.66699 -114.834 -11.5 -156.501 -20.5s-76.167 -23.167 -103.5 -42.5s-41 -44 -41 -74c0 -36.667 23.167 -65.667 69.5 -87s102.833 -32 169.5 -32c127.333 0 218 37.667 272 113c8.66699 -2.66699 24.334 -9.16699 47.001 -19.5
s37.334 -16.833 44.001 -19.5c-32.667 -48.667 -80.5 -86.834 -143.5 -114.501s-136.167 -41.5 -219.5 -41.5c-98 0 -179.667 18.167 -245 54.5s-98 84.166 -98 143.499c0 108.667 105.333 172.667 316 192c0 68 0.666992 113.333 2 136h82zM442.999 519.002v-103h-106v103
h106z" />
    <glyph glyph-name="Agrave" unicode="&#xc0;" horiz-adv-x="846" 
d="M478 700l356 -700h-98l-135 263h-359l-134 -263h-96l355 700h111zM422 616l-140 -272h279zM387 743l-138 163h109l107 -163h-78z" />
    <glyph glyph-name="Aacute" unicode="&#xc1;" horiz-adv-x="846" 
d="M478 700l356 -700h-98l-135 263h-359l-134 -263h-96l355 700h111zM422 616l-140 -272h279zM588 906l-138 -163h-78l106 163h110z" />
    <glyph glyph-name="Acircumflex" unicode="&#xc2;" horiz-adv-x="846" 
d="M478 700l356 -700h-98l-135 263h-359l-134 -263h-96l355 700h111zM422 616l-140 -272h279zM481 903l130 -163h-78l-111 122l-109 -122h-78l130 163h116z" />
    <glyph glyph-name="Atilde" unicode="&#xc3;" horiz-adv-x="846" 
d="M478 700l356 -700h-98l-135 263h-359l-134 -263h-96l355 700h111zM422 616l-140 -272h279zM286 741l-67 18c6.66699 36.667 19.834 66.5 39.501 89.5s45.5 34.5 77.5 34.5c22 0 52.167 -12.167 90.5 -36.5s65.833 -36.5 82.5 -36.5c28.667 0 46.334 23.333 53.001 70
l67 -18c-6.66699 -36 -19.834 -65.833 -39.501 -89.5s-44.834 -35.5 -75.501 -35.5c-22.667 0 -53.167 12.333 -91.5 37s-66.166 37 -83.499 37c-28.667 0 -46.334 -23.333 -53.001 -70z" />
    <glyph glyph-name="Adieresis" unicode="&#xc4;" horiz-adv-x="846" 
d="M478 700l356 -700h-98l-135 263h-359l-134 -263h-96l355 700h111zM422 616l-140 -272h279zM301 758v95h83v-95h-83zM469 758v95h83v-95h-83z" />
    <glyph glyph-name="Aring" unicode="&#xc5;" horiz-adv-x="846" 
d="M478 700l356 -700h-98l-135 263h-359l-134 -263h-96l355 700h111zM422 616l-140 -272h279zM421 695c-42.667 0 -78.334 11.833 -107.001 35.5s-43 55.167 -43 94.5s14.333 70.833 43 94.5s64.334 35.5 107.001 35.5s78.334 -11.833 107.001 -35.5s43 -55.167 43 -94.5
s-14.333 -70.833 -43 -94.5s-64.334 -35.5 -107.001 -35.5zM421 899c-25.333 0 -46 -6.5 -62 -19.5s-24 -31.167 -24 -54.5s7.83301 -41.5 23.5 -54.5s36.5 -19.5 62.5 -19.5s46.833 6.5 62.5 19.5s23.5 31.167 23.5 54.5s-8 41.5 -24 54.5s-36.667 19.5 -62 19.5z" />
    <glyph glyph-name="AE" unicode="&#xc6;" horiz-adv-x="1240" 
d="M558 0v263h-261l-191 -263h-101l510 700h635v-84h-503v-177h461v-84h-461v-271h507v-84h-596zM357 344h201v275z" />
    <glyph glyph-name="Ccedilla" unicode="&#xc7;" horiz-adv-x="847" 
d="M809 557l-75 -53c-26.667 38.667 -64 68.167 -112 88.5s-103 30.5 -165 30.5c-97.333 0 -175.5 -23.833 -234.5 -71.5s-88.5 -115.167 -88.5 -202.5c0 -86.667 29.5 -154 88.5 -202s137.167 -72 234.5 -72c63.333 0 119.5 10.5 168.5 31.5s86.833 51.5 113.5 91.5l74 -52
c-34.667 -50 -82.667 -88.333 -144 -115s-132 -40 -212 -40c-126 0 -226.5 31.5 -301.5 94.5s-112.5 150.833 -112.5 263.5s37.5 200.5 112.5 263.5s175.5 94.5 301.5 94.5c164 0 281.333 -50 352 -150zM384 -84l53 108.998h64l-39 -78
c24 -7.33301 44.5 -19.666 61.5 -36.999s25.5 -37 25.5 -59c0 -33.333 -11.667 -58.666 -35 -75.999s-52 -26 -86 -26c-32.667 0 -63.667 7 -93 21l-11 65c27.333 -19.333 60.333 -29 99 -29s58 15 58 45c0 33.333 -32.333 55 -97 65z" />
    <glyph glyph-name="Egrave" unicode="&#xc8;" horiz-adv-x="807" 
d="M721 0h-606v700h602v-84h-512v-177h471v-84h-471v-271h516v-84zM393 743l-138 163h109l107 -163h-78z" />
    <glyph glyph-name="Eacute" unicode="&#xc9;" horiz-adv-x="807" 
d="M721 0h-606v700h602v-84h-512v-177h471v-84h-471v-271h516v-84zM569 906l-138 -163h-78l106 163h110z" />
    <glyph glyph-name="Ecircumflex" unicode="&#xca;" horiz-adv-x="807" 
d="M721 0h-606v700h602v-84h-512v-177h471v-84h-471v-271h516v-84zM481 903l130 -163h-78l-111 122l-109 -122h-78l130 163h116z" />
    <glyph glyph-name="Edieresis" unicode="&#xcb;" horiz-adv-x="807" 
d="M721 0h-606v700h602v-84h-512v-177h471v-84h-471v-271h516v-84zM299 758v95h83v-95h-83zM467 758v95h83v-95h-83z" />
    <glyph glyph-name="Igrave" unicode="&#xcc;" horiz-adv-x="320" 
d="M115 0v700h90v-700h-90zM132 743l-138 163h109l107 -163h-78z" />
    <glyph glyph-name="Iacute" unicode="&#xcd;" horiz-adv-x="320" 
d="M115 0v700h90v-700h-90zM335 906l-138 -163h-78l106 163h110z" />
    <glyph glyph-name="Icircumflex" unicode="&#xce;" horiz-adv-x="320" 
d="M115 0v700h90v-700h-90zM220 903l130 -163h-78l-111 122l-109 -122h-78l130 163h116z" />
    <glyph glyph-name="Idieresis" unicode="&#xcf;" horiz-adv-x="320" 
d="M115 0v700h90v-700h-90zM35 758v95h83v-95h-83zM203 758v95h83v-95h-83z" />
    <glyph glyph-name="Eth" unicode="&#xd0;" horiz-adv-x="898" 
d="M43 317v87.001h71v296h328c124.667 0 224.5 -31.167 299.5 -93.5s112.5 -148.5 112.5 -258.5c0 -110.667 -37.333 -196.334 -112 -257.001s-174.667 -91 -300 -91h-328v317h-71zM763 349.001c0 84.667 -29.332 150.333 -87.999 197s-136.334 70 -233.001 70h-239v-212
h220v-87h-220v-233h241c96 0 173.167 23.167 231.5 69.5s87.5 111.5 87.5 195.5z" />
    <glyph glyph-name="Ntilde" unicode="&#xd1;" horiz-adv-x="944" 
d="M732 0l-527 575v-575h-90v700h98l527 -576v576h89v-700h-97zM342 741l-67 18c6.66699 36.667 19.834 66.5 39.501 89.5s45.5 34.5 77.5 34.5c22 0 52.167 -12.167 90.5 -36.5s65.833 -36.5 82.5 -36.5c28.667 0 46.334 23.333 53.001 70l67 -18
c-6.66699 -36 -19.834 -65.833 -39.501 -89.5s-44.834 -35.5 -75.501 -35.5c-22.667 0 -53.167 12.333 -91.5 37s-66.166 37 -83.499 37c-28.667 0 -46.334 -23.333 -53.001 -70z" />
    <glyph glyph-name="Ograve" unicode="&#xd2;" horiz-adv-x="915" 
d="M43 349c0 112.667 37.5 200.5 112.5 263.5s175.5 94.5 301.5 94.5s226.5 -31.5 301.5 -94.5s112.5 -150.833 112.5 -263.5s-37.5 -200.5 -112.5 -263.5s-175.5 -94.5 -301.5 -94.5s-226.5 31.5 -301.5 94.5s-112.5 150.833 -112.5 263.5zM457 623
c-97.333 0 -175.5 -24 -234.5 -72s-88.5 -115.333 -88.5 -202c0 -87.333 29.5 -154.833 88.5 -202.5s137.167 -71.5 234.5 -71.5s175.5 23.833 234.5 71.5s88.5 115.167 88.5 202.5c0 86.667 -29.5 154 -88.5 202s-137.167 72 -234.5 72zM435 743l-138 163h109l107 -163h-78
z" />
    <glyph glyph-name="Oacute" unicode="&#xd3;" horiz-adv-x="915" 
d="M43 349c0 112.667 37.5 200.5 112.5 263.5s175.5 94.5 301.5 94.5s226.5 -31.5 301.5 -94.5s112.5 -150.833 112.5 -263.5s-37.5 -200.5 -112.5 -263.5s-175.5 -94.5 -301.5 -94.5s-226.5 31.5 -301.5 94.5s-112.5 150.833 -112.5 263.5zM457 623
c-97.333 0 -175.5 -24 -234.5 -72s-88.5 -115.333 -88.5 -202c0 -87.333 29.5 -154.833 88.5 -202.5s137.167 -71.5 234.5 -71.5s175.5 23.833 234.5 71.5s88.5 115.167 88.5 202.5c0 86.667 -29.5 154 -88.5 202s-137.167 72 -234.5 72zM623 906l-138 -163h-78l106 163h110
z" />
    <glyph glyph-name="Ocircumflex" unicode="&#xd4;" horiz-adv-x="915" 
d="M43 349c0 112.667 37.5 200.5 112.5 263.5s175.5 94.5 301.5 94.5s226.5 -31.5 301.5 -94.5s112.5 -150.833 112.5 -263.5s-37.5 -200.5 -112.5 -263.5s-175.5 -94.5 -301.5 -94.5s-226.5 31.5 -301.5 94.5s-112.5 150.833 -112.5 263.5zM457 623
c-97.333 0 -175.5 -24 -234.5 -72s-88.5 -115.333 -88.5 -202c0 -87.333 29.5 -154.833 88.5 -202.5s137.167 -71.5 234.5 -71.5s175.5 23.833 234.5 71.5s88.5 115.167 88.5 202.5c0 86.667 -29.5 154 -88.5 202s-137.167 72 -234.5 72zM515 903l130 -163h-78l-111 122
l-109 -122h-78l130 163h116z" />
    <glyph glyph-name="Otilde" unicode="&#xd5;" horiz-adv-x="915" 
d="M43 349c0 112.667 37.5 200.5 112.5 263.5s175.5 94.5 301.5 94.5s226.5 -31.5 301.5 -94.5s112.5 -150.833 112.5 -263.5s-37.5 -200.5 -112.5 -263.5s-175.5 -94.5 -301.5 -94.5s-226.5 31.5 -301.5 94.5s-112.5 150.833 -112.5 263.5zM457 623
c-97.333 0 -175.5 -24 -234.5 -72s-88.5 -115.333 -88.5 -202c0 -87.333 29.5 -154.833 88.5 -202.5s137.167 -71.5 234.5 -71.5s175.5 23.833 234.5 71.5s88.5 115.167 88.5 202.5c0 86.667 -29.5 154 -88.5 202s-137.167 72 -234.5 72zM325 741l-67 18
c6.66699 36.667 19.834 66.5 39.501 89.5s45.5 34.5 77.5 34.5c22 0 52.167 -12.167 90.5 -36.5s65.833 -36.5 82.5 -36.5c28.667 0 46.334 23.333 53.001 70l67 -18c-6.66699 -36 -19.834 -65.833 -39.501 -89.5s-44.834 -35.5 -75.501 -35.5
c-22.667 0 -53.167 12.333 -91.5 37s-66.166 37 -83.499 37c-28.667 0 -46.334 -23.333 -53.001 -70z" />
    <glyph glyph-name="Odieresis" unicode="&#xd6;" horiz-adv-x="915" 
d="M43 349c0 112.667 37.5 200.5 112.5 263.5s175.5 94.5 301.5 94.5s226.5 -31.5 301.5 -94.5s112.5 -150.833 112.5 -263.5s-37.5 -200.5 -112.5 -263.5s-175.5 -94.5 -301.5 -94.5s-226.5 31.5 -301.5 94.5s-112.5 150.833 -112.5 263.5zM457 623
c-97.333 0 -175.5 -24 -234.5 -72s-88.5 -115.333 -88.5 -202c0 -87.333 29.5 -154.833 88.5 -202.5s137.167 -71.5 234.5 -71.5s175.5 23.833 234.5 71.5s88.5 115.167 88.5 202.5c0 86.667 -29.5 154 -88.5 202s-137.167 72 -234.5 72zM330 758v95h83v-95h-83zM498 758v95
h83v-95h-83z" />
    <glyph glyph-name="multiply" unicode="&#xd7;" horiz-adv-x="530" 
d="M145 143l-52 52l119 119l-119 120l52 51l119 -119l121 120l52 -52l-121 -120l121 -120l-52 -52l-121 120z" />
    <glyph glyph-name="Oslash" unicode="&#xd8;" horiz-adv-x="915" 
d="M43 349c0 112.667 37.5 200.501 112.5 263.501s175.5 94.5 301.5 94.5c60 0 116.667 -8.33301 170 -25l41 71h71l-54 -93c59.333 -29.333 105.166 -70.5 137.499 -123.5s48.5 -115.5 48.5 -187.5c0 -112.667 -37.5 -200.5 -112.5 -263.5s-175.5 -94.5 -301.5 -94.5
c-56.667 0 -108 6.33301 -154 19l-38 -65h-71l50 86c-63.333 27.333 -112.666 68.166 -147.999 122.499s-53 119.5 -53 195.5zM457 623.001c-97.333 0 -175.5 -24 -234.5 -72s-88.5 -115.333 -88.5 -202c0 -58 13.5 -107.5 40.5 -148.5s64.833 -72.167 113.5 -93.5l295 499
c-39.333 11.333 -81.333 17 -126 17zM780 349.001c0 109.333 -46.334 187.667 -139.001 235l-294 -496c32.667 -8.66699 69.334 -13 110.001 -13c97.333 0 175.5 23.833 234.5 71.5s88.5 115.167 88.5 202.5z" />
    <glyph glyph-name="Ugrave" unicode="&#xd9;" horiz-adv-x="884" 
d="M442 -9c-111.333 0 -197.333 29 -258 87s-91 141.667 -91 251v371h89v-322c0 -104 19.833 -180.5 59.5 -229.5s106.5 -73.5 200.5 -73.5s160.833 24.5 200.5 73.5s59.5 125.5 59.5 229.5v322h89v-371c0 -109.333 -30.333 -193 -91 -251s-146.667 -87 -258 -87zM419 743
l-138 163h109l107 -163h-78z" />
    <glyph glyph-name="Uacute" unicode="&#xda;" horiz-adv-x="884" 
d="M442 -9c-111.333 0 -197.333 29 -258 87s-91 141.667 -91 251v371h89v-322c0 -104 19.833 -180.5 59.5 -229.5s106.5 -73.5 200.5 -73.5s160.833 24.5 200.5 73.5s59.5 125.5 59.5 229.5v322h89v-371c0 -109.333 -30.333 -193 -91 -251s-146.667 -87 -258 -87zM600 906
l-138 -163h-78l106 163h110z" />
    <glyph glyph-name="Ucircumflex" unicode="&#xdb;" horiz-adv-x="884" 
d="M442 -9c-111.333 0 -197.333 29 -258 87s-91 141.667 -91 251v371h89v-322c0 -104 19.833 -180.5 59.5 -229.5s106.5 -73.5 200.5 -73.5s160.833 24.5 200.5 73.5s59.5 125.5 59.5 229.5v322h89v-371c0 -109.333 -30.333 -193 -91 -251s-146.667 -87 -258 -87zM502 903
l130 -163h-78l-111 122l-109 -122h-78l130 163h116z" />
    <glyph glyph-name="Udieresis" unicode="&#xdc;" horiz-adv-x="884" 
d="M442 -9c-111.333 0 -197.333 29 -258 87s-91 141.667 -91 251v371h89v-322c0 -104 19.833 -180.5 59.5 -229.5s106.5 -73.5 200.5 -73.5s160.833 24.5 200.5 73.5s59.5 125.5 59.5 229.5v322h89v-371c0 -109.333 -30.333 -193 -91 -251s-146.667 -87 -258 -87zM317 758
v95h83v-95h-83zM485 758v95h83v-95h-83z" />
    <glyph glyph-name="Yacute" unicode="&#xdd;" horiz-adv-x="861" 
d="M863 700l-328 -343l-61 -63v-294h-89v295l-387 405h119l316 -330l316 330h114zM596 906l-138 -163h-78l106 163h110z" />
    <glyph glyph-name="Thorn" unicode="&#xde;" horiz-adv-x="802" 
d="M205 171v-171.001h-90v700h90v-152h356c61.333 0 111.333 -17.167 150 -51.5s58 -79.833 58 -136.5c0 -57.333 -19.167 -103.166 -57.5 -137.499s-88.5 -51.5 -150.5 -51.5h-356zM205 254.999h323c100.667 0 151 35 151 105c0 69.333 -50.333 104 -151 104h-323v-209z
" />
    <glyph glyph-name="germandbls" unicode="&#xdf;" horiz-adv-x="726" 
d="M215 61l42.998 72c54 -44 118 -66 192 -66c46.667 0 82.834 12 108.501 36s38.5 53.333 38.5 88c0 30.667 -10.333 55.5 -31 74.5s-45.667 32.833 -75 41.5s-58.666 16.834 -87.999 24.501s-54.333 18.667 -75 33s-31 33.166 -31 56.499
c0 20.667 6.83301 37.834 20.5 51.501s30.167 24.167 49.5 31.5l57.5 21.5c19 7 35.333 16.167 49 27.5s20.5 25.333 20.5 42c0 24 -13.5 44.167 -40.5 60.5s-63.5 24.5 -109.5 24.5c-110 0 -165 -43 -165 -129v-551h-88v565c0 60.667 24 107 72 139s110 48 186 48
c68.667 0 124.667 -14.5 168 -43.5s65 -65.5 65 -109.5c0 -26 -6.5 -48 -19.5 -66s-28.833 -31 -47.5 -39s-37.334 -14.833 -56.001 -20.5s-34.5 -11.834 -47.5 -18.501s-19.5 -14.667 -19.5 -24c0 -11.333 10.167 -20.833 30.5 -28.5s45 -15.5 74 -23.5
s57.833 -18.167 86.5 -30.5s53.167 -32 73.5 -59s30.5 -60.167 30.5 -99.5c0 -57.333 -21.667 -105 -65 -143s-101.666 -57 -174.999 -57c-90 0 -167.333 23.667 -232 71z" />
    <glyph glyph-name="agrave" unicode="&#xe0;" 
d="M549 105c-1.33301 6.66699 -2 11.668 -2 15.001c-26.667 -40.667 -64.5 -72.167 -113.5 -94.5s-103.5 -33.5 -163.5 -33.5c-62 0 -111.833 15 -149.5 45s-56.5 67.667 -56.5 113c0 31.333 8.83301 58.666 26.5 81.999s40 41.5 67 54.5s60.833 23.5 101.5 31.5
s80.167 13.167 118.5 15.5s81.5 3.5 129.5 3.5h29c-12 78 -76.333 117 -193 117c-41.333 0 -80.833 -7.16699 -118.5 -21.5s-67.5 -33.5 -89.5 -57.5l-55 68c30.667 28 71.5 50.667 122.5 68s101.167 26 150.5 26c87.333 0 155 -20.167 203 -60.5s72 -101.833 72 -184.5
v-127c0 -33.333 4.66699 -56.5 14 -69.5s24.333 -19.5 45 -19.5c24 0 43.333 2.66699 58 8l-15 -82c-16 -5.33301 -36.667 -8 -62 -8c-71.333 0 -111 37 -119 111zM540 251.001v18.001c-34.667 0 -65 -0.333008 -91 -1s-55 -2.16699 -87 -4.5s-59 -6.16602 -81 -11.499
s-43 -11.833 -63 -19.5s-35 -17.834 -45 -30.501s-15 -27.334 -15 -44.001c0 -28 11.833 -49.333 35.5 -64s53.167 -22 88.5 -22c68.667 0 128.167 16.167 178.5 48.5s76.833 75.833 79.5 130.5zM326 617.002l-138 163h109l107 -163h-78z" />
    <glyph glyph-name="aacute" unicode="&#xe1;" 
d="M549 105c-1.33301 6.66699 -2 11.668 -2 15.001c-26.667 -40.667 -64.5 -72.167 -113.5 -94.5s-103.5 -33.5 -163.5 -33.5c-62 0 -111.833 15 -149.5 45s-56.5 67.667 -56.5 113c0 31.333 8.83301 58.666 26.5 81.999s40 41.5 67 54.5s60.833 23.5 101.5 31.5
s80.167 13.167 118.5 15.5s81.5 3.5 129.5 3.5h29c-12 78 -76.333 117 -193 117c-41.333 0 -80.833 -7.16699 -118.5 -21.5s-67.5 -33.5 -89.5 -57.5l-55 68c30.667 28 71.5 50.667 122.5 68s101.167 26 150.5 26c87.333 0 155 -20.167 203 -60.5s72 -101.833 72 -184.5
v-127c0 -33.333 4.66699 -56.5 14 -69.5s24.333 -19.5 45 -19.5c24 0 43.333 2.66699 58 8l-15 -82c-16 -5.33301 -36.667 -8 -62 -8c-71.333 0 -111 37 -119 111zM540 251.001v18.001c-34.667 0 -65 -0.333008 -91 -1s-55 -2.16699 -87 -4.5s-59 -6.16602 -81 -11.499
s-43 -11.833 -63 -19.5s-35 -17.834 -45 -30.501s-15 -27.334 -15 -44.001c0 -28 11.833 -49.333 35.5 -64s53.167 -22 88.5 -22c68.667 0 128.167 16.167 178.5 48.5s76.833 75.833 79.5 130.5zM515 781.002l-138 -163h-78l106 163h110z" />
    <glyph glyph-name="acircumflex" unicode="&#xe2;" 
d="M549 105c-1.33301 6.66699 -2 11.668 -2 15.001c-26.667 -40.667 -64.5 -72.167 -113.5 -94.5s-103.5 -33.5 -163.5 -33.5c-62 0 -111.833 15 -149.5 45s-56.5 67.667 -56.5 113c0 31.333 8.83301 58.666 26.5 81.999s40 41.5 67 54.5s60.833 23.5 101.5 31.5
s80.167 13.167 118.5 15.5s81.5 3.5 129.5 3.5h29c-12 78 -76.333 117 -193 117c-41.333 0 -80.833 -7.16699 -118.5 -21.5s-67.5 -33.5 -89.5 -57.5l-55 68c30.667 28 71.5 50.667 122.5 68s101.167 26 150.5 26c87.333 0 155 -20.167 203 -60.5s72 -101.833 72 -184.5
v-127c0 -33.333 4.66699 -56.5 14 -69.5s24.333 -19.5 45 -19.5c24 0 43.333 2.66699 58 8l-15 -82c-16 -5.33301 -36.667 -8 -62 -8c-71.333 0 -111 37 -119 111zM540 251.001v18.001c-34.667 0 -65 -0.333008 -91 -1s-55 -2.16699 -87 -4.5s-59 -6.16602 -81 -11.499
s-43 -11.833 -63 -19.5s-35 -17.834 -45 -30.501s-15 -27.334 -15 -44.001c0 -28 11.833 -49.333 35.5 -64s53.167 -22 88.5 -22c68.667 0 128.167 16.167 178.5 48.5s76.833 75.833 79.5 130.5zM429 780.002l130 -163h-78l-111 122l-109 -122h-78l130 163h116z" />
    <glyph glyph-name="atilde" unicode="&#xe3;" 
d="M549 105c-1.33301 6.66699 -2 11.668 -2 15.001c-26.667 -40.667 -64.5 -72.167 -113.5 -94.5s-103.5 -33.5 -163.5 -33.5c-62 0 -111.833 15 -149.5 45s-56.5 67.667 -56.5 113c0 31.333 8.83301 58.666 26.5 81.999s40 41.5 67 54.5s60.833 23.5 101.5 31.5
s80.167 13.167 118.5 15.5s81.5 3.5 129.5 3.5h29c-12 78 -76.333 117 -193 117c-41.333 0 -80.833 -7.16699 -118.5 -21.5s-67.5 -33.5 -89.5 -57.5l-55 68c30.667 28 71.5 50.667 122.5 68s101.167 26 150.5 26c87.333 0 155 -20.167 203 -60.5s72 -101.833 72 -184.5
v-127c0 -33.333 4.66699 -56.5 14 -69.5s24.333 -19.5 45 -19.5c24 0 43.333 2.66699 58 8l-15 -82c-16 -5.33301 -36.667 -8 -62 -8c-71.333 0 -111 37 -119 111zM540 251.001v18.001c-34.667 0 -65 -0.333008 -91 -1s-55 -2.16699 -87 -4.5s-59 -6.16602 -81 -11.499
s-43 -11.833 -63 -19.5s-35 -17.834 -45 -30.501s-15 -27.334 -15 -44.001c0 -28 11.833 -49.333 35.5 -64s53.167 -22 88.5 -22c68.667 0 128.167 16.167 178.5 48.5s76.833 75.833 79.5 130.5zM234 647.002l-67 18c6.66699 36.667 19.834 66.5 39.501 89.5
s45.5 34.5 77.5 34.5c22 0 52.167 -12.167 90.5 -36.5s65.833 -36.5 82.5 -36.5c28.667 0 46.334 23.333 53.001 70l67 -18c-6.66699 -36 -19.834 -65.833 -39.501 -89.5s-44.834 -35.5 -75.501 -35.5c-22.667 0 -53.167 12.333 -91.5 37s-66.166 37 -83.499 37
c-28.667 0 -46.334 -23.333 -53.001 -70z" />
    <glyph glyph-name="adieresis" unicode="&#xe4;" 
d="M549 105c-1.33301 6.66699 -2 11.668 -2 15.001c-26.667 -40.667 -64.5 -72.167 -113.5 -94.5s-103.5 -33.5 -163.5 -33.5c-62 0 -111.833 15 -149.5 45s-56.5 67.667 -56.5 113c0 31.333 8.83301 58.666 26.5 81.999s40 41.5 67 54.5s60.833 23.5 101.5 31.5
s80.167 13.167 118.5 15.5s81.5 3.5 129.5 3.5h29c-12 78 -76.333 117 -193 117c-41.333 0 -80.833 -7.16699 -118.5 -21.5s-67.5 -33.5 -89.5 -57.5l-55 68c30.667 28 71.5 50.667 122.5 68s101.167 26 150.5 26c87.333 0 155 -20.167 203 -60.5s72 -101.833 72 -184.5
v-127c0 -33.333 4.66699 -56.5 14 -69.5s24.333 -19.5 45 -19.5c24 0 43.333 2.66699 58 8l-15 -82c-16 -5.33301 -36.667 -8 -62 -8c-71.333 0 -111 37 -119 111zM540 251.001v18.001c-34.667 0 -65 -0.333008 -91 -1s-55 -2.16699 -87 -4.5s-59 -6.16602 -81 -11.499
s-43 -11.833 -63 -19.5s-35 -17.834 -45 -30.501s-15 -27.334 -15 -44.001c0 -28 11.833 -49.333 35.5 -64s53.167 -22 88.5 -22c68.667 0 128.167 16.167 178.5 48.5s76.833 75.833 79.5 130.5zM241 643.002v95h83v-95h-83zM409 643.002v95h83v-95h-83z" />
    <glyph glyph-name="aring" unicode="&#xe5;" 
d="M549 105c-1.33301 6.66699 -2 11.668 -2 15.001c-26.667 -40.667 -64.5 -72.167 -113.5 -94.5s-103.5 -33.5 -163.5 -33.5c-62 0 -111.833 15 -149.5 45s-56.5 67.667 -56.5 113c0 31.333 8.83301 58.666 26.5 81.999s40 41.5 67 54.5s60.833 23.5 101.5 31.5
s80.167 13.167 118.5 15.5s81.5 3.5 129.5 3.5h29c-12 78 -76.333 117 -193 117c-41.333 0 -80.833 -7.16699 -118.5 -21.5s-67.5 -33.5 -89.5 -57.5l-55 68c30.667 28 71.5 50.667 122.5 68s101.167 26 150.5 26c87.333 0 155 -20.167 203 -60.5s72 -101.833 72 -184.5
v-127c0 -33.333 4.66699 -56.5 14 -69.5s24.333 -19.5 45 -19.5c24 0 43.333 2.66699 58 8l-15 -82c-16 -5.33301 -36.667 -8 -62 -8c-71.333 0 -111 37 -119 111zM540 251.001v18.001c-34.667 0 -65 -0.333008 -91 -1s-55 -2.16699 -87 -4.5s-59 -6.16602 -81 -11.499
s-43 -11.833 -63 -19.5s-35 -17.834 -45 -30.501s-15 -27.334 -15 -44.001c0 -28 11.833 -49.333 35.5 -64s53.167 -22 88.5 -22c68.667 0 128.167 16.167 178.5 48.5s76.833 75.833 79.5 130.5zM371 569.002c-42.667 0 -78.334 11.833 -107.001 35.5s-43 55.167 -43 94.5
s14.333 70.833 43 94.5s64.334 35.5 107.001 35.5s78.334 -11.833 107.001 -35.5s43 -55.167 43 -94.5s-14.333 -70.833 -43 -94.5s-64.334 -35.5 -107.001 -35.5zM371 773.002c-25.333 0 -46 -6.5 -62 -19.5s-24 -31.167 -24 -54.5s7.83301 -41.5 23.5 -54.5
s36.5 -19.5 62.5 -19.5s46.833 6.5 62.5 19.5s23.5 31.167 23.5 54.5s-8 41.5 -24 54.5s-36.667 19.5 -62 19.5z" />
    <glyph glyph-name="ae" unicode="&#xe6;" horiz-adv-x="1221" 
d="M137 375l-55.002 68.0029c30.667 28 71.5 50.667 122.5 68s101.167 26 150.5 26c120.667 0 200.667 -37.667 240 -113c52.667 75.333 140 113 262 113c95.333 0 171.5 -24 228.5 -72s85.833 -114.667 86.5 -200v-18h-540c4.66699 -55.333 28.334 -98 71.001 -128
s98 -45 166 -45c48.667 0 92.334 8.16699 131.001 24.5s67 39.5 85 69.5l71 -50c-26 -40 -64.333 -71 -115 -93s-108 -33 -172 -33c-74.667 0 -138.167 13.667 -190.5 41s-89.5 66.666 -111.5 117.999c-23.333 -50.667 -61.333 -89.834 -114 -117.501s-113 -41.5 -181 -41.5
c-63.333 0 -113.5 15.333 -150.5 46s-55.5 68 -55.5 112c0 31.333 8.83301 58.666 26.5 81.999s40 41.5 67 54.5s60.833 23.5 101.5 31.5s80.167 13.167 118.5 15.5s81.5 3.5 129.5 3.5h29c-12 78 -76.333 117 -193 117c-41.333 0 -80.833 -7.16699 -118.5 -21.5
s-67.5 -33.5 -89.5 -57.5zM541.998 251.003l-41.001 16.001c-37.333 0 -69.666 -0.666992 -96.999 -2s-57.333 -4.16602 -90 -8.49902s-59.5 -10.333 -80.5 -18s-38.5 -18.334 -52.5 -32.001s-21 -29.834 -21 -48.501c0 -28 11.833 -49.333 35.5 -64s53.167 -22 88.5 -22
c68.667 0 128.167 16 178.5 48s76.833 75.667 79.5 131zM1073 321.004c-11.333 43.333 -36 76.5 -74 99.5s-85.333 34.5 -142 34.5c-57.333 0 -105 -11.333 -143 -34s-62.667 -56 -74 -100h433z" />
    <glyph glyph-name="ccedilla" unicode="&#xe7;" horiz-adv-x="680" 
d="M578 160l71.001 -49.998c-27.333 -38 -64.833 -67.333 -112.5 -88s-102.167 -31 -163.5 -31c-98 0 -176 24.167 -234 72.5s-87 115.166 -87 200.499s29 152.166 87 200.499s135.333 72.5 232 72.5c61.333 0 115.666 -10 162.999 -30s84.333 -48.667 111 -86l-72 -52
c-38.667 56.667 -106 85 -202 85c-69.333 0 -125 -16.5 -167 -49.5s-63 -79.833 -63 -140.5s21.167 -107.5 63.5 -140.5s98.5 -49.5 168.5 -49.5c96.667 0 165 28.667 205 86zM301.001 -83.998l53 108.998h64l-39 -78c24 -7.33301 44.5 -19.666 61.5 -36.999
s25.5 -37 25.5 -59c0 -33.333 -11.667 -58.666 -35 -75.999s-52 -26 -86 -26c-32.667 0 -63.667 7 -93 21l-11 65c27.333 -19.333 60.333 -29 99 -29s58 15 58 45c0 33.333 -32.333 55 -97 65z" />
    <glyph glyph-name="egrave" unicode="&#xe8;" horiz-adv-x="730" 
d="M52 264c0 85.333 28.6689 152.167 86.002 200.5s133.333 72.5 228 72.5c95.333 0 171.666 -24 228.999 -72s86 -114.667 86 -200v-18h-539c4 -55.333 27.5 -98 70.5 -128s98.5 -45 166.5 -45c48.667 0 92.167 8.16699 130.5 24.5s66.5 39.5 84.5 69.5l72 -50
c-26 -40 -64.333 -71 -115 -93s-108 -33 -172 -33c-100.667 0 -180.334 24 -239.001 72s-88 114.667 -88 200zM583.002 319.001c-10.667 44 -35.334 77.667 -74.001 101s-86.334 35 -143.001 35c-57.333 0 -105.166 -11.667 -143.499 -35s-63.166 -57 -74.499 -101h435z
M335.002 617.001l-138 163h109l107 -163h-78z" />
    <glyph glyph-name="eacute" unicode="&#xe9;" horiz-adv-x="730" 
d="M52 264c0 85.333 28.6689 152.167 86.002 200.5s133.333 72.5 228 72.5c95.333 0 171.666 -24 228.999 -72s86 -114.667 86 -200v-18h-539c4 -55.333 27.5 -98 70.5 -128s98.5 -45 166.5 -45c48.667 0 92.167 8.16699 130.5 24.5s66.5 39.5 84.5 69.5l72 -50
c-26 -40 -64.333 -71 -115 -93s-108 -33 -172 -33c-100.667 0 -180.334 24 -239.001 72s-88 114.667 -88 200zM583.002 319.001c-10.667 44 -35.334 77.667 -74.001 101s-86.334 35 -143.001 35c-57.333 0 -105.166 -11.667 -143.499 -35s-63.166 -57 -74.499 -101h435z
M530.002 781.001l-138 -163h-78l106 163h110z" />
    <glyph glyph-name="ecircumflex" unicode="&#xea;" horiz-adv-x="730" 
d="M52 264c0 85.333 28.6689 152.167 86.002 200.5s133.333 72.5 228 72.5c95.333 0 171.666 -24 228.999 -72s86 -114.667 86 -200v-18h-539c4 -55.333 27.5 -98 70.5 -128s98.5 -45 166.5 -45c48.667 0 92.167 8.16699 130.5 24.5s66.5 39.5 84.5 69.5l72 -50
c-26 -40 -64.333 -71 -115 -93s-108 -33 -172 -33c-100.667 0 -180.334 24 -239.001 72s-88 114.667 -88 200zM583.002 319.001c-10.667 44 -35.334 77.667 -74.001 101s-86.334 35 -143.001 35c-57.333 0 -105.166 -11.667 -143.499 -35s-63.166 -57 -74.499 -101h435z
M424.002 780.001l130 -163h-78l-111 122l-109 -122h-78l130 163h116z" />
    <glyph glyph-name="edieresis" unicode="&#xeb;" horiz-adv-x="730" 
d="M52 264c0 85.333 28.6689 152.167 86.002 200.5s133.333 72.5 228 72.5c95.333 0 171.666 -24 228.999 -72s86 -114.667 86 -200v-18h-539c4 -55.333 27.5 -98 70.5 -128s98.5 -45 166.5 -45c48.667 0 92.167 8.16699 130.5 24.5s66.5 39.5 84.5 69.5l72 -50
c-26 -40 -64.333 -71 -115 -93s-108 -33 -172 -33c-100.667 0 -180.334 24 -239.001 72s-88 114.667 -88 200zM583.002 319.001c-10.667 44 -35.334 77.667 -74.001 101s-86.334 35 -143.001 35c-57.333 0 -105.166 -11.667 -143.499 -35s-63.166 -57 -74.499 -101h435z
M241.002 643.001v95h83v-95h-83zM409.002 643.001v95h83v-95h-83z" />
    <glyph glyph-name="igrave" unicode="&#xec;" horiz-adv-x="273" 
d="M104 617l-138 163h109l107 -163h-78zM94 0v529h88v-529h-88z" />
    <glyph glyph-name="iacute" unicode="&#xed;" horiz-adv-x="277" 
d="M308 781l-138 -163h-78l106 163h110zM94 0v529h88v-529h-88z" />
    <glyph glyph-name="icircumflex" unicode="&#xee;" horiz-adv-x="277" 
d="M94 0v529h88v-529h-88zM197 780l130 -163h-78l-111 122l-109 -122h-78l130 163h116z" />
    <glyph glyph-name="idieresis" unicode="&#xef;" horiz-adv-x="277" 
d="M13 643v95h83v-95h-83zM181 643v95h83v-95h-83zM94 0v529h88v-529h-88z" />
    <glyph glyph-name="eth" unicode="&#xf0;" horiz-adv-x="740" 
d="M282 543l0.000976562 62l94 38c-30.667 16 -62 27.333 -94 34v73c70.667 -12 134 -35.333 190 -70l167 68v-62l-112 -46c106.667 -89.333 160 -208 160 -356c0 -94 -28.5 -166.333 -85.5 -217s-134.167 -76 -231.5 -76c-96.667 0 -173.834 23.833 -231.501 71.5
s-86.5 113.5 -86.5 197.5s27 149.833 81 197.5s126.333 71.5 217 71.5c95.333 0 170 -26 224 -78c-26.667 62 -70 114.333 -130 157zM369.001 74c70 0 125.499 16 166.499 48s61.5 78 61.5 138c0 59.333 -20.667 105.166 -62 137.499s-96.666 48.5 -165.999 48.5
s-124.666 -16.167 -165.999 -48.5s-62 -78.166 -62 -137.499c0 -60 20.667 -106 62 -138s96.666 -48 165.999 -48z" />
    <glyph glyph-name="ntilde" unicode="&#xf1;" horiz-adv-x="755" 
d="M587 0l0.00195312 296c0 52 -16.167 91.333 -48.5 118s-77.833 40 -136.5 40c-64.667 0 -117.834 -15.833 -159.501 -47.5s-62.834 -76.167 -63.501 -133.5v-273h-88v529h88v-103c49.333 74 130.333 111 243 111c77.333 0 138.833 -20.167 184.5 -60.5
s68.5 -95.833 68.5 -166.5v-310h-88zM241.002 647l-67 18c6.66699 36.667 19.834 66.5 39.501 89.5s45.5 34.5 77.5 34.5c22 0 52.167 -12.167 90.5 -36.5s65.833 -36.5 82.5 -36.5c28.667 0 46.334 23.333 53.001 70l67 -18c-6.66699 -36 -19.834 -65.833 -39.501 -89.5
s-44.834 -35.5 -75.501 -35.5c-22.667 0 -53.167 12.333 -91.5 37s-66.166 37 -83.499 37c-28.667 0 -46.334 -23.333 -53.001 -70z" />
    <glyph glyph-name="ograve" unicode="&#xf2;" horiz-adv-x="739" 
d="M687 264c0 -85.333 -28.833 -152.166 -86.5 -200.499s-134.5 -72.5 -230.5 -72.5c-96.667 0 -173.834 24.167 -231.501 72.5s-86.5 115.166 -86.5 200.499s28.833 152.166 86.5 200.499s134.5 72.5 230.5 72.5c96.667 0 173.834 -24.167 231.501 -72.5
s86.5 -115.166 86.5 -200.499zM141 264c0 -61.333 20.667 -108.333 62 -141s97 -49 167 -49c69.333 0 124.666 16.333 165.999 49s62 79.667 62 141s-20.667 108.333 -62 141s-97 49 -167 49c-69.333 0 -124.666 -16.333 -165.999 -49s-62 -79.667 -62 -141zM331 617
l-138 163h109l107 -163h-78z" />
    <glyph glyph-name="oacute" unicode="&#xf3;" horiz-adv-x="739" 
d="M687 264c0 -85.333 -28.833 -152.166 -86.5 -200.499s-134.5 -72.5 -230.5 -72.5c-96.667 0 -173.834 24.167 -231.501 72.5s-86.5 115.166 -86.5 200.499s28.833 152.166 86.5 200.499s134.5 72.5 230.5 72.5c96.667 0 173.834 -24.167 231.501 -72.5
s86.5 -115.166 86.5 -200.499zM141 264c0 -61.333 20.667 -108.333 62 -141s97 -49 167 -49c69.333 0 124.666 16.333 165.999 49s62 79.667 62 141s-20.667 108.333 -62 141s-97 49 -167 49c-69.333 0 -124.666 -16.333 -165.999 -49s-62 -79.667 -62 -141zM533 781
l-138 -163h-78l106 163h110z" />
    <glyph glyph-name="ocircumflex" unicode="&#xf4;" horiz-adv-x="739" 
d="M687 264c0 -85.333 -28.833 -152.166 -86.5 -200.499s-134.5 -72.5 -230.5 -72.5c-96.667 0 -173.834 24.167 -231.501 72.5s-86.5 115.166 -86.5 200.499s28.833 152.166 86.5 200.499s134.5 72.5 230.5 72.5c96.667 0 173.834 -24.167 231.501 -72.5
s86.5 -115.166 86.5 -200.499zM141 264c0 -61.333 20.667 -108.333 62 -141s97 -49 167 -49c69.333 0 124.666 16.333 165.999 49s62 79.667 62 141s-20.667 108.333 -62 141s-97 49 -167 49c-69.333 0 -124.666 -16.333 -165.999 -49s-62 -79.667 -62 -141zM427 780
l130 -163h-78l-111 122l-109 -122h-78l130 163h116z" />
    <glyph glyph-name="otilde" unicode="&#xf5;" horiz-adv-x="739" 
d="M687 264c0 -85.333 -28.833 -152.166 -86.5 -200.499s-134.5 -72.5 -230.5 -72.5c-96.667 0 -173.834 24.167 -231.501 72.5s-86.5 115.166 -86.5 200.499s28.833 152.166 86.5 200.499s134.5 72.5 230.5 72.5c96.667 0 173.834 -24.167 231.501 -72.5
s86.5 -115.166 86.5 -200.499zM141 264c0 -61.333 20.667 -108.333 62 -141s97 -49 167 -49c69.333 0 124.666 16.333 165.999 49s62 79.667 62 141s-20.667 108.333 -62 141s-97 49 -167 49c-69.333 0 -124.666 -16.333 -165.999 -49s-62 -79.667 -62 -141zM232 647l-67 18
c6.66699 36.667 19.834 66.5 39.501 89.5s45.5 34.5 77.5 34.5c22 0 52.167 -12.167 90.5 -36.5s65.833 -36.5 82.5 -36.5c28.667 0 46.334 23.333 53.001 70l67 -18c-6.66699 -36 -19.834 -65.833 -39.501 -89.5s-44.834 -35.5 -75.501 -35.5
c-22.667 0 -53.167 12.333 -91.5 37s-66.166 37 -83.499 37c-28.667 0 -46.334 -23.333 -53.001 -70z" />
    <glyph glyph-name="odieresis" unicode="&#xf6;" horiz-adv-x="739" 
d="M687 264c0 -85.333 -28.833 -152.166 -86.5 -200.499s-134.5 -72.5 -230.5 -72.5c-96.667 0 -173.834 24.167 -231.501 72.5s-86.5 115.166 -86.5 200.499s28.833 152.166 86.5 200.499s134.5 72.5 230.5 72.5c96.667 0 173.834 -24.167 231.501 -72.5
s86.5 -115.166 86.5 -200.499zM141 264c0 -61.333 20.667 -108.333 62 -141s97 -49 167 -49c69.333 0 124.666 16.333 165.999 49s62 79.667 62 141s-20.667 108.333 -62 141s-97 49 -167 49c-69.333 0 -124.666 -16.333 -165.999 -49s-62 -79.667 -62 -141zM244 643v95h83
v-95h-83zM412 643v95h83v-95h-83z" />
    <glyph glyph-name="divide" unicode="&#xf7;" horiz-adv-x="584" 
d="M86 278v74h412v-74h-412zM334 110h-85v96h85v-96zM334 424h-85v96h85v-96z" />
    <glyph glyph-name="oslash" unicode="&#xf8;" horiz-adv-x="739" 
d="M687 264c0 -85.333 -28.833 -152.166 -86.5 -200.499s-134.5 -72.5 -230.5 -72.5c-40 0 -79.333 5 -118 15l-34 -58h-66l45 78c-96.667 46 -145 125.333 -145 238c0 85.333 28.833 152.166 86.5 200.499s134.5 72.5 230.5 72.5c42.667 0 82 -5 118 -15l34 58h66l-46 -78
c46 -22 81.833 -53.333 107.5 -94s38.5 -88.667 38.5 -144zM141 264c0 -77.333 33 -132 99 -164l203 346c-24.667 5.33301 -49.334 8 -74.001 8c-69.333 0 -124.666 -16.333 -165.999 -49s-62 -79.667 -62 -141zM598 264c0 76 -32.999 130.333 -98.999 163l-203 -345
c19.333 -5.33301 44 -8 74 -8c69.333 0 124.666 16.333 165.999 49s62 79.667 62 141z" />
    <glyph glyph-name="ugrave" unicode="&#xf9;" horiz-adv-x="754" 
d="M168 529l-0.000976562 -297c0 -51.333 16.167 -90.333 48.5 -117s77.833 -40 136.5 -40c64 0 116.833 16.333 158.5 49s62.834 78 63.501 136v269h88v-529h-88v102c-50 -73.333 -130.667 -110 -242 -110c-77.333 0 -138.833 20.167 -184.5 60.5s-68.5 95.5 -68.5 165.5
v311h88zM345.999 617l-138 163h109l107 -163h-78z" />
    <glyph glyph-name="uacute" unicode="&#xfa;" horiz-adv-x="754" 
d="M168 529l-0.000976562 -297c0 -51.333 16.167 -90.333 48.5 -117s77.833 -40 136.5 -40c64 0 116.833 16.333 158.5 49s62.834 78 63.501 136v269h88v-529h-88v102c-50 -73.333 -130.667 -110 -242 -110c-77.333 0 -138.833 20.167 -184.5 60.5s-68.5 95.5 -68.5 165.5
v311h88zM534.999 781l-138 -163h-78l106 163h110z" />
    <glyph glyph-name="ucircumflex" unicode="&#xfb;" horiz-adv-x="754" 
d="M168 529l-0.000976562 -297c0 -51.333 16.167 -90.333 48.5 -117s77.833 -40 136.5 -40c64 0 116.833 16.333 158.5 49s62.834 78 63.501 136v269h88v-529h-88v102c-50 -73.333 -130.667 -110 -242 -110c-77.333 0 -138.833 20.167 -184.5 60.5s-68.5 95.5 -68.5 165.5
v311h88zM433.999 780l130 -163h-78l-111 122l-109 -122h-78l130 163h116z" />
    <glyph glyph-name="udieresis" unicode="&#xfc;" horiz-adv-x="754" 
d="M168 529l-0.000976562 -297c0 -51.333 16.167 -90.333 48.5 -117s77.833 -40 136.5 -40c64 0 116.833 16.333 158.5 49s62.834 78 63.501 136v269h88v-529h-88v102c-50 -73.333 -130.667 -110 -242 -110c-77.333 0 -138.833 20.167 -184.5 60.5s-68.5 95.5 -68.5 165.5
v311h88zM249.999 643v95h83v-95h-83zM417.999 643v95h83v-95h-83z" />
    <glyph glyph-name="yacute" unicode="&#xfd;" horiz-adv-x="696" 
d="M294 -72l27.001 52l-314 549h99l261 -455l226 455h96l-315 -623c-46 -90.667 -107 -136 -183 -136c-16.667 0 -33.334 2.33301 -50.001 7c-2.66699 15.333 -8.33398 44 -17.001 86c18.667 -4.66699 36.334 -7 53.001 -7c50 0 89 24 117 72zM518.001 781l-138 -163h-78
l106 163h110z" />
    <glyph glyph-name="thorn" unicode="&#xfe;" horiz-adv-x="761" 
d="M709 264c0 -85.333 -26.501 -152.168 -79.501 -200.501s-123.833 -72.5 -212.5 -72.5c-109.333 0 -188.666 35 -237.999 105v-317h-88v971h88v-319c50 70.667 129.333 106 238 106c88.667 0 159.5 -24.167 212.5 -72.5s79.5 -115.166 79.5 -200.499zM179.999 263.998
c0 -60.667 20.167 -107.5 60.5 -140.5s93.833 -49.5 160.5 -49.5s119.834 16.5 159.501 49.5s59.5 79.833 59.5 140.5s-19.833 107.5 -59.5 140.5s-92.834 49.5 -159.501 49.5s-120.167 -16.5 -160.5 -49.5s-60.5 -79.833 -60.5 -140.5z" />
    <glyph glyph-name="ydieresis" unicode="&#xff;" horiz-adv-x="696" 
d="M294 -72l27.001 52l-314 549h99l261 -455l226 455h96l-315 -623c-46 -90.667 -107 -136 -183 -136c-16.667 0 -33.334 2.33301 -50.001 7c-2.66699 15.333 -8.33398 44 -17.001 86c18.667 -4.66699 36.334 -7 53.001 -7c50 0 89 24 117 72zM225.001 643v95h83v-95h-83z
M393.001 643v95h83v-95h-83z" />
    <glyph glyph-name="Abreve" unicode="&#x102;" horiz-adv-x="846" 
d="M478 700l356 -700h-98l-135 263h-359l-134 -263h-96l355 700h111zM422 616l-140 -272h279zM425 739c-92 0 -159.333 40.667 -202 122l63 26c13.333 -24 32.333 -43.333 57 -58s52 -22 82 -22s57.5 7.33301 82.5 22s44.167 34 57.5 58l62 -26
c-42.667 -81.333 -110 -122 -202 -122z" />
    <glyph glyph-name="abreve" unicode="&#x103;" 
d="M549 105c-1.33301 6.66699 -2 11.668 -2 15.001c-26.667 -40.667 -64.5 -72.167 -113.5 -94.5s-103.5 -33.5 -163.5 -33.5c-62 0 -111.833 15 -149.5 45s-56.5 67.667 -56.5 113c0 31.333 8.83301 58.666 26.5 81.999s40 41.5 67 54.5s60.833 23.5 101.5 31.5
s80.167 13.167 118.5 15.5s81.5 3.5 129.5 3.5h29c-12 78 -76.333 117 -193 117c-41.333 0 -80.833 -7.16699 -118.5 -21.5s-67.5 -33.5 -89.5 -57.5l-55 68c30.667 28 71.5 50.667 122.5 68s101.167 26 150.5 26c87.333 0 155 -20.167 203 -60.5s72 -101.833 72 -184.5
v-127c0 -33.333 4.66699 -56.5 14 -69.5s24.333 -19.5 45 -19.5c24 0 43.333 2.66699 58 8l-15 -82c-16 -5.33301 -36.667 -8 -62 -8c-71.333 0 -111 37 -119 111zM540 251.001v18.001c-34.667 0 -65 -0.333008 -91 -1s-55 -2.16699 -87 -4.5s-59 -6.16602 -81 -11.499
s-43 -11.833 -63 -19.5s-35 -17.834 -45 -30.501s-15 -27.334 -15 -44.001c0 -28 11.833 -49.333 35.5 -64s53.167 -22 88.5 -22c68.667 0 128.167 16.167 178.5 48.5s76.833 75.833 79.5 130.5zM373 615.002c-92 0 -159.333 40.667 -202 122l63 26
c13.333 -24 32.333 -43.333 57 -58s52 -22 82 -22s57.5 7.33301 82.5 22s44.167 34 57.5 58l62 -26c-42.667 -81.333 -110 -122 -202 -122z" />
    <glyph glyph-name="Aogonek" unicode="&#x104;" horiz-adv-x="846" 
d="M478 700l356 -700h-98l-135 263h-359l-134 -263h-96l355 700h111zM422 616l-140 -272h279zM830 6c-40 -8.66699 -75.667 -25.667 -107 -51s-47 -53 -47 -83c0 -20.667 6.33301 -36.334 19 -47.001s29 -16 49 -16c30.667 0 60 8.66699 88 26l-12 -65
c-25.333 -14 -54.333 -21 -87 -21c-34.667 0 -64.167 9.66699 -88.5 29s-36.5 46 -36.5 80c0 40.667 17 77.334 51 110.001s74.667 56 122 70z" />
    <glyph glyph-name="aogonek" unicode="&#x105;" 
d="M549 105c-1.33301 6.66699 -2 11.668 -2 15.001c-26.667 -40.667 -64.5 -72.167 -113.5 -94.5s-103.5 -33.5 -163.5 -33.5c-62 0 -111.833 15 -149.5 45s-56.5 67.667 -56.5 113c0 31.333 8.83301 58.666 26.5 81.999s40 41.5 67 54.5s60.833 23.5 101.5 31.5
s80.167 13.167 118.5 15.5s81.5 3.5 129.5 3.5h29c-12 78 -76.333 117 -193 117c-41.333 0 -80.833 -7.16699 -118.5 -21.5s-67.5 -33.5 -89.5 -57.5l-55 68c30.667 28 71.5 50.667 122.5 68s101.167 26 150.5 26c87.333 0 155 -20.167 203 -60.5s72 -101.833 72 -184.5
v-127c0 -33.333 4.66699 -56.5 14 -69.5s24.333 -19.5 45 -19.5c24 0 43.333 2.66699 58 8l-15 -82c-16 -5.33301 -36.667 -8 -62 -8c-71.333 0 -111 37 -119 111zM540 251.001v18.001c-34.667 0 -65 -0.333008 -91 -1s-55 -2.16699 -87 -4.5s-59 -6.16602 -81 -11.499
s-43 -11.833 -63 -19.5s-35 -17.834 -45 -30.501s-15 -27.334 -15 -44.001c0 -28 11.833 -49.333 35.5 -64s53.167 -22 88.5 -22c68.667 0 128.167 16.167 178.5 48.5s76.833 75.833 79.5 130.5zM714 6.00195c-40 -8.66699 -75.667 -25.667 -107 -51s-47 -53 -47 -83
c0 -20.667 6.33301 -36.334 19 -47.001s29 -16 49 -16c30.667 0 60 8.66699 88 26l-12 -65c-25.333 -14 -54.333 -21 -87 -21c-34.667 0 -64.167 9.66699 -88.5 29s-36.5 46 -36.5 80c0 40.667 17 77.334 51 110.001s74.667 56 122 70z" />
    <glyph glyph-name="Cacute" unicode="&#x106;" horiz-adv-x="847" 
d="M809 557l-75 -53c-26.667 38.667 -64 68.167 -112 88.5s-103 30.5 -165 30.5c-97.333 0 -175.5 -23.833 -234.5 -71.5s-88.5 -115.167 -88.5 -202.5c0 -86.667 29.5 -154 88.5 -202s137.167 -72 234.5 -72c63.333 0 119.5 10.5 168.5 31.5s86.833 51.5 113.5 91.5l74 -52
c-34.667 -50 -82.667 -88.333 -144 -115s-132 -40 -212 -40c-126 0 -226.5 31.5 -301.5 94.5s-112.5 150.833 -112.5 263.5s37.5 200.5 112.5 263.5s175.5 94.5 301.5 94.5c164 0 281.333 -50 352 -150zM626 903l-138 -163h-78l106 163h110z" />
    <glyph glyph-name="cacute" unicode="&#x107;" horiz-adv-x="680" 
d="M578 160l71.001 -49.998c-27.333 -38 -64.833 -67.333 -112.5 -88s-102.167 -31 -163.5 -31c-98 0 -176 24.167 -234 72.5s-87 115.166 -87 200.499s29 152.166 87 200.499s135.333 72.5 232 72.5c61.333 0 115.666 -10 162.999 -30s84.333 -48.667 111 -86l-72 -52
c-38.667 56.667 -106 85 -202 85c-69.333 0 -125 -16.5 -167 -49.5s-63 -79.833 -63 -140.5s21.167 -107.5 63.5 -140.5s98.5 -49.5 168.5 -49.5c96.667 0 165 28.667 205 86zM526.001 781.002l-138 -163h-78l106 163h110z" />
    <glyph glyph-name="Ccaron" unicode="&#x10c;" horiz-adv-x="847" 
d="M809 557l-75 -53c-26.667 38.667 -64 68.167 -112 88.5s-103 30.5 -165 30.5c-97.333 0 -175.5 -23.833 -234.5 -71.5s-88.5 -115.167 -88.5 -202.5c0 -86.667 29.5 -154 88.5 -202s137.167 -72 234.5 -72c63.333 0 119.5 10.5 168.5 31.5s86.833 51.5 113.5 91.5l74 -52
c-34.667 -50 -82.667 -88.333 -144 -115s-132 -40 -212 -40c-126 0 -226.5 31.5 -301.5 94.5s-112.5 150.833 -112.5 263.5s37.5 200.5 112.5 263.5s175.5 94.5 301.5 94.5c164 0 281.333 -50 352 -150zM345 903l110 -122l111 122h77l-129 -163h-117l-130 163h78z" />
    <glyph glyph-name="ccaron" unicode="&#x10d;" horiz-adv-x="680" 
d="M578 160l71.001 -49.998c-27.333 -38 -64.833 -67.333 -112.5 -88s-102.167 -31 -163.5 -31c-98 0 -176 24.167 -234 72.5s-87 115.166 -87 200.499s29 152.166 87 200.499s135.333 72.5 232 72.5c61.333 0 115.666 -10 162.999 -30s84.333 -48.667 111 -86l-72 -52
c-38.667 56.667 -106 85 -202 85c-69.333 0 -125 -16.5 -167 -49.5s-63 -79.833 -63 -140.5s21.167 -107.5 63.5 -140.5s98.5 -49.5 168.5 -49.5c96.667 0 165 28.667 205 86zM238.001 780.002l110 -122l111 122h77l-129 -163h-117l-130 163h78z" />
    <glyph glyph-name="Dcaron" unicode="&#x10e;" horiz-adv-x="899" 
d="M855 348c0 -110.667 -37.1689 -196.333 -111.502 -257s-174.166 -91 -299.499 -91h-329v700h329c124.667 0 224.334 -31.167 299.001 -93.5s112 -148.5 112 -258.5zM763.998 348.001c0 84.667 -29.333 150.5 -88 197.5s-136 70.5 -232 70.5h-239v-532h248
c94 1.33301 169.333 24.833 226 70.5s85 110.167 85 193.5zM334.998 903.001l110 -122l111 122h77l-129 -163h-117l-130 163h78z" />
    <glyph glyph-name="dcaron" unicode="&#x10f;" horiz-adv-x="850" 
d="M52 264c0 86 26.666 153 79.999 201s124.333 72 213 72c108.667 0 187.667 -35 237 -105v318h88v-750h-88v97c-49.333 -70 -128.666 -105 -237.999 -105c-88.667 0 -159.5 24 -212.5 72s-79.5 114.667 -79.5 200zM580.999 264c0 60.667 -20.167 107.5 -60.5 140.5
s-93.833 49.5 -160.5 49.5s-119.834 -16.5 -159.501 -49.5s-59.5 -79.833 -59.5 -140.5s19.833 -107.5 59.5 -140.5s92.834 -49.5 159.501 -49.5s120.167 16.5 160.5 49.5s60.5 79.833 60.5 140.5zM758.999 653v97h96v-106c0 -98 -29.667 -147 -89 -147
c-9.33301 0 -16 1.33301 -20 4l-12 61c4 -2 9.33301 -3 16 -3c26 0 39 28.333 39 85v9h-30z" />
    <glyph glyph-name="Dcroat" unicode="&#x110;" horiz-adv-x="896" 
d="M43 323v86.001h69v291h328c124.667 0 224.5 -31.167 299.5 -93.5s112.5 -148.5 112.5 -258.5c0 -110.667 -37.333 -196.334 -112 -257.001s-174.667 -91 -300 -91h-328v323h-69zM761 349.001c0 84.667 -29.332 150.333 -87.999 197s-136.334 70 -233.001 70h-239v-207
h202v-86h-202v-239h241c96 0 173.167 23.167 231.5 69.5s87.5 111.5 87.5 195.5z" />
    <glyph glyph-name="dcroat" unicode="&#x111;" horiz-adv-x="764" 
d="M462 590v80.001h120v80h88v-80h42v-80h-42v-590h-88v97c-49.333 -70 -128.666 -105 -237.999 -105c-88.667 0 -159.5 24 -212.5 72s-79.5 114.667 -79.5 200s26.5 152.166 79.5 200.499s123.833 72.5 212.5 72.5c109.333 0 188.666 -35 237.999 -105v158h-120z
M581 264.001c0 60.667 -20.167 107.5 -60.5 140.5s-93.833 49.5 -160.5 49.5s-119.834 -16.5 -159.501 -49.5s-59.5 -79.833 -59.5 -140.5s19.833 -107.5 59.5 -140.5s92.834 -49.5 159.501 -49.5s120.167 16.5 160.5 49.5s60.5 79.833 60.5 140.5z" />
    <glyph glyph-name="Eogonek" unicode="&#x118;" horiz-adv-x="807" 
d="M721 0h-606v700h602v-84h-512v-177h471v-84h-471v-271h516v-84zM719 6c-40 -8.66699 -75.667 -25.667 -107 -51s-47 -53 -47 -83c0 -20.667 6.33301 -36.334 19 -47.001s29 -16 49 -16c30.667 0 60 8.66699 88 26l-12 -65c-25.333 -14 -54.333 -21 -87 -21
c-34.667 0 -64.167 9.66699 -88.5 29s-36.5 46 -36.5 80c0 40.667 17 77.334 51 110.001s74.667 56 122 70z" />
    <glyph glyph-name="eogonek" unicode="&#x119;" horiz-adv-x="730" 
d="M595 48c-112.667 -60 -169 -118.666 -169 -175.999c0 -20.667 6.33301 -36.334 19 -47.001s29 -16 49 -16c30.667 0 60 8.66699 88 26l-12 -65c-25.333 -14 -54.333 -21 -87 -21c-34.667 0 -64.167 9.66699 -88.5 29s-36.5 46 -36.5 80c0 46 18.333 88 55 126
s81 70 133 96zM52 264.001c0 85.333 28.6689 152.167 86.002 200.5s133.333 72.5 228 72.5c95.333 0 171.666 -24 228.999 -72s86 -114.667 86 -200v-18h-539c4 -55.333 27.5 -98 70.5 -128s98.5 -45 166.5 -45c48.667 0 92.167 8.16699 130.5 24.5s66.5 39.5 84.5 69.5
l72 -50c-26 -40 -64.333 -71 -115 -93s-108 -33 -172 -33c-100.667 0 -180.334 24 -239.001 72s-88 114.667 -88 200zM583.002 319.002c-10.667 44 -35.334 77.667 -74.001 101s-86.334 35 -143.001 35c-57.333 0 -105.166 -11.667 -143.499 -35s-63.166 -57 -74.499 -101
h435z" />
    <glyph glyph-name="Ecaron" unicode="&#x11a;" horiz-adv-x="807" 
d="M721 0h-606v700h602v-84h-512v-177h471v-84h-471v-271h516v-84zM315 903l110 -122l111 122h77l-129 -163h-117l-130 163h78z" />
    <glyph glyph-name="ecaron" unicode="&#x11b;" horiz-adv-x="730" 
d="M52 264c0 85.333 28.6689 152.167 86.002 200.5s133.333 72.5 228 72.5c95.333 0 171.666 -24 228.999 -72s86 -114.667 86 -200v-18h-539c4 -55.333 27.5 -98 70.5 -128s98.5 -45 166.5 -45c48.667 0 92.167 8.16699 130.5 24.5s66.5 39.5 84.5 69.5l72 -50
c-26 -40 -64.333 -71 -115 -93s-108 -33 -172 -33c-100.667 0 -180.334 24 -239.001 72s-88 114.667 -88 200zM583.002 319.001c-10.667 44 -35.334 77.667 -74.001 101s-86.334 35 -143.001 35c-57.333 0 -105.166 -11.667 -143.499 -35s-63.166 -57 -74.499 -101h435z
M256.002 780.001l110 -122l111 122h77l-129 -163h-117l-130 163h78z" />
    <glyph glyph-name="dotlessi" unicode="&#x131;" horiz-adv-x="270" 
d="M91 0v529h88v-529h-88z" />
    <glyph glyph-name="Lacute" unicode="&#x139;" 
d="M115 0v700h90v-616h501v-84h-591zM339 904l-138 -163h-78l106 163h110z" />
    <glyph glyph-name="lacute" unicode="&#x13a;" horiz-adv-x="273" 
d="M91 0v750h88v-750h-88zM309 937l-138 -163h-78l106 163h110z" />
    <glyph glyph-name="Lcaron" unicode="&#x13d;" 
d="M115 0v700h90v-616h501v-84h-591zM314 653v97h96v-106c0 -98 -29.667 -147 -89 -147c-9.33301 0 -16 1.33301 -20 4l-12 61c4 -2 9.33301 -3 16 -3c26 0 39 28.333 39 85v9h-30z" />
    <glyph glyph-name="lcaron" unicode="&#x13e;" horiz-adv-x="358" 
d="M91 0v750h88v-750h-88zM267 653v97h96v-106c0 -98 -29.667 -147 -89 -147c-9.33301 0 -16 1.33301 -20 4l-12 61c4 -2 9.33301 -3 16 -3c26 0 39 28.333 39 85v9h-30z" />
    <glyph glyph-name="Lslash" unicode="&#x141;" horiz-adv-x="752" 
d="M43 278v75l82 38v309h90v-274l158 72v-75l-158 -72v-267h501v-84h-591v316z" />
    <glyph glyph-name="lslash" unicode="&#x142;" horiz-adv-x="289" 
d="M-3 286v75l103 52v336h88v-297l104 54v-75l-104 -54v-377h-88v338z" />
    <glyph glyph-name="Nacute" unicode="&#x143;" horiz-adv-x="944" 
d="M732 0l-527 575v-575h-90v700h98l527 -576v576h89v-700h-97zM642 906l-138 -163h-78l106 163h110z" />
    <glyph glyph-name="nacute" unicode="&#x144;" horiz-adv-x="755" 
d="M587 0l0.00195312 296c0 52 -16.167 91.333 -48.5 118s-77.833 40 -136.5 40c-64.667 0 -117.834 -15.833 -159.501 -47.5s-62.834 -76.167 -63.501 -133.5v-273h-88v529h88v-103c49.333 74 130.333 111 243 111c77.333 0 138.833 -20.167 184.5 -60.5
s68.5 -95.833 68.5 -166.5v-310h-88zM556.002 781l-138 -163h-78l106 163h110z" />
    <glyph glyph-name="Ncaron" unicode="&#x147;" horiz-adv-x="944" 
d="M732 0l-527 575v-575h-90v700h98l527 -576v576h89v-700h-97zM371 903l110 -122l111 122h77l-129 -163h-117l-130 163h78z" />
    <glyph glyph-name="ncaron" unicode="&#x148;" horiz-adv-x="755" 
d="M587 0l0.00195312 296c0 52 -16.167 91.333 -48.5 118s-77.833 40 -136.5 40c-64.667 0 -117.834 -15.833 -159.501 -47.5s-62.834 -76.167 -63.501 -133.5v-273h-88v529h88v-103c49.333 74 130.333 111 243 111c77.333 0 138.833 -20.167 184.5 -60.5
s68.5 -95.833 68.5 -166.5v-310h-88zM267.002 780l110 -122l111 122h77l-129 -163h-117l-130 163h78z" />
    <glyph glyph-name="Ohungarumlaut" unicode="&#x150;" horiz-adv-x="915" 
d="M43 349c0 112.667 37.5 200.5 112.5 263.5s175.5 94.5 301.5 94.5s226.5 -31.5 301.5 -94.5s112.5 -150.833 112.5 -263.5s-37.5 -200.5 -112.5 -263.5s-175.5 -94.5 -301.5 -94.5s-226.5 31.5 -301.5 94.5s-112.5 150.833 -112.5 263.5zM457 623
c-97.333 0 -175.5 -24 -234.5 -72s-88.5 -115.333 -88.5 -202c0 -87.333 29.5 -154.833 88.5 -202.5s137.167 -71.5 234.5 -71.5s175.5 23.833 234.5 71.5s88.5 115.167 88.5 202.5c0 86.667 -29.5 154 -88.5 202s-137.167 72 -234.5 72zM541 905l-128 -162h-66l104 162h90z
M694 905l-128 -162h-67l105 162h90z" />
    <glyph glyph-name="ohungarumlaut" unicode="&#x151;" horiz-adv-x="739" 
d="M687 264c0 -85.333 -28.833 -152.166 -86.5 -200.499s-134.5 -72.5 -230.5 -72.5c-96.667 0 -173.834 24.167 -231.501 72.5s-86.5 115.166 -86.5 200.499s28.833 152.166 86.5 200.499s134.5 72.5 230.5 72.5c96.667 0 173.834 -24.167 231.501 -72.5
s86.5 -115.166 86.5 -200.499zM141 264c0 -61.333 20.667 -108.333 62 -141s97 -49 167 -49c69.333 0 124.666 16.333 165.999 49s62 79.667 62 141s-20.667 108.333 -62 141s-97 49 -167 49c-69.333 0 -124.666 -16.333 -165.999 -49s-62 -79.667 -62 -141zM437 780
l-128 -162h-66l104 162h90zM590 780l-128 -162h-67l105 162h90z" />
    <glyph glyph-name="OE" unicode="&#x152;" horiz-adv-x="1307" 
d="M43 349c0 112.667 37.5 200.5 112.5 263.5s175.5 94.5 301.5 94.5c61.333 0 119 -8.33301 173 -25v18h587v-84h-498v-177h456v-84h-456v-271h502v-84h-591v15c-52 -16 -109.667 -24 -173 -24c-126 0 -226.5 31.5 -301.5 94.5s-112.5 150.833 -112.5 263.5zM134 349
c0 -87.333 29.5 -154.833 88.5 -202.5s137.167 -71.5 234.5 -71.5c67.333 0 125 12 173 36v475c-49.333 24.667 -107 37 -173 37c-97.333 0 -175.5 -24 -234.5 -72s-88.5 -115.333 -88.5 -202z" />
    <glyph glyph-name="oe" unicode="&#x153;" horiz-adv-x="1214" 
d="M1078 168l71 -49.999c-26 -40 -64.333 -71 -115 -93s-108 -33 -172 -33c-108.667 0 -192 27.333 -250 82c-56.667 -54.667 -137.334 -82 -242.001 -82c-96.667 0 -173.834 24 -231.501 72s-86.5 114.667 -86.5 200s28.833 152.166 86.5 200.499s134.5 72.5 230.5 72.5
c103.333 0 184 -27.333 242 -82c56.667 54.667 136.334 82 239.001 82c98.667 0 175.834 -25.5 231.501 -76.5s83.5 -122.167 83.5 -213.5h-540c4.66699 -55.333 28.334 -98 71.001 -128s98 -45 166 -45c45.333 0 88.166 8.33301 128.499 25s69.5 39.667 87.5 69z
M141 264.001c0 -61.333 20.666 -108.332 61.999 -140.999s97 -49 167 -49c46 0 86.167 9 120.5 27s58.5 43 72.5 75c-18 23.333 -27 52.666 -27 87.999c0 34.667 9 63.667 27 87c-13.333 33.333 -37 58.833 -71 76.5s-75 26.5 -123 26.5
c-69.333 0 -124.666 -16.333 -165.999 -49s-62 -79.667 -62 -141zM1066 321.002c-11.333 43.333 -36 76.5 -74 99.5s-85.333 34.5 -142 34.5c-57.333 0 -105 -11.333 -143 -34s-62.667 -56 -74 -100h433z" />
    <glyph glyph-name="Racute" unicode="&#x154;" horiz-adv-x="861" 
d="M719 0l-287 340.998h-227v-341h-90v700h446c62 0 111.833 -16.167 149.5 -48.5s56.5 -76.166 56.5 -131.499c0 -54.667 -19.333 -96.167 -58 -124.5s-88 -44.166 -148 -47.499l-17 -1l289 -347h-114zM677 519.998c0 64 -47.667 96 -143 96h-329v-191h329
c95.333 0 143 31.667 143 95zM567 905.998l-138 -163h-78l106 163h110z" />
    <glyph glyph-name="racute" unicode="&#x155;" horiz-adv-x="483" 
d="M179 263v-263h-88v529h88v-103c48 74 123.333 111 226 111c17.333 0 36 -0.666992 56 -2l16 -99c-19.333 7.33301 -45.333 11 -78 11c-66.667 0 -120 -15.667 -160 -47s-60 -77 -60 -137zM434 781l-138 -163h-78l106 163h110z" />
    <glyph glyph-name="Rcaron" unicode="&#x158;" horiz-adv-x="861" 
d="M719 0l-287 340.998h-227v-341h-90v700h446c62 0 111.833 -16.167 149.5 -48.5s56.5 -76.166 56.5 -131.499c0 -54.667 -19.333 -96.167 -58 -124.5s-88 -44.166 -148 -47.499l-17 -1l289 -347h-114zM677 519.998c0 64 -47.667 96 -143 96h-329v-191h329
c95.333 0 143 31.667 143 95zM302 902.998l110 -122l111 122h77l-129 -163h-117l-130 163h78z" />
    <glyph glyph-name="rcaron" unicode="&#x159;" horiz-adv-x="486" 
d="M182 263v-263h-88v529h88v-103c48 74 123.333 111 226 111c17.333 0 36 -0.666992 56 -2l16 -99c-19.333 7.33301 -45.333 11 -78 11c-66.667 0 -120 -15.667 -160 -47s-60 -77 -60 -137zM169 780l110 -122l111 122h77l-129 -163h-117l-130 163h78z" />
    <glyph glyph-name="Sacute" unicode="&#x15a;" horiz-adv-x="871" 
d="M800 561l-75.998 -53c-28 36 -69.667 64.333 -125 85s-115.333 31 -180 31c-68 0 -124.667 -10.667 -170 -32s-68 -49.666 -68 -84.999c0 -18 5.66699 -32.833 17 -44.5s30 -21.334 56 -29.001s54.667 -13.667 86 -18s72.666 -8.5 123.999 -12.5
c108.667 -8.66699 193.167 -28 253.5 -58s90.5 -76.333 90.5 -139c0 -49.333 -16.667 -90.666 -50 -123.999s-75.833 -56.833 -127.5 -70.5s-110.834 -20.5 -177.501 -20.5c-87.333 0 -169.333 15.167 -246 45.5s-132.334 70.166 -167.001 119.499l75 53
c28 -40.667 74.667 -73.334 140 -98.001s133.333 -37 204 -37c171.333 0 257 43.333 257 130c0 19.333 -6.5 35.833 -19.5 49.5s-32.667 24.667 -59 33s-54.666 15 -84.999 20s-67.5 9.5 -111.5 13.5c-57.333 4.66699 -106.5 10.834 -147.5 18.501s-77.833 18.5 -110.5 32.5
s-57 32 -73 54s-24 48 -24 78c0 62 31.5 111.667 94.5 149s142.5 56 238.5 56c81.333 0 156.333 -13 225 -39s120.667 -62 156 -108zM587.002 906l-138 -163h-78l106 163h110z" />
    <glyph glyph-name="sacute" unicode="&#x15b;" horiz-adv-x="679" 
d="M338 230c-38 2.66699 -71.499 6.50098 -100.499 11.501s-57.167 12.667 -84.5 23s-48.333 24.666 -63 42.999s-22 40.5 -22 66.5c0 51.333 23.167 91.333 69.5 120s111.833 43 196.5 43c58.667 0 114.334 -10.167 167.001 -30.5s94 -48.5 124 -84.5l-70 -50
c-24 28 -57.167 49.167 -99.5 63.5s-87.5 21.5 -135.5 21.5c-109.333 0 -164 -25 -164 -75c0 -25.333 17.5 -42.833 52.5 -52.5s91.5 -17.5 169.5 -23.5c37.333 -2.66699 70.333 -7 99 -13s56 -14.5 82 -25.5s46 -26.333 60 -46s21 -43.167 21 -70.5
c0 -52 -25.167 -91.667 -75.5 -119s-119.5 -41 -207.5 -41c-68.667 0 -133.334 11.167 -194.001 33.5s-106.334 52.5 -137.001 90.5l68 54c24 -28.667 62.667 -52 116 -70s108 -27 164 -27c116.667 0 175 26 175 78c0 26.667 -17.667 45.5 -53 56.5s-88 18.833 -158 23.5z
M498.001 781.001l-138 -163h-78l106 163h110z" />
    <glyph glyph-name="Scaron" unicode="&#x160;" horiz-adv-x="871" 
d="M800 561l-75.998 -53c-28 36 -69.667 64.333 -125 85s-115.333 31 -180 31c-68 0 -124.667 -10.667 -170 -32s-68 -49.666 -68 -84.999c0 -18 5.66699 -32.833 17 -44.5s30 -21.334 56 -29.001s54.667 -13.667 86 -18s72.666 -8.5 123.999 -12.5
c108.667 -8.66699 193.167 -28 253.5 -58s90.5 -76.333 90.5 -139c0 -49.333 -16.667 -90.666 -50 -123.999s-75.833 -56.833 -127.5 -70.5s-110.834 -20.5 -177.501 -20.5c-87.333 0 -169.333 15.167 -246 45.5s-132.334 70.166 -167.001 119.499l75 53
c28 -40.667 74.667 -73.334 140 -98.001s133.333 -37 204 -37c171.333 0 257 43.333 257 130c0 19.333 -6.5 35.833 -19.5 49.5s-32.667 24.667 -59 33s-54.666 15 -84.999 20s-67.5 9.5 -111.5 13.5c-57.333 4.66699 -106.5 10.834 -147.5 18.501s-77.833 18.5 -110.5 32.5
s-57 32 -73 54s-24 48 -24 78c0 62 31.5 111.667 94.5 149s142.5 56 238.5 56c81.333 0 156.333 -13 225 -39s120.667 -62 156 -108zM328.002 905l110 -122l111 122h77l-129 -163h-117l-130 163h78z" />
    <glyph glyph-name="scaron" unicode="&#x161;" horiz-adv-x="679" 
d="M338 230c-38 2.66699 -71.499 6.50098 -100.499 11.501s-57.167 12.667 -84.5 23s-48.333 24.666 -63 42.999s-22 40.5 -22 66.5c0 51.333 23.167 91.333 69.5 120s111.833 43 196.5 43c58.667 0 114.334 -10.167 167.001 -30.5s94 -48.5 124 -84.5l-70 -50
c-24 28 -57.167 49.167 -99.5 63.5s-87.5 21.5 -135.5 21.5c-109.333 0 -164 -25 -164 -75c0 -25.333 17.5 -42.833 52.5 -52.5s91.5 -17.5 169.5 -23.5c37.333 -2.66699 70.333 -7 99 -13s56 -14.5 82 -25.5s46 -26.333 60 -46s21 -43.167 21 -70.5
c0 -52 -25.167 -91.667 -75.5 -119s-119.5 -41 -207.5 -41c-68.667 0 -133.334 11.167 -194.001 33.5s-106.334 52.5 -137.001 90.5l68 54c24 -28.667 62.667 -52 116 -70s108 -27 164 -27c116.667 0 175 26 175 78c0 26.667 -17.667 45.5 -53 56.5s-88 18.833 -158 23.5z
M223.001 780.001l110 -122l111 122h77l-129 -163h-117l-130 163h78z" />
    <glyph glyph-name="Tcommaaccent" unicode="&#x162;" horiz-adv-x="771" 
d="M762 616h-332v-616h-89v616h-332v84h753v-84zM339 -137v97h96v-106c0 -98 -29.667 -147 -89 -147c-9.33301 0 -16 1.33301 -20 4l-12 61c4 -2 9.33301 -3 16 -3c26 0 39 28.333 39 85v9h-30z" />
    <glyph glyph-name="tcommaaccent" unicode="&#x163;" horiz-adv-x="395" 
d="M215 698l0.000976562 -178.999h138v-77h-138v-250c0 -44 5.66699 -74.5 17 -91.5s33.333 -25.5 66 -25.5c18.667 0 39.667 2.33301 63 7l-14 -81c-20 -4.66699 -42.333 -7 -67 -7c-56.667 0 -96.334 14.667 -119.001 44s-34 77.666 -34 144.999v259h-115v77h115v114z
M181.001 -136.999v97h96v-106c0 -98 -29.667 -147 -89 -147c-9.33301 0 -16 1.33301 -20 4l-12 61c4 -2 9.33301 -3 16 -3c26 0 39 28.333 39 85v9h-30z" />
    <glyph glyph-name="Tcaron" unicode="&#x164;" horiz-adv-x="771" 
d="M762 616h-332v-616h-89v616h-332v84h753v-84zM277 905l110 -122l111 122h77l-129 -163h-117l-130 163h78z" />
    <glyph glyph-name="tcaron" unicode="&#x165;" horiz-adv-x="494" 
d="M215 698l0.000976562 -178.999h138v-77h-138v-250c0 -44 5.66699 -74.5 17 -91.5s33.333 -25.5 66 -25.5c18.667 0 39.667 2.33301 63 7l-14 -81c-20 -4.66699 -42.333 -7 -67 -7c-56.667 0 -96.334 14.667 -119.001 44s-34 77.666 -34 144.999v259h-115v77h115v114z
M403.001 653.001v97h96v-106c0 -98 -29.667 -147 -89 -147c-9.33301 0 -16 1.33301 -20 4l-12 61c4 -2 9.33301 -3 16 -3c26 0 39 28.333 39 85v9h-30z" />
    <glyph glyph-name="Uring" unicode="&#x16e;" horiz-adv-x="884" 
d="M442 -9c-111.333 0 -197.333 29 -258 87s-91 141.667 -91 251v371h89v-322c0 -104 19.833 -180.5 59.5 -229.5s106.5 -73.5 200.5 -73.5s160.833 24.5 200.5 73.5s59.5 125.5 59.5 229.5v322h89v-371c0 -109.333 -30.333 -193 -91 -251s-146.667 -87 -258 -87zM441 715
c-42.667 0 -78.334 11.833 -107.001 35.5s-43 55.167 -43 94.5s14.333 70.833 43 94.5s64.334 35.5 107.001 35.5s78.334 -11.833 107.001 -35.5s43 -55.167 43 -94.5s-14.333 -70.833 -43 -94.5s-64.334 -35.5 -107.001 -35.5zM441 919c-25.333 0 -46 -6.5 -62 -19.5
s-24 -31.167 -24 -54.5s7.83301 -41.5 23.5 -54.5s36.5 -19.5 62.5 -19.5s46.833 6.5 62.5 19.5s23.5 31.167 23.5 54.5s-8 41.5 -24 54.5s-36.667 19.5 -62 19.5z" />
    <glyph glyph-name="uring" unicode="&#x16f;" horiz-adv-x="754" 
d="M168 529l-0.000976562 -297c0 -51.333 16.167 -90.333 48.5 -117s77.833 -40 136.5 -40c64 0 116.833 16.333 158.5 49s62.834 78 63.501 136v269h88v-529h-88v102c-50 -73.333 -130.667 -110 -242 -110c-77.333 0 -138.833 20.167 -184.5 60.5s-68.5 95.5 -68.5 165.5
v311h88zM374.999 575c-42.667 0 -78.334 11.833 -107.001 35.5s-43 55.167 -43 94.5s14.333 70.833 43 94.5s64.334 35.5 107.001 35.5s78.334 -11.833 107.001 -35.5s43 -55.167 43 -94.5s-14.333 -70.833 -43 -94.5s-64.334 -35.5 -107.001 -35.5zM374.999 779
c-25.333 0 -46 -6.5 -62 -19.5s-24 -31.167 -24 -54.5s7.83301 -41.5 23.5 -54.5s36.5 -19.5 62.5 -19.5s46.833 6.5 62.5 19.5s23.5 31.167 23.5 54.5s-8 41.5 -24 54.5s-36.667 19.5 -62 19.5z" />
    <glyph glyph-name="Uhungarumlaut" unicode="&#x170;" horiz-adv-x="884" 
d="M442 -9c-111.333 0 -197.333 29 -258 87s-91 141.667 -91 251v371h89v-322c0 -104 19.833 -180.5 59.5 -229.5s106.5 -73.5 200.5 -73.5s160.833 24.5 200.5 73.5s59.5 125.5 59.5 229.5v322h89v-371c0 -109.333 -30.333 -193 -91 -251s-146.667 -87 -258 -87zM515 905
l-128 -162h-66l104 162h90zM668 905l-128 -162h-67l105 162h90z" />
    <glyph glyph-name="uhungarumlaut" unicode="&#x171;" horiz-adv-x="754" 
d="M168 529l-0.000976562 -297c0 -51.333 16.167 -90.333 48.5 -117s77.833 -40 136.5 -40c64 0 116.833 16.333 158.5 49s62.834 78 63.501 136v269h88v-529h-88v102c-50 -73.333 -130.667 -110 -242 -110c-77.333 0 -138.833 20.167 -184.5 60.5s-68.5 95.5 -68.5 165.5
v311h88zM440.999 780l-128 -162h-66l104 162h90zM593.999 780l-128 -162h-67l105 162h90z" />
    <glyph glyph-name="Ydieresis" unicode="&#x178;" horiz-adv-x="861" 
d="M863 700l-328 -343l-61 -63v-294h-89v295l-387 405h119l316 -330l316 330h114zM307 758v95h83v-95h-83zM475 758v95h83v-95h-83z" />
    <glyph glyph-name="Zacute" unicode="&#x179;" horiz-adv-x="769" 
d="M737 0h-702v70l562 546h-515v84h644v-70l-563 -546h574v-84zM550 906l-138 -163h-78l106 163h110z" />
    <glyph glyph-name="zacute" unicode="&#x17a;" horiz-adv-x="655" 
d="M79 452v77h516v-59l-423 -393h443v-77h-571v59l423 393h-388zM482 781l-138 -163h-78l106 163h110z" />
    <glyph glyph-name="Zdotaccent" unicode="&#x17b;" horiz-adv-x="769" 
d="M737 0h-702v70l562 546h-515v84h644v-70l-563 -546h574v-84zM347 785v95h93v-95h-93z" />
    <glyph glyph-name="zdotaccent" unicode="&#x17c;" horiz-adv-x="655" 
d="M79 452v77h516v-59l-423 -393h443v-77h-571v59l423 393h-388zM281 643v95h93v-95h-93z" />
    <glyph glyph-name="Zcaron" unicode="&#x17d;" horiz-adv-x="769" 
d="M737 0h-702v70l562 546h-515v84h644v-70l-563 -546h574v-84zM290 905l110 -122l111 122h77l-129 -163h-117l-130 163h78z" />
    <glyph glyph-name="zcaron" unicode="&#x17e;" horiz-adv-x="655" 
d="M79 452v77h516v-59l-423 -393h443v-77h-571v59l423 393h-388zM217 780l110 -122l111 122h77l-129 -163h-117l-130 163h78z" />
    <glyph glyph-name="florin" unicode="&#x192;" horiz-adv-x="395" 
d="M54 440l0.00195312 78.998h99v40c0 126.667 50.333 190 151 190c25.333 0 46.666 -2.66699 63.999 -8c1.33301 -9.33301 3.66602 -23.166 6.99902 -41.499s5.66602 -32.166 6.99902 -41.499c-20 6 -40.333 9 -61 9c-29.333 0 -50 -8.16699 -62 -24.5
s-18 -44.166 -18 -83.499v-40h126v-79h-126v-480c0 -62 -12.5 -109.167 -37.5 -141.5s-61.5 -48.5 -109.5 -48.5c-21.333 0 -41.333 3.33301 -60 10c-6 39.333 -10.333 66.666 -13 81.999c20.667 -7.33301 40.334 -11 59.001 -11c26.667 0 45.5 8.5 56.5 25.5
s16.5 44.833 16.5 83.5v480h-99z" />
    <glyph glyph-name="Scommaaccent" unicode="&#x218;" horiz-adv-x="871" 
d="M800 561l-75.998 -53c-28 36 -69.667 64.333 -125 85s-115.333 31 -180 31c-68 0 -124.667 -10.667 -170 -32s-68 -49.666 -68 -84.999c0 -18 5.66699 -32.833 17 -44.5s30 -21.334 56 -29.001s54.667 -13.667 86 -18s72.666 -8.5 123.999 -12.5
c108.667 -8.66699 193.167 -28 253.5 -58s90.5 -76.333 90.5 -139c0 -49.333 -16.667 -90.666 -50 -123.999s-75.833 -56.833 -127.5 -70.5s-110.834 -20.5 -177.501 -20.5c-87.333 0 -169.333 15.167 -246 45.5s-132.334 70.166 -167.001 119.499l75 53
c28 -40.667 74.667 -73.334 140 -98.001s133.333 -37 204 -37c171.333 0 257 43.333 257 130c0 19.333 -6.5 35.833 -19.5 49.5s-32.667 24.667 -59 33s-54.666 15 -84.999 20s-67.5 9.5 -111.5 13.5c-57.333 4.66699 -106.5 10.834 -147.5 18.501s-77.833 18.5 -110.5 32.5
s-57 32 -73 54s-24 48 -24 78c0 62 31.5 111.667 94.5 149s142.5 56 238.5 56c81.333 0 156.333 -13 225 -39s120.667 -62 156 -108zM396.002 -137v97h96v-106c0 -98 -29.667 -147 -89 -147c-9.33301 0 -16 1.33301 -20 4l-12 61c4 -2 9.33301 -3 16 -3
c26 0 39 28.333 39 85v9h-30z" />
    <glyph glyph-name="scommaaccent" unicode="&#x219;" horiz-adv-x="679" 
d="M338 230c-38 2.66699 -71.499 6.50098 -100.499 11.501s-57.167 12.667 -84.5 23s-48.333 24.666 -63 42.999s-22 40.5 -22 66.5c0 51.333 23.167 91.333 69.5 120s111.833 43 196.5 43c58.667 0 114.334 -10.167 167.001 -30.5s94 -48.5 124 -84.5l-70 -50
c-24 28 -57.167 49.167 -99.5 63.5s-87.5 21.5 -135.5 21.5c-109.333 0 -164 -25 -164 -75c0 -25.333 17.5 -42.833 52.5 -52.5s91.5 -17.5 169.5 -23.5c37.333 -2.66699 70.333 -7 99 -13s56 -14.5 82 -25.5s46 -26.333 60 -46s21 -43.167 21 -70.5
c0 -52 -25.167 -91.667 -75.5 -119s-119.5 -41 -207.5 -41c-68.667 0 -133.334 11.167 -194.001 33.5s-106.334 52.5 -137.001 90.5l68 54c24 -28.667 62.667 -52 116 -70s108 -27 164 -27c116.667 0 175 26 175 78c0 26.667 -17.667 45.5 -53 56.5s-88 18.833 -158 23.5z
M302.001 -136.999v97h96v-106c0 -98 -29.667 -147 -89 -147c-9.33301 0 -16 1.33301 -20 4l-12 61c4 -2 9.33301 -3 16 -3c26 0 39 28.333 39 85v9h-30z" />
    <glyph glyph-name="circumflex" unicode="&#x2c6;" horiz-adv-x="553" 
d="M337 780l130 -163h-78l-111 122l-109 -122h-78l130 163h116z" />
    <glyph glyph-name="caron" unicode="&#x2c7;" horiz-adv-x="595" 
d="M166 780l110 -122l111 122h77l-129 -163h-117l-130 163h78z" />
    <glyph glyph-name="breve" unicode="&#x2d8;" horiz-adv-x="549" 
d="M277 615c-92 0 -159.333 40.667 -202 122l63 26c13.333 -24 32.333 -43.333 57 -58s52 -22 82 -22s57.5 7.33301 82.5 22s44.167 34 57.5 58l62 -26c-42.667 -81.333 -110 -122 -202 -122z" />
    <glyph glyph-name="dotaccent" unicode="&#x2d9;" horiz-adv-x="246" 
d="M83 643v95h93v-95h-93z" />
    <glyph glyph-name="ring" unicode="&#x2da;" horiz-adv-x="576" 
d="M288 580c-42.667 0 -78.334 11.833 -107.001 35.5s-43 55.167 -43 94.5s14.333 70.833 43 94.5s64.334 35.5 107.001 35.5s78.334 -11.833 107.001 -35.5s43 -55.167 43 -94.5s-14.333 -70.833 -43 -94.5s-64.334 -35.5 -107.001 -35.5zM288 784
c-25.333 0 -46 -6.5 -62 -19.5s-24 -31.167 -24 -54.5s7.83301 -41.5 23.5 -54.5s36.5 -19.5 62.5 -19.5s46.833 6.5 62.5 19.5s23.5 31.167 23.5 54.5s-8 41.5 -24 54.5s-36.667 19.5 -62 19.5z" />
    <glyph glyph-name="ogonek" unicode="&#x2db;" horiz-adv-x="584" 
d="M362 6c-40 -8.66699 -75.667 -25.667 -107 -51s-47 -53 -47 -83c0 -20.667 6.33301 -36.334 19 -47.001s29 -16 49 -16c30.667 0 60 8.66699 88 26l-12 -65c-25.333 -14 -54.333 -21 -87 -21c-34.667 0 -64.167 9.66699 -88.5 29s-36.5 46 -36.5 80
c0 40.667 17 77.334 51 110.001s74.667 56 122 70z" />
    <glyph glyph-name="tilde" unicode="&#x2dc;" horiz-adv-x="619" 
d="M172 647l-67 18c6.66699 36.667 19.834 66.5 39.501 89.5s45.5 34.5 77.5 34.5c22 0 52.167 -12.167 90.5 -36.5s65.833 -36.5 82.5 -36.5c28.667 0 46.334 23.333 53.001 70l67 -18c-6.66699 -36 -19.834 -65.833 -39.501 -89.5s-44.834 -35.5 -75.501 -35.5
c-22.667 0 -53.167 12.333 -91.5 37s-66.166 37 -83.499 37c-28.667 0 -46.334 -23.333 -53.001 -70z" />
    <glyph glyph-name="hungarumlaut" unicode="&#x2dd;" horiz-adv-x="526" 
d="M303 780l-128 -162h-66l104 162h90zM456 780l-128 -162h-67l105 162h90z" />
    <glyph glyph-name="afii10023" unicode="&#x401;" horiz-adv-x="807" 
d="M295 755v95h81v-95h-81zM468 755v95h82v-95h-82zM721 0h-606v700h602v-84h-512v-177h471v-84h-471v-271h516v-84z" />
    <glyph glyph-name="afii10051" unicode="&#x402;" horiz-adv-x="1002" 
d="M922 300l-0.00390625 -340.001c0 -65.333 -12.667 -113.166 -38 -143.499s-64.666 -45.5 -117.999 -45.5c-16 0 -33 3 -51 9l-13 82c20.667 -7.33301 40.334 -11 59.001 -11c26.667 0 45.5 8.5 56.5 25.5s16.5 44.833 16.5 83.5v323c0 52.667 -16.167 92.667 -48.5 120
s-78.166 41 -137.499 41c-65.333 0 -118.666 -16.167 -159.999 -48.5s-62.333 -77.833 -63 -136.5v-259h-89v616h-327v84h748v-84h-332v-200c49.333 74 130.333 111 243 111c77.333 0 139 -20.167 185 -60.5s69 -95.833 69 -166.5z" />
    <glyph glyph-name="afii10052" unicode="&#x403;" horiz-adv-x="711" 
d="M551 903l-138 -163h-78l106 163h110zM691 616h-486v-616h-90v700h576v-84z" />
    <glyph glyph-name="afii10053" unicode="&#x404;" horiz-adv-x="850" 
d="M809 556l-74.998 -53c-26.667 38.667 -64 68.334 -112 89.001s-103 31 -165 31c-80 0 -147.5 -16.667 -202.5 -50s-90.833 -81 -107.5 -143h392v-84h-403c0.666992 -86.667 31 -153.5 91 -200.5s137.333 -70.5 232 -70.5c63.333 0 119.666 10.667 168.999 32
s87.333 51.666 114 90.999l74 -52c-34 -50 -82 -88.167 -144 -114.5s-133 -39.5 -213 -39.5c-126 0 -226.833 31.5 -302.5 94.5s-113.5 150.5 -113.5 262.5c0 112.667 37.5 200.5 112.5 263.5s175.5 94.5 301.5 94.5c79.333 0 149.166 -13 209.499 -39
s107.833 -63.333 142.5 -112z" />
    <glyph glyph-name="afii10054" unicode="&#x405;" horiz-adv-x="872" 
d="M177 507c0 -33.333 21.6641 -56.501 64.9971 -69.501s117.333 -23.833 222 -32.5c52 -4 97.833 -10.333 137.5 -19s75.667 -20.667 108 -36s57 -35 74 -59s25.5 -52.333 25.5 -85c0 -49.333 -17.667 -90.666 -53 -123.999s-79.333 -56.833 -132 -70.5
s-112.667 -20.5 -180 -20.5c-86.667 0 -166.834 15.167 -240.501 45.5s-128.167 70.166 -163.5 119.499l75 53c28.667 -40.667 74 -73.167 136 -97.5s128 -36.5 198 -36.5c79.333 0 143.833 10.167 193.5 30.5s74.5 53.166 74.5 98.499c0 18.667 -6.66699 35 -20 49
s-32.833 25.5 -58.5 34.5s-54.167 16.167 -85.5 21.5s-68.666 9.66602 -111.999 12.999c-58.667 4.66699 -108.334 10.834 -149.001 18.501s-77.667 18.167 -111 31.5s-58.166 30.833 -74.499 52.5s-24.5 47.834 -24.5 78.501c0 61.333 32.333 110.833 97 148.5
s145.334 56.5 242.001 56.5c82.667 0 158.334 -13.5 227.001 -40.5s120.334 -64.167 155.001 -111.5l-76 -53c-27.333 38 -68.833 67.667 -124.5 89s-116.167 32 -181.5 32c-68.667 0 -126.5 -10.667 -173.5 -32s-70.5 -49.666 -70.5 -84.999z" />
    <glyph glyph-name="afii10055" unicode="&#x406;" horiz-adv-x="320" 
d="M115 0v700h90v-700h-90z" />
    <glyph glyph-name="afii10056" unicode="&#x407;" horiz-adv-x="320" 
d="M50 762v96h84v-96h-84zM185 762v96h84v-96h-84zM115 0v700h90v-700h-90z" />
    <glyph glyph-name="afii10057" unicode="&#x408;" horiz-adv-x="610" 
d="M23 269l81.998 43.999v-36c0 -64.667 15.333 -114.5 46 -149.5s74.334 -52.5 131.001 -52.5c120 0 180 71.667 180 215v326h-214v84h304v-410c0 -93.333 -23.667 -166.5 -71 -219.5s-113.666 -79.5 -198.999 -79.5c-77.333 0 -139.833 22.833 -187.5 68.5
s-71.5 106.834 -71.5 183.501v26z" />
    <glyph glyph-name="afii10058" unicode="&#x409;" horiz-adv-x="1338" 
d="M31 2l-14.0029 84c20.667 -7.33301 43.334 -11 68.001 -11s42.834 9.16699 54.501 27.5s19.167 47.833 22.5 88.5c12 149.333 18 319 18 509h565v-251h317c73.333 0 133 -20.5 179 -61.5s69 -95.5 69 -163.5s-23 -122.333 -69 -163s-105.667 -61 -179 -61h-407v616h-387
c-2.66699 -178 -8.66699 -323 -18 -435c-6 -63.333 -20.167 -110.5 -42.5 -141.5s-56.833 -46.5 -103.5 -46.5c-29.333 0 -53.666 3 -72.999 9zM1220 224c0 94 -62.333 141 -187 141h-288v-281h290c123.333 0 185 46.667 185 140z" />
    <glyph glyph-name="afii10059" unicode="&#x40a;" horiz-adv-x="1388" 
d="M706 0l-0.00195312 365h-501v-365h-90v700h90v-251h501v251h89v-251h317c18.667 0 35.334 -3 50.001 -9c60.667 -8.66699 108.834 -32 144.501 -70s53.5 -86.667 53.5 -146c0 -68 -22.833 -122.333 -68.5 -163s-105.5 -61 -179.5 -61h-406zM1270 224
c0 94 -62 141 -186 141h-289v-281h289c124 0 186 46.667 186 140z" />
    <glyph glyph-name="afii10060" unicode="&#x40b;" horiz-adv-x="1002" 
d="M834 0l0.00292969 286c0 51.333 -16.333 90.5 -49 117.5s-78.334 40.5 -137.001 40.5c-64.667 0 -117.834 -16.333 -159.501 -49s-62.834 -78 -63.501 -136v-259h-89v616h-327v84h748v-84h-332v-200c49.333 74 130.333 111 243 111c77.333 0 139 -20.167 185 -60.5
s69 -95.833 69 -166.5v-300h-88z" />
    <glyph glyph-name="afii10061" unicode="&#x40c;" horiz-adv-x="932" 
d="M596 903l-138 -163h-78l106 163h110zM682 181l-3.00293 35.001c-3.33301 41.333 -14.166 73.166 -32.499 95.499s-43.5 33.5 -75.5 33.5h-366v-345h-90v700h90v-271h347c32.667 0.666992 55.667 11.5 69 32.5s21 52.833 23 95.5c5.33301 100 51.333 150 138 150
c26 0 47.667 -2.66699 65 -8l15 -84c-20.667 6 -41 9 -61 9c-22.667 0 -39.167 -7.16699 -49.5 -21.5s-16.833 -36.833 -19.5 -67.5c-6 -67.333 -29.333 -114 -70 -140c62.667 -28.667 97.667 -86 105 -172l3 -32c4 -41.333 11.333 -71.166 22 -89.499s28 -27.5 52 -27.5
c22.667 0 44.334 3.66699 65.001 11l-14 -84c-19.333 -6 -42.666 -9 -69.999 -9c-46.667 0 -81 15.667 -103 47s-35.333 78.666 -40 141.999z" />
    <glyph glyph-name="afii10062" unicode="&#x40e;" horiz-adv-x="831" 
d="M438 731c-92 0 -159.333 40.667 -202 122l63 26c13.333 -24 32.333 -43.333 57 -58s52 -22 82 -22s57.5 7.33301 82.5 22s44.167 34 57.5 58l62 -26c-42.667 -81.333 -110 -122 -202 -122zM11 700h111.001l333 -480l286 480h102l-365 -606
c-40.667 -67.333 -93.334 -101 -158.001 -101c-44 0 -77.333 3 -100 9l-15 88c26 -8 57.667 -12 95 -12c47.333 0 82 20 104 60z" />
    <glyph glyph-name="afii10145" unicode="&#x40f;" horiz-adv-x="899" 
d="M205 700v-616h490v616h89v-700h-290v-165h-89v165h-290v700h90z" />
    <glyph glyph-name="afii10017" unicode="&#x410;" horiz-adv-x="846" 
d="M478 700l356 -700h-98l-135 263h-359l-134 -263h-96l355 700h111zM422 616l-140 -272h279z" />
    <glyph glyph-name="afii10018" unicode="&#x411;" horiz-adv-x="865" 
d="M808 217c0 -65.333 -22 -117.833 -66 -157.5s-100.667 -59.5 -170 -59.5h-457v700h621v-84h-531v-182h367c69.333 0 126 -19.833 170 -59.5s66 -92.167 66 -157.5zM716 217c0 88.667 -57.667 133 -173 133h-338v-266h339c114.667 0 172 44.333 172 133z" />
    <glyph glyph-name="afii10019" unicode="&#x412;" horiz-adv-x="885" 
d="M814 210c0 -62.667 -22.1689 -113.332 -66.502 -151.999s-100.166 -58 -167.499 -58h-465v700h438c62 0 112 -15.333 150 -46s57 -72.334 57 -125.001c0 -57.333 -24 -101 -72 -131c38.667 -16 69.334 -40.333 92.001 -73s34 -71 34 -115zM721.998 214.002
c0 40.667 -13.333 72.5 -40 95.5s-60.667 34.5 -102 34.5h-375v-260h375c41.333 0 75.333 11.5 102 34.5s40 54.833 40 95.5zM669.998 522.002c0 62.667 -47.667 94 -143 94h-322v-188h322c95.333 0 143 31.333 143 94z" />
    <glyph glyph-name="afii10020" unicode="&#x413;" horiz-adv-x="711" 
d="M691 616h-486v-616h-90v700h576v-84z" />
    <glyph glyph-name="afii10021" unicode="&#x414;" horiz-adv-x="891" 
d="M774 -165v165h-659v-165h-89v249h42c37.333 10 59 46.333 65 109c21.333 228 32 397 32 507h594v-616h104v-249h-89zM221 184c-4 -44.667 -13 -78 -27 -100h476v532h-419c-4.66699 -138 -14.667 -282 -30 -432z" />
    <glyph glyph-name="afii10022" unicode="&#x415;" horiz-adv-x="807" 
d="M721 0h-606v700h602v-84h-512v-177h471v-84h-471v-271h516v-84z" />
    <glyph glyph-name="afii10024" unicode="&#x416;" horiz-adv-x="1314" 
d="M70 615l14.9951 83.9971c17.333 5.33301 39 8 65 8c86.667 0 132.667 -50 138 -150c2 -42.667 9.5 -74.5 22.5 -95.5s35.833 -31.833 68.5 -32.5h233v271h90v-271h230c34 0.666992 57.667 11.334 71 32.001s21 52.667 23 96c5.33301 100 51.333 150 138 150
c26 0 47.667 -2.66699 65 -8l15 -84c-20.667 6 -41 9 -61 9c-40.667 0 -63.667 -29.667 -69 -89c-6 -66 -29.333 -112.667 -70 -140c61.333 -28 96.333 -85.333 105 -172l3 -32c4 -41.333 11.167 -71.166 21.5 -89.499s27.833 -27.5 52.5 -27.5
c22.667 0 44.334 3.66699 65.001 11l-14 -84c-19.333 -6 -42.666 -9 -69.999 -9c-46.667 0 -80.834 15.667 -102.501 47s-35.167 78.666 -40.5 141.999l-3 35c-3.33301 41.333 -14.166 73.166 -32.499 95.499s-43.5 33.5 -75.5 33.5h-251v-345h-90v345h-251
c-32 0 -57.167 -11.167 -75.5 -33.5s-29.166 -54.166 -32.499 -95.499l-3 -35c-5.33301 -63.333 -18.833 -110.666 -40.5 -141.999s-55.834 -47 -102.501 -47c-27.333 0 -50.666 3 -69.999 9l-14 84c20.667 -7.33301 42.334 -11 65.001 -11c24 0 41.333 9.33301 52 28
s18 48.334 22 89.001l3 32c8.66699 86.667 43.334 144 104.001 172c-40 26 -63 72.667 -69 140c-3.33301 32.667 -10 55.667 -20 69s-26.333 20 -49 20c-20 0 -40.333 -3 -61 -9z" />
    <glyph glyph-name="afii10025" unicode="&#x417;" horiz-adv-x="869" 
d="M719 217c0 85.333 -78.668 128.002 -236.001 128.002h-129v84h118c132 0 198 30 198 90c0 33.333 -19.833 59.166 -59.5 77.499s-93.5 27.5 -161.5 27.5c-140 0 -239.333 -40.333 -298 -121l-76 53c75.333 101.333 200.333 152 375 152c94.667 0 170 -15.5 226 -46.5
s84 -76.167 84 -135.5c0 -58 -33.667 -101.667 -101 -131c47.333 -16 84.5 -39.5 111.5 -70.5s40.5 -67.833 40.5 -110.5c0 -72 -32.667 -127.167 -98 -165.5s-151.666 -57.5 -258.999 -57.5c-88 0 -169.167 15.167 -243.5 45.5s-128.833 70.166 -163.5 119.499l74 53
c28.667 -41.333 74 -74 136 -98s129.667 -36 203 -36c78 0 140.333 11.5 187 34.5s70.667 58.833 72 107.5z" />
    <glyph glyph-name="afii10026" unicode="&#x418;" horiz-adv-x="948" 
d="M743 0v554l-538 -517v-37h-90v700h90v-554l538 516v38h90v-700h-90z" />
    <glyph glyph-name="afii10027" unicode="&#x419;" horiz-adv-x="948" 
d="M257 838l62 46c15.333 -24 36.833 -42.833 64.5 -56.5s58.5 -20.5 92.5 -20.5s65 6.83301 93 20.5s49.667 32.5 65 56.5l62 -46c-48 -70.667 -121.333 -106 -220 -106c-98 0 -171 35.333 -219 106zM743 0v554l-538 -517v-37h-90v700h90v-554l538 516v38h90v-700h-90z" />
    <glyph glyph-name="afii10028" unicode="&#x41a;" horiz-adv-x="932" 
d="M682 181l-3.00293 35.001c-3.33301 41.333 -14.166 73.166 -32.499 95.499s-43.5 33.5 -75.5 33.5h-366v-345h-90v700h90v-271h347c32.667 0.666992 55.667 11.5 69 32.5s21 52.833 23 95.5c5.33301 100 51.333 150 138 150c26 0 47.667 -2.66699 65 -8l15 -84
c-20.667 6 -41 9 -61 9c-22.667 0 -39.167 -7.16699 -49.5 -21.5s-16.833 -36.833 -19.5 -67.5c-6 -67.333 -29.333 -114 -70 -140c62.667 -28.667 97.667 -86 105 -172l3 -32c4 -41.333 11.333 -71.166 22 -89.499s28 -27.5 52 -27.5c22.667 0 44.334 3.66699 65.001 11
l-14 -84c-19.333 -6 -42.666 -9 -69.999 -9c-46.667 0 -81 15.667 -103 47s-35.333 78.666 -40 141.999z" />
    <glyph glyph-name="afii10029" unicode="&#x41b;" horiz-adv-x="870" 
d="M31 2l-14.0029 84c20.667 -7.33301 43.334 -11 68.001 -11s42.834 9.16699 54.501 27.5s19.167 47.833 22.5 88.5c12 149.333 18 319 18 509h575v-700h-90v616h-397c-2.66699 -178 -8.66699 -323 -18 -435c-6 -63.333 -20.167 -110.5 -42.5 -141.5
s-56.833 -46.5 -103.5 -46.5c-29.333 0 -53.666 3 -72.999 9z" />
    <glyph glyph-name="afii10030" unicode="&#x41c;" horiz-adv-x="1102" 
d="M987 700v-700h-89v552l-311 -552h-71l-311 553v-553h-90v700h104l332 -591l333 591h103z" />
    <glyph glyph-name="afii10031" unicode="&#x41d;" horiz-adv-x="920" 
d="M716 0v362h-511v-362h-90v700h90v-254h511v254h89v-700h-89z" />
    <glyph glyph-name="afii10032" unicode="&#x41e;" horiz-adv-x="915" 
d="M43 349c0 112.667 37.5 200.5 112.5 263.5s175.5 94.5 301.5 94.5s226.5 -31.5 301.5 -94.5s112.5 -150.833 112.5 -263.5s-37.5 -200.5 -112.5 -263.5s-175.5 -94.5 -301.5 -94.5s-226.5 31.5 -301.5 94.5s-112.5 150.833 -112.5 263.5zM457 623
c-97.333 0 -175.5 -24 -234.5 -72s-88.5 -115.333 -88.5 -202c0 -87.333 29.5 -154.833 88.5 -202.5s137.167 -71.5 234.5 -71.5s175.5 23.833 234.5 71.5s88.5 115.167 88.5 202.5c0 86.667 -29.5 154 -88.5 202s-137.167 72 -234.5 72z" />
    <glyph glyph-name="afii10033" unicode="&#x41f;" horiz-adv-x="904" 
d="M700 0v616h-495v-616h-90v700h674v-700h-89z" />
    <glyph glyph-name="afii10034" unicode="&#x420;" horiz-adv-x="802" 
d="M769 511c0 -56.667 -19.333 -102.168 -58 -136.501s-88.667 -51.5 -150 -51.5h-356v-323h-90v700h446c62 0 112.167 -17.167 150.5 -51.5s57.5 -80.166 57.5 -137.499zM679 510.999c0 70 -48.667 105 -146 105h-328v-209h328c97.333 0 146 34.667 146 104z" />
    <glyph glyph-name="afii10035" unicode="&#x421;" horiz-adv-x="847" 
d="M809 557l-75 -53c-26.667 38.667 -64 68.167 -112 88.5s-103 30.5 -165 30.5c-97.333 0 -175.5 -23.833 -234.5 -71.5s-88.5 -115.167 -88.5 -202.5c0 -86.667 29.5 -154 88.5 -202s137.167 -72 234.5 -72c63.333 0 119.5 10.5 168.5 31.5s86.833 51.5 113.5 91.5l74 -52
c-34.667 -50 -82.667 -88.333 -144 -115s-132 -40 -212 -40c-126 0 -226.5 31.5 -301.5 94.5s-112.5 150.833 -112.5 263.5s37.5 200.5 112.5 263.5s175.5 94.5 301.5 94.5c164 0 281.333 -50 352 -150z" />
    <glyph glyph-name="afii10036" unicode="&#x422;" horiz-adv-x="771" 
d="M762 616h-332v-616h-89v616h-332v84h753v-84z" />
    <glyph glyph-name="afii10037" unicode="&#x423;" horiz-adv-x="831" 
d="M11 700h111.001l333 -480l286 480h102l-365 -606c-40.667 -67.333 -93.334 -101 -158.001 -101c-44 0 -77.333 3 -100 9l-15 88c26 -8 57.667 -12 95 -12c47.333 0 82 20 104 60z" />
    <glyph glyph-name="afii10038" unicode="&#x424;" horiz-adv-x="942" 
d="M516 63v-63h-90v63c-119.333 0 -214.333 26.333 -285 79s-106 125.334 -106 218.001s35.5 165.167 106.5 217.5s165.833 78.5 284.5 78.5v58h90v-58c118.667 0 213.5 -26.167 284.5 -78.5s106.5 -124.833 106.5 -217.5s-35.333 -165.334 -106 -218.001
s-165.667 -79 -285 -79zM816 360c0 69.333 -27.5 123.167 -82.5 161.5s-127.5 57.5 -217.5 57.5v-439c90 0 162.5 19.333 217.5 58s82.5 92.667 82.5 162zM126 360.001c0 -69.333 27.5 -123.334 82.5 -162.001s127.5 -58 217.5 -58v439c-90 0 -162.5 -19.167 -217.5 -57.5
s-82.5 -92.166 -82.5 -161.499z" />
    <glyph glyph-name="afii10039" unicode="&#x425;" horiz-adv-x="910" 
d="M798 0l-345 330l-346 -330h-120l406 389l-323 311h124l261 -249l261 249h120l-321 -309l406 -391h-123z" />
    <glyph glyph-name="afii10040" unicode="&#x426;" horiz-adv-x="915" 
d="M205 700v-616h490v616h89v-616h103v-250h-89v166h-683v700h90z" />
    <glyph glyph-name="afii10041" unicode="&#x427;" horiz-adv-x="783" 
d="M300 404c96.667 0 189.332 10 277.999 30v266h90v-700h-90v352c-101.333 -22.667 -197 -34 -287 -34c-164 0 -246 75 -246 225v157h90v-148c0 -52 12.833 -89.667 38.5 -113s67.834 -35 126.501 -35z" />
    <glyph glyph-name="afii10042" unicode="&#x428;" horiz-adv-x="1276" 
d="M684 700v-616h388v616h89v-700h-1046v700h90v-616h389v616h90z" />
    <glyph glyph-name="afii10043" unicode="&#x429;" horiz-adv-x="1292" 
d="M684 700v-616h388v616h89v-616h103v-250h-89v166h-1060v700h90v-616h389v616h90z" />
    <glyph glyph-name="afii10044" unicode="&#x42a;" horiz-adv-x="911" 
d="M223 0v616h-214v84h304v-251h322c73.333 0 133 -20.5 179 -61.5s69 -95.5 69 -163.5s-23 -122.333 -69 -163s-105.667 -61 -179 -61h-412zM793 224c0 94 -62.667 141 -188 141h-292v-281h292c125.333 0 188 46.667 188 140z" />
    <glyph glyph-name="afii10045" unicode="&#x42b;" horiz-adv-x="1089" 
d="M115 0v700h90v-251h317c73.333 0 133 -20.5 179 -61.5s69 -95.5 69 -163.5s-23 -122.333 -69 -163s-105.667 -61 -179 -61h-407zM680 224c0 94 -62.333 141 -187 141h-288v-281h288c124.667 0 187 46.667 187 140zM885 0v700h89v-700h-89z" />
    <glyph glyph-name="afii10046" unicode="&#x42c;" horiz-adv-x="808" 
d="M115 0v700h90v-251h327c73.333 0 133 -20.5 179 -61.5s69 -95.5 69 -163.5s-23 -122.333 -69 -163s-105.667 -61 -179 -61h-417zM690 224c0 94 -62.666 141 -187.999 141h-297v-281h329c47.333 0 85.166 12.5 113.499 37.5s42.5 59.167 42.5 102.5z" />
    <glyph glyph-name="afii10047" unicode="&#x42d;" horiz-adv-x="842" 
d="M107 503l-74.998 53c34.667 48.667 82.167 86 142.5 112s130.166 39 209.499 39c126 0 226.5 -31.5 301.5 -94.5s112.5 -150.833 112.5 -263.5c0 -112 -37.833 -199.5 -113.5 -262.5s-176.5 -94.5 -302.5 -94.5c-80 0 -151 13.167 -213 39.5s-110 64.5 -144 114.5l74 52
c26.667 -39.333 64.667 -69.666 114 -90.999s105.666 -32 168.999 -32c98 0 176.167 23 234.5 69s87.833 113.333 88.5 202h-403v84h392c-16.667 62 -52.5 109.667 -107.5 143s-122.5 50 -202.5 50c-62 0 -117 -10.333 -165 -31s-85.333 -50.334 -112 -89.001z" />
    <glyph glyph-name="afii10048" unicode="&#x42e;" horiz-adv-x="1172" 
d="M327 346l-0.000976562 16.001h-122v-362h-90v700h90v-254h132c19.333 82.667 63.333 146.667 132 192s154.667 68 258 68c122 0 219.333 -31.5 292 -94.5s109 -150.833 109 -263.5s-36.167 -200.334 -108.5 -263.001s-169.833 -94 -292.5 -94
c-121.333 0 -218.166 31.333 -290.499 94s-108.833 149.667 -109.5 261zM1038 348.001c0 87.333 -28.5 154.833 -85.5 202.5s-132.167 71.5 -225.5 71.5c-94 0 -169.5 -23.833 -226.5 -71.5s-85.5 -115.167 -85.5 -202.5c0 -86.667 28.5 -154 85.5 -202s132.5 -72 226.5 -72
c93.333 0 168.5 24 225.5 72s85.5 115.333 85.5 202z" />
    <glyph glyph-name="afii10049" unicode="&#x42f;" horiz-adv-x="897" 
d="M123 503c0 67.333 23.5 117 70.5 149s110.167 48 189.5 48h399v-700h-89v299h-337c-24 0 -44 -8.16699 -60 -24.5s-26.333 -38.5 -31 -66.5l-6 -37c-10.667 -63.333 -26.334 -109 -47.001 -137s-52.667 -42 -96 -42c-26.667 0 -49.667 3 -69 9l-15 84
c22 -7.33301 43.667 -11 65 -11c20 0 35.833 8.16699 47.5 24.5s19.834 43.833 24.501 82.5c9.33301 71.333 33.333 120 72 146c-37.333 14.667 -66.333 37.167 -87 67.5s-31 66.5 -31 108.5zM213 499c0 -77.333 53.667 -116 161 -116h319v233h-316
c-109.333 0 -164 -39 -164 -117z" />
    <glyph glyph-name="afii10065" unicode="&#x430;" 
d="M549 105c-1.33301 6.66699 -2 11.668 -2 15.001c-26.667 -40.667 -64.5 -72.167 -113.5 -94.5s-103.5 -33.5 -163.5 -33.5c-62 0 -111.833 15 -149.5 45s-56.5 67.667 -56.5 113c0 31.333 8.83301 58.666 26.5 81.999s40 41.5 67 54.5s60.833 23.5 101.5 31.5
s80.167 13.167 118.5 15.5s81.5 3.5 129.5 3.5h29c-12 78 -76.333 117 -193 117c-41.333 0 -80.833 -7.16699 -118.5 -21.5s-67.5 -33.5 -89.5 -57.5l-55 68c30.667 28 71.5 50.667 122.5 68s101.167 26 150.5 26c87.333 0 155 -20.167 203 -60.5s72 -101.833 72 -184.5
v-127c0 -33.333 4.66699 -56.5 14 -69.5s24.333 -19.5 45 -19.5c24 0 43.333 2.66699 58 8l-15 -82c-16 -5.33301 -36.667 -8 -62 -8c-71.333 0 -111 37 -119 111zM540 251.001v18.001c-34.667 0 -65 -0.333008 -91 -1s-55 -2.16699 -87 -4.5s-59 -6.16602 -81 -11.499
s-43 -11.833 -63 -19.5s-35 -17.834 -45 -30.501s-15 -27.334 -15 -44.001c0 -28 11.833 -49.333 35.5 -64s53.167 -22 88.5 -22c68.667 0 128.167 16.167 178.5 48.5s76.833 75.833 79.5 130.5z" />
    <glyph glyph-name="afii10066" unicode="&#x431;" horiz-adv-x="725" 
d="M63 259l-0.00195312 96.9971c0 110.667 26.833 193.834 80.5 249.501s131.834 83.834 234.501 84.501c72 0.666992 121.5 5.66699 148.5 15s40.5 24.333 40.5 45h80c-1.33301 -54 -21.333 -90.833 -60 -110.5s-108.667 -31.167 -210 -34.5
c-75.333 -2.66699 -132.666 -20.5 -171.999 -53.5s-62.333 -85.167 -69 -156.5c22.667 37.333 55 66.333 97 87s90 31 144 31c92 0 165.5 -23 220.5 -69s82.5 -110 82.5 -192s-28 -145.833 -84 -191.5s-130.667 -68.5 -224 -68.5c-94 0 -169 23.333 -225 70
s-84 112.334 -84 197.001zM151.998 251.997c0 -58 19.833 -102.333 59.5 -133s93.167 -46 160.5 -46s120.666 15.333 159.999 46s59 75 59 133c0 57.333 -19.667 101.166 -59 131.499s-93 45.5 -161 45.5c-67.333 0 -120.666 -15.167 -159.999 -45.5
s-59 -74.166 -59 -131.499z" />
    <glyph glyph-name="afii10067" unicode="&#x432;" horiz-adv-x="714" 
d="M668 157c0 -49.333 -19.667 -87.834 -59 -115.501s-96 -41.5 -170 -41.5h-348v529h342c67.333 0 118.333 -11.667 153 -35s52 -56.666 52 -99.999c0 -48 -22.333 -82.667 -67 -104c64.667 -26.667 97 -71 97 -133zM579 160.999c0 57.333 -48.333 86 -145 86h-255v-172
h260c93.333 0 140 28.667 140 86zM550 388.999c0 43.333 -39 65 -117 65h-254v-131h254c78 0 117 22 117 66z" />
    <glyph glyph-name="afii10068" unicode="&#x433;" horiz-adv-x="539" 
d="M91 0v529h436v-75h-348v-454h-88z" />
    <glyph glyph-name="afii10069" unicode="&#x434;" horiz-adv-x="790" 
d="M23 -157v231.999h53c24 10 39.333 43 46 99c15.333 122.667 23 241.334 23 356.001h488v-1h45v-454h97v-232h-88v157h-577v-157h-87zM209 165.999c-4 -40.667 -11.333 -71.001 -22 -91.001h403v380h-361c-3.33301 -109.333 -10 -205.666 -20 -288.999z" />
    <glyph glyph-name="afii10070" unicode="&#x435;" horiz-adv-x="730" 
d="M52 264c0 85.333 28.6689 152.167 86.002 200.5s133.333 72.5 228 72.5c95.333 0 171.666 -24 228.999 -72s86 -114.667 86 -200v-18h-539c4 -55.333 27.5 -98 70.5 -128s98.5 -45 166.5 -45c48.667 0 92.167 8.16699 130.5 24.5s66.5 39.5 84.5 69.5l72 -50
c-26 -40 -64.333 -71 -115 -93s-108 -33 -172 -33c-100.667 0 -180.334 24 -239.001 72s-88 114.667 -88 200zM583.002 319.001c-10.667 44 -35.334 77.667 -74.001 101s-86.334 35 -143.001 35c-57.333 0 -105.166 -11.667 -143.499 -35s-63.166 -57 -74.499 -101h435z" />
    <glyph glyph-name="afii10072" unicode="&#x436;" horiz-adv-x="1082" 
d="M497 256h-164.004c-31.333 0 -54.5 -7.16699 -69.5 -21.5s-25.167 -40.166 -30.5 -77.499l-4 -28c-6.66699 -46.667 -20 -81 -40 -103s-50.333 -33 -91 -33c-22.667 0 -44 2.66699 -64 8l-15 82c18 -6 38 -9 60 -9s37.333 8.16699 46 24.5s15.667 44.166 21 83.499
c8 60.667 34 101 78 121c-23.333 16 -37.666 40.667 -42.999 74c-3.33301 24 -10.833 43 -22.5 57s-25.167 21 -40.5 21c-16.667 0 -35 -2.66699 -55 -8l14 80c18.667 5.33301 38.667 8 60 8c78.667 0 121.667 -45 129 -135c2.66699 -28 10.834 -46.667 24.501 -56
s35.5 -14 65.5 -14h141v199h88v-199h141c30 0 51.833 4.66699 65.5 14s21.834 28 24.501 56c7.33301 90 50.333 135 129 135c21.333 0 41.333 -2.66699 60 -8l14 -80c-20 5.33301 -38.333 8 -55 8c-15.333 0 -28.833 -7 -40.5 -21s-19.167 -33 -22.5 -57
c-5.33301 -33.333 -19.666 -58 -42.999 -74c44 -20 70 -60.333 78 -121c5.33301 -39.333 12.333 -67.166 21 -83.499s24 -24.5 46 -24.5s42 3 60 9l-15 -82c-20 -5.33301 -41.333 -8 -64 -8c-40.667 0 -71 11 -91 33s-33.333 56.333 -40 103l-4 28
c-5.33301 37.333 -15.5 63.166 -30.5 77.499s-38.167 21.5 -69.5 21.5h-164v-256h-88v256z" />
    <glyph glyph-name="afii10073" unicode="&#x437;" horiz-adv-x="696" 
d="M30 118c9.33301 6 22.333 15.002 39 27.002l32 23c22 -31.333 57.5 -55.166 106.5 -71.499s101.833 -24.5 158.5 -24.5c59.333 0 106.333 7.66699 141 23s52 37.666 52 66.999c0 56.667 -53.333 85 -160 85h-107v75h91c40 0 73.333 5.66699 100 17s40 28 40 50
c0 45.333 -55.333 68 -166 68c-105.333 0 -183 -29.667 -233 -89l-63 62c32 34 73.167 60.333 123.5 79s103.833 28 160.5 28c79.333 0 143.5 -12 192.5 -36s73.5 -59.333 73.5 -106s-24.333 -81.334 -73 -104.001c73.333 -24.667 110 -69.334 110 -134.001
c0 -53.333 -27 -94.166 -81 -122.499s-125.667 -42.5 -215 -42.5c-66 0 -128.5 10.667 -187.5 32s-103.833 52.666 -134.5 93.999z" />
    <glyph glyph-name="afii10074" unicode="&#x438;" horiz-adv-x="787" 
d="M179 36v-36h-88v529h88v-398l429 367v31h88v-529h-88v402z" />
    <glyph glyph-name="afii10075" unicode="&#x439;" horiz-adv-x="787" 
d="M176 703l61.999 46c15.333 -24 37 -43 65 -57s59 -21 93 -21c33.333 0 64 7 92 21s49.667 33 65 57l62 -46c-47.333 -70.667 -120.333 -106 -219 -106c-99.333 0 -172.666 35.333 -219.999 106zM178.999 36v-36h-88v529h88v-398l429 367v31h88v-529h-88v402z" />
    <glyph glyph-name="afii10076" unicode="&#x43a;" horiz-adv-x="778" 
d="M631 182l2 -20.001c2.66699 -31.333 8.66699 -53.833 18 -67.5s25 -20.5 47 -20.5s42 3 60 9l-15 -82c-20 -5.33301 -41.333 -8 -64 -8c-44.667 0 -77.167 12.833 -97.5 38.5s-32.833 65.167 -37.5 118.5l-1 18c-4.66699 58 -37.667 87 -99 87h-265v-255h-88v529h88v-198
h248c28 0.666992 48.333 5.5 61 14.5s20.334 27.167 23.001 54.5c7.33301 90 50.333 135 129 135c21.333 0 41.333 -2.66699 60 -8l14 -80c-16 5.33301 -34.333 8 -55 8s-35.334 -6 -44.001 -18s-15 -31.667 -19 -59c-4.66699 -33.333 -19 -58.666 -43 -75.999
c46 -20.667 72 -60.667 78 -120z" />
    <glyph glyph-name="afii10077" unicode="&#x43b;" horiz-adv-x="749" 
d="M73 73c24.667 0 41.3311 8.16602 49.998 24.499s14.667 42.833 18 79.5c8.66699 86.667 13 204.334 13 353.001h504v-530h-88v455h-329c-1.33301 -120 -5.33301 -216.333 -12 -289c-5.33301 -58 -17.666 -101.333 -36.999 -130s-52.666 -43 -99.999 -43
c-25.333 0 -48 2.66699 -68 8l-14 81c18 -6 39 -9 63 -9z" />
    <glyph glyph-name="afii10078" unicode="&#x43c;" horiz-adv-x="898" 
d="M414 0l-235 399v-399h-88v529h103l255 -433l255 433h103v-529h-88v399l-235 -399h-70z" />
    <glyph glyph-name="afii10079" unicode="&#x43d;" horiz-adv-x="777" 
d="M598 0v266h-419v-266h-88v529h88v-187h419v187h88v-529h-88z" />
    <glyph glyph-name="afii10080" unicode="&#x43e;" horiz-adv-x="739" 
d="M687 264c0 -85.333 -28.833 -152.166 -86.5 -200.499s-134.5 -72.5 -230.5 -72.5c-96.667 0 -173.834 24.167 -231.501 72.5s-86.5 115.166 -86.5 200.499s28.833 152.166 86.5 200.499s134.5 72.5 230.5 72.5c96.667 0 173.834 -24.167 231.501 -72.5
s86.5 -115.166 86.5 -200.499zM141 264c0 -61.333 20.667 -108.333 62 -141s97 -49 167 -49c69.333 0 124.666 16.333 165.999 49s62 79.667 62 141s-20.667 108.333 -62 141s-97 49 -167 49c-69.333 0 -124.666 -16.333 -165.999 -49s-62 -79.667 -62 -141z" />
    <glyph glyph-name="afii10081" unicode="&#x43f;" horiz-adv-x="761" 
d="M582 0v454h-403v-454h-88v529h579v-529h-88z" />
    <glyph glyph-name="afii10082" unicode="&#x440;" horiz-adv-x="761" 
d="M709 264c0 -85.333 -26.501 -152.168 -79.501 -200.501s-123.833 -72.5 -212.5 -72.5c-109.333 0 -188.666 35 -237.999 105v-317h-88v750h88v-98c50 70.667 129.333 106 238 106c88.667 0 159.5 -24.167 212.5 -72.5s79.5 -115.166 79.5 -200.499zM179.999 263.998
c0 -60.667 20.167 -107.5 60.5 -140.5s93.833 -49.5 160.5 -49.5s119.834 16.5 159.501 49.5s59.5 79.833 59.5 140.5s-19.833 107.5 -59.5 140.5s-92.834 49.5 -159.501 49.5s-120.167 -16.5 -160.5 -49.5s-60.5 -79.833 -60.5 -140.5z" />
    <glyph glyph-name="afii10083" unicode="&#x441;" horiz-adv-x="680" 
d="M578 160l71.001 -49.998c-27.333 -38 -64.833 -67.333 -112.5 -88s-102.167 -31 -163.5 -31c-98 0 -176 24.167 -234 72.5s-87 115.166 -87 200.499s29 152.166 87 200.499s135.333 72.5 232 72.5c61.333 0 115.666 -10 162.999 -30s84.333 -48.667 111 -86l-72 -52
c-38.667 56.667 -106 85 -202 85c-69.333 0 -125 -16.5 -167 -49.5s-63 -79.833 -63 -140.5s21.167 -107.5 63.5 -140.5s98.5 -49.5 168.5 -49.5c96.667 0 165 28.667 205 86z" />
    <glyph glyph-name="afii10084" unicode="&#x442;" horiz-adv-x="641" 
d="M9 454v75h623v-75h-268v-454h-88v454h-267z" />
    <glyph glyph-name="afii10085" unicode="&#x443;" horiz-adv-x="696" 
d="M294 -72l27.001 52l-314 549h99l261 -455l226 455h96l-315 -623c-46 -90.667 -107 -136 -183 -136c-16.667 0 -33.334 2.33301 -50.001 7c-2.66699 15.333 -8.33398 44 -17.001 86c18.667 -4.66699 36.334 -7 53.001 -7c50 0 89 24 117 72z" />
    <glyph glyph-name="afii10086" unicode="&#x444;" horiz-adv-x="909" 
d="M857 264c0 -85.333 -29.5 -152.166 -88.5 -200.499s-137.833 -72.5 -236.5 -72.5h-33v-213h-88v213h-33c-98.667 0 -177.667 24.167 -237 72.5s-89 115.166 -89 200.499s29.5 152.166 88.5 200.499s137.833 72.5 236.5 72.5h34v213h88v-213h32
c99.333 0 178.5 -24.167 237.5 -72.5s88.5 -115.166 88.5 -200.499zM141 264c0 -60.667 21.5 -107.5 64.5 -140.5s100.5 -49.5 172.5 -49.5h33v380h-34c-71.333 0 -128.5 -16.5 -171.5 -49.5s-64.5 -79.833 -64.5 -140.5zM768 264c0 60.667 -21.5 107.5 -64.5 140.5
s-100.5 49.5 -172.5 49.5h-32v-380h33c71.333 0 128.5 16.5 171.5 49.5s64.5 79.833 64.5 140.5z" />
    <glyph glyph-name="afii10087" unicode="&#x445;" horiz-adv-x="716" 
d="M604 0l-248 232l-247 -232h-114l305 287l-256 242h116l198 -186l200 186h112l-256 -241l306 -288h-116z" />
    <glyph glyph-name="afii10088" unicode="&#x446;" horiz-adv-x="775" 
d="M179 529v-454h396v454h88v-454h97v-232h-88v157h-581v529h88z" />
    <glyph glyph-name="afii10089" unicode="&#x447;" horiz-adv-x="681" 
d="M249 208c-66.667 0 -118.167 17 -154.5 51s-54.5 84.667 -54.5 152v118h88v-101c0 -50 11.5 -85.333 34.5 -106s59.5 -31 109.5 -31c77.333 0 154 9.33301 230 28v210h88v-529h-88v240c-94 -21.333 -178.333 -32 -253 -32z" />
    <glyph glyph-name="afii10090" unicode="&#x448;" horiz-adv-x="1101" 
d="M179 529v-454h328v454h88v-454h327v454h88v-529h-919v529h88z" />
    <glyph glyph-name="afii10091" unicode="&#x449;" horiz-adv-x="1122" 
d="M179 529v-454h328v454h88v-454h327v454h88v-454h97v-232h-87v157h-929v529h88z" />
    <glyph glyph-name="afii10092" unicode="&#x44a;" horiz-adv-x="782" 
d="M744 173c0 -54.667 -19.5 -97.166 -58.5 -127.499s-95.833 -45.5 -170.5 -45.5h-342v454h-165v75h253v-182h254c74 0 130.667 -15.333 170 -46s59 -73.334 59 -128.001zM655 173.001c0 35.333 -12.667 60.5 -38 75.5s-66.666 22.5 -123.999 22.5h-232v-196h232
c57.333 0 98.666 7.5 123.999 22.5s38 40.167 38 75.5z" />
    <glyph glyph-name="afii10093" unicode="&#x44b;" horiz-adv-x="922" 
d="M655 173c0 -54.667 -19.5 -97.166 -58.5 -127.499s-95.833 -45.5 -170.5 -45.5h-335v529h88v-182h247c74 0 130.667 -15.333 170 -46s59 -73.334 59 -128.001zM566 173.001c0 34.667 -12.667 59.667 -38 75s-66 23 -122 23h-227v-196h227c56 0 96.667 7.66699 122 23
s38 40.333 38 75zM743 0.000976562v529h88v-529h-88z" />
    <glyph glyph-name="afii10094" unicode="&#x44c;" horiz-adv-x="706" 
d="M668 173c0 -54 -19.667 -96.332 -59 -126.999s-96 -46 -170 -46h-348v529h88v-182h260c74 0 130.667 -15.333 170 -46s59 -73.334 59 -128.001zM579 173.001c0 35.333 -12.667 60.5 -38 75.5s-66.666 22.5 -123.999 22.5h-238v-196h238c57.333 0 98.666 7.5 123.999 22.5
s38 40.167 38 75.5z" />
    <glyph glyph-name="afii10095" unicode="&#x44d;" horiz-adv-x="684" 
d="M31 110c9.33301 6 22.332 14.998 38.999 26.998l32 23c19.333 -27.333 47.5 -48.5 84.5 -63.5s78.833 -22.5 125.5 -22.5c64.667 0 119 15.167 163 45.5s66 70.5 66 120.5v7h-293v75h285c-12 42.667 -37.667 75.334 -77 98.001s-87.666 34 -144.999 34
c-97.333 0 -165.333 -28.333 -204 -85l-72 52c26 37.333 63.167 66 111.5 86s103.166 30 164.499 30c96.667 0 174.334 -24.167 233.001 -72.5s88 -115.166 88 -200.499s-29.333 -152 -88 -200s-137 -72 -235 -72c-62 0 -117.167 10.167 -165.5 30.5
s-85.833 49.5 -112.5 87.5z" />
    <glyph glyph-name="afii10096" unicode="&#x44e;" horiz-adv-x="946" 
d="M277 254v11.999h-98v-266h-88v529h88v-187h108c16 62 50.333 110 103 144s117.667 51 195 51c94 0 169 -24.167 225 -72.5s84 -115.166 84 -200.499s-28 -152 -84 -200s-130.667 -72 -224 -72c-92 0 -166 23.167 -222 69.5s-85 110.5 -87 192.5zM366 263.999
c0 -60.667 20 -107.5 60 -140.5s93.333 -49.5 160 -49.5s119.834 16.5 159.501 49.5s59.5 79.833 59.5 140.5s-20 107.5 -60 140.5s-93.333 49.5 -160 49.5s-119.834 -16.5 -159.501 -49.5s-59.5 -79.833 -59.5 -140.5z" />
    <glyph glyph-name="afii10097" unicode="&#x44f;" horiz-adv-x="752" 
d="M90 365c0 52 19.499 92.333 58.499 121s95.833 43 170.5 43h342v-529h-88v190h-260c-25.333 -0.666992 -45.166 -6.16699 -59.499 -16.5s-22.833 -27.833 -25.5 -52.5c-5.33301 -43.333 -18 -75.5 -38 -96.5s-50 -31.5 -90 -31.5c-20 0 -37.667 2.33301 -53 7l-14 81
c16 -5.33301 32.667 -8 50 -8c20 0 34.167 5.5 42.5 16.5s15.5 30.833 21.5 59.5c6 32 22.333 55.667 49 71c-70.667 26 -106 74.333 -106 145zM178.999 360c0 -63.333 45 -95 135 -95h259v189h-254c-93.333 0 -140 -31.333 -140 -94z" />
    <glyph glyph-name="afii10071" unicode="&#x451;" horiz-adv-x="730" 
d="M230 643v95h83v-95h-83zM408 643v95h83v-95h-83zM52 264c0 85.333 28.6689 152.167 86.002 200.5s133.333 72.5 228 72.5c95.333 0 171.666 -24 228.999 -72s86 -114.667 86 -200v-18h-539c4 -55.333 27.5 -98 70.5 -128s98.5 -45 166.5 -45
c48.667 0 92.167 8.16699 130.5 24.5s66.5 39.5 84.5 69.5l72 -50c-26 -40 -64.333 -71 -115 -93s-108 -33 -172 -33c-100.667 0 -180.334 24 -239.001 72s-88 114.667 -88 200zM583.002 319.001c-10.667 44 -35.334 77.667 -74.001 101s-86.334 35 -143.001 35
c-57.333 0 -105.166 -11.667 -143.499 -35s-63.166 -57 -74.499 -101h435z" />
    <glyph glyph-name="afii10099" unicode="&#x452;" horiz-adv-x="761" 
d="M681 290l0.000976562 -330c0 -65.333 -12.333 -113.333 -37 -144s-63.334 -46 -116.001 -46c-16.667 0 -34.334 3.33301 -53.001 10l-14 82c22 -7.33301 42 -11 60 -11c26.667 0 45.334 8.5 56.001 25.5s16 44.833 16 83.5v316c0 48.667 -17 87.167 -51 115.5
s-78.667 42.5 -134 42.5c-65.333 0 -118.833 -16.167 -160.5 -48.5s-62.5 -77.833 -62.5 -136.5v-249h-88v590h-85v79h85v80h88v-80h189v-79h-189v-184c49.333 74 130.333 111 243 111c77.333 0 138.833 -20.167 184.5 -60.5s68.5 -95.833 68.5 -166.5z" />
    <glyph glyph-name="afii10100" unicode="&#x453;" horiz-adv-x="539" 
d="M467 781l-138 -163h-78l106 163h110zM91 0v529h436v-75h-348v-454h-88z" />
    <glyph glyph-name="afii10101" unicode="&#x454;" horiz-adv-x="683" 
d="M582 160l70.999 -49.998c-26.667 -38 -64.167 -67.167 -112.5 -87.5s-103.5 -30.5 -165.5 -30.5c-98 0 -176.333 24 -235 72s-88 114.667 -88 200s29.333 152.166 88 200.499s136.334 72.5 233.001 72.5c61.333 0 116.166 -10 164.499 -30s85.5 -48.667 111.5 -86
l-72 -52c-38.667 56.667 -106.667 85 -204 85c-57.333 0 -105.666 -11.333 -144.999 -34s-65 -55.334 -77 -98.001h285v-75h-293v-7c0 -50 22 -90.167 66 -120.5s98.333 -45.5 163 -45.5c46.667 0 88.5 7.5 125.5 22.5s65.167 36.167 84.5 63.5z" />
    <glyph glyph-name="afii10102" unicode="&#x455;" horiz-adv-x="679" 
d="M338 230c-38 2.66699 -71.499 6.50098 -100.499 11.501s-57.167 12.667 -84.5 23s-48.333 24.666 -63 42.999s-22 40.5 -22 66.5c0 51.333 23.167 91.333 69.5 120s111.833 43 196.5 43c58.667 0 114.334 -10.167 167.001 -30.5s94 -48.5 124 -84.5l-70 -50
c-24 28 -57.167 49.167 -99.5 63.5s-87.5 21.5 -135.5 21.5c-109.333 0 -164 -25 -164 -75c0 -25.333 17.5 -42.833 52.5 -52.5s91.5 -17.5 169.5 -23.5c37.333 -2.66699 70.333 -7 99 -13s56 -14.5 82 -25.5s46 -26.333 60 -46s21 -43.167 21 -70.5
c0 -52 -25.167 -91.667 -75.5 -119s-119.5 -41 -207.5 -41c-68.667 0 -133.334 11.167 -194.001 33.5s-106.334 52.5 -137.001 90.5l68 54c24 -28.667 62.667 -52 116 -70s108 -27 164 -27c116.667 0 175 26 175 78c0 26.667 -17.667 45.5 -53 56.5s-88 18.833 -158 23.5z
" />
    <glyph glyph-name="afii10103" unicode="&#x456;" horiz-adv-x="277" 
d="M94 0v529h88v-529h-88zM92 640v97h93v-97h-93z" />
    <glyph glyph-name="afii10104" unicode="&#x457;" horiz-adv-x="277" 
d="M94 0v529h88v-529h-88zM31 643v95h81v-95h-81zM164 643v95h82v-95h-82z" />
    <glyph glyph-name="afii10105" unicode="&#x458;" horiz-adv-x="275" 
d="M94 -40l-0.000976562 569h88v-570c0 -126.667 -48.667 -190 -146 -190c-20.667 0 -40.667 3.66699 -60 11l-14 82c18.667 -7.33301 38.667 -11 60 -11c26.667 0 45.334 8.33301 56.001 25s16 44.667 16 84zM90.999 640v97h93v-97h-93z" />
    <glyph glyph-name="afii10106" unicode="&#x459;" horiz-adv-x="1165" 
d="M73 73c24.667 0 41.3311 8.16699 49.998 24.5s14.667 42.833 18 79.5c8.66699 86.667 13 204.334 13 353.001h494v-183h250c74 0 130.667 -15.333 170 -46s59 -73.334 59 -128.001c0 -54 -19.667 -96.333 -59 -127s-96 -46 -170 -46h-338v455h-319
c-1.33301 -120 -5.33301 -216.333 -12 -289c-5.33301 -58 -17.666 -101.333 -36.999 -130s-52.666 -43 -99.999 -43c-25.333 0 -48 2.66699 -68 8l-14 81c18 -6 39 -9 63 -9zM1038 173c0 65.333 -46.667 98 -140 98h-250v-196h250c93.333 0 140 32.667 140 98z" />
    <glyph glyph-name="afii10107" unicode="&#x45a;" horiz-adv-x="1193" 
d="M588 0v271.001h-409v-271h-88v530h88v-183h409v183h88v-183h250c74 0 130.667 -15.333 170 -46s59 -73.334 59 -128.001c0 -54 -19.667 -96.333 -59 -127s-96 -46 -170 -46h-338zM1066 173.001c0 65.333 -46.667 98 -140 98h-250v-196h250c93.333 0 140 32.667 140 98z
" />
    <glyph glyph-name="afii10108" unicode="&#x45b;" horiz-adv-x="761" 
d="M593 0l0.00195312 276c0 50.667 -16.5 89.667 -49.5 117s-78.167 41 -135.5 41c-64.667 0 -117.834 -15.833 -159.501 -47.5s-62.834 -76.167 -63.501 -133.5v-253h-88v590h-85v79h85v80h88v-80h189v-79h-189v-184c49.333 74 130.333 111 243 111
c77.333 0 138.833 -20.167 184.5 -60.5s68.5 -95.833 68.5 -166.5v-290h-88z" />
    <glyph glyph-name="afii10109" unicode="&#x45c;" horiz-adv-x="783" 
d="M539 781l-138 -163h-78l106 163h110zM631 182l2 -20.001c2.66699 -31.333 8.66699 -53.833 18 -67.5s25 -20.5 47 -20.5s42 3 60 9l-15 -82c-20 -5.33301 -41.333 -8 -64 -8c-44.667 0 -77.167 12.833 -97.5 38.5s-32.833 65.167 -37.5 118.5l-1 18
c-4.66699 58 -37.667 87 -99 87h-265v-255h-88v529h88v-198h248c28 0.666992 48.333 5.5 61 14.5s20.334 27.167 23.001 54.5c7.33301 90 50.333 135 129 135c21.333 0 41.333 -2.66699 60 -8l14 -80c-16 5.33301 -34.333 8 -55 8s-35.334 -6 -44.001 -18
s-15 -31.667 -19 -59c-4.66699 -33.333 -19 -58.666 -43 -75.999c46 -20.667 72 -60.667 78 -120z" />
    <glyph glyph-name="afii10110" unicode="&#x45e;" horiz-adv-x="701" 
d="M299 -72l27 52l-314 549h99l261 -455l226 455h96l-315 -623c-46 -90.667 -107 -136 -183 -136c-17.333 0 -34 2.33301 -50 7c-2.66699 15.333 -8.33398 44 -17.001 86c18.667 -4.66699 36.334 -7 53.001 -7c50 0 89 24 117 72zM353 615c-92 0 -159.333 40.667 -202 122
l63 26c13.333 -24 32.333 -43.333 57 -58s52 -22 82 -22s57.5 7.33301 82.5 22s44.167 34 57.5 58l62 -26c-42.667 -81.333 -110 -122 -202 -122z" />
    <glyph glyph-name="afii10193" unicode="&#x45f;" horiz-adv-x="754" 
d="M179 529v-454h396v454h88v-529h-242v-157h-88v157h-242v529h88z" />
    <glyph glyph-name="afii10050" unicode="&#x490;" horiz-adv-x="686" 
d="M115 0v700h466v165h85v-249h-461v-616h-90z" />
    <glyph glyph-name="afii10098" unicode="&#x491;" horiz-adv-x="524" 
d="M91 0v529h336v158h85v-233h-333v-454h-88z" />
    <glyph glyph-name="endash" unicode="&#x2013;" horiz-adv-x="694" 
d="M74 272v76h545v-76h-545z" />
    <glyph glyph-name="emdash" unicode="&#x2014;" horiz-adv-x="874" 
d="M9 272v76h855v-76h-855z" />
    <glyph glyph-name="quoteleft" unicode="&#x2018;" horiz-adv-x="238" 
d="M154 594v-97h-96v92c0 107.333 28 161 84 161c10.667 0 19 -1.33301 25 -4l12 -61c-4 2 -9.33301 3 -16 3c-26 0 -39 -28.333 -39 -85v-9h30z" />
    <glyph glyph-name="quoteright" unicode="&#x2019;" horiz-adv-x="238" 
d="M83 653v97h96v-106c0 -98 -29.667 -147 -89 -147c-9.33301 0 -16 1.33301 -20 4l-12 61c4 -2 9.33301 -3 16 -3c26 0 39 28.333 39 85v9h-30z" />
    <glyph glyph-name="quotesinglbase" unicode="&#x201a;" horiz-adv-x="238" 
d="M83 0v97h96v-106c0 -98 -29.667 -147 -89 -147c-9.33301 0 -16 1.33301 -20 4l-12 61c4 -2 9.33301 -3 16 -3c26 0 39 28.333 39 85v9h-30z" />
    <glyph glyph-name="quotedblleft" unicode="&#x201c;" horiz-adv-x="398" 
d="M314 594v-97h-96v92c0 107.333 28 161 84 161c10.667 0 19 -1.33301 25 -4l12 -61c-4 2 -9.33301 3 -16 3c-26 0 -39 -28.333 -39 -85v-9h30zM154 594v-97h-96v92c0 107.333 28 161 84 161c10.667 0 19 -1.33301 25 -4l12 -61c-4 2 -9.33301 3 -16 3
c-26 0 -39 -28.333 -39 -85v-9h30z" />
    <glyph glyph-name="quotedblright" unicode="&#x201d;" horiz-adv-x="398" 
d="M83 653v97h96v-106c0 -98 -29.667 -147 -89 -147c-9.33301 0 -16 1.33301 -20 4l-12 61c4 -2 9.33301 -3 16 -3c26 0 39 28.333 39 85v9h-30zM243 653v97h96v-106c0 -98 -29.667 -147 -89 -147c-9.33301 0 -16 1.33301 -20 4l-12 61c4 -2 9.33301 -3 16 -3
c26 0 39 28.333 39 85v9h-30z" />
    <glyph glyph-name="quotedblbase" unicode="&#x201e;" horiz-adv-x="398" 
d="M83 0v97h96v-106c0 -98 -29.667 -147 -89 -147c-9.33301 0 -16 1.33301 -20 4l-12 61c4 -2 9.33301 -3 16 -3c26 0 39 28.333 39 85v9h-30zM243 0v97h96v-106c0 -98 -29.667 -147 -89 -147c-9.33301 0 -16 1.33301 -20 4l-12 61c4 -2 9.33301 -3 16 -3
c26 0 39 28.333 39 85v9h-30z" />
    <glyph glyph-name="bullet" unicode="&#x2022;" horiz-adv-x="488" 
d="M111 317c0 36 12 63.833 36 83.5s56.333 29.5 97 29.5c40 0 72.167 -9.83301 96.5 -29.5s36.5 -47.5 36.5 -83.5c0 -36.667 -12.167 -64.834 -36.5 -84.501s-56.5 -29.5 -96.5 -29.5c-40.667 0 -73 9.83301 -97 29.5s-36 47.834 -36 84.501z" />
    <glyph glyph-name="ellipsis" unicode="&#x2026;" horiz-adv-x="664" 
d="M58 0v97h96v-97h-96zM284 0v97h96v-97h-96zM509 0v97h96v-97h-96z" />
    <glyph glyph-name="perthousand" unicode="&#x2030;" horiz-adv-x="1496" 
d="M123 0l720 700h91l-720 -700h-91zM69 536c0 55.333 19.333 99.166 58 131.499s90 48.5 154 48.5c64.667 0 116.334 -16.167 155.001 -48.5s58 -76.166 58 -131.499s-19.333 -99.166 -58 -131.499s-90.334 -48.5 -155.001 -48.5c-64 0 -115.333 16.167 -154 48.5
s-58 76.166 -58 131.499zM564 162c0 55.333 19.333 99.166 58 131.499s90 48.5 154 48.5c64.667 0 116.334 -16.167 155.001 -48.5s58 -76.166 58 -131.499s-19.333 -99.166 -58 -131.499s-90.334 -48.5 -155.001 -48.5c-64 0 -115.333 16.167 -154 48.5
s-58 76.166 -58 131.499zM422 536c0 36.667 -13 65.834 -39 87.501s-60 32.5 -102 32.5c-41.333 0 -75 -10.833 -101 -32.5s-39 -50.834 -39 -87.501s13 -66 39 -88s59.667 -33 101 -33c42 0 76 11 102 33s39 51.333 39 88zM917 162c0 36.667 -13 65.834 -39 87.501
s-60 32.5 -102 32.5c-41.333 0 -75 -10.833 -101 -32.5s-39 -50.834 -39 -87.501s13 -66 39 -88s59.667 -33 101 -33c42 0 76 11 102 33s39 51.333 39 88zM1029 162c0 55.333 19.333 99.166 58 131.499s90 48.5 154 48.5s115.333 -16.167 154 -48.5s58 -76.166 58 -131.499
s-19.333 -99.166 -58 -131.499s-90 -48.5 -154 -48.5s-115.333 16.167 -154 48.5s-58 76.166 -58 131.499zM1382 162c0 36.667 -13 65.834 -39 87.501s-60 32.5 -102 32.5s-76 -10.833 -102 -32.5s-39 -50.834 -39 -87.501s13 -66 39 -88s60 -33 102 -33s76 11 102 33
s39 51.333 39 88z" />
    <glyph glyph-name="guilsinglleft" unicode="&#x2039;" horiz-adv-x="300" 
d="M29 277l148 191h83l-149 -191l149 -191h-83z" />
    <glyph glyph-name="guilsinglright" unicode="&#x203a;" horiz-adv-x="300" 
d="M189 277l-149 191h83l148 -191l-148 -191h-83z" />
    <glyph glyph-name="Euro" unicode="&#x20ac;" horiz-adv-x="865" 
d="M827 557l-75 -53c-26.667 38.667 -64 68.167 -112 88.5s-103 30.5 -165 30.5c-80 0 -147.5 -16.5 -202.5 -49.5s-90.833 -80.167 -107.5 -141.5h393l-16 -62h-389c-0.666992 -4.66699 -1 -11.667 -1 -21c0 -13.333 0.333008 -23 1 -29h376c-4 -14 -9.33301 -35 -16 -63
h-345c18.667 -58.667 55 -103.667 109 -135s120 -47 198 -47c63.333 0 119.5 10.5 168.5 31.5s86.833 51.5 113.5 91.5l74 -52c-34.667 -50 -82.667 -88.167 -144 -114.5s-132 -39.5 -212 -39.5c-107.333 0 -196.5 23 -267.5 69s-116.167 111.333 -135.5 196h-68l17 63h41
c-0.666992 6 -1 15.667 -1 29c0 9.33301 0.333008 16.333 1 21h-58l17 62h48c18 87.333 62.833 155 134.5 203s162.167 72 271.5 72c164 0 281.333 -50 352 -150z" />
    <glyph glyph-name="afii61352" unicode="&#x2116;" horiz-adv-x="1399" 
d="M732 0l-527 575v-575h-90v700h98l527 -576v576h89v-700h-97zM933 378c0 54 19.333 96.667 58 128s89.667 47 153 47s114.333 -15.667 153 -47s58 -74 58 -128s-19.333 -96.5 -58 -127.5s-89.667 -46.5 -153 -46.5s-114.333 15.5 -153 46.5s-58 73.5 -58 127.5zM936 76v68
h416v-68h-416zM1284 378c0 36.667 -13.167 65 -39.5 85s-59.833 30 -100.5 30s-74.167 -10 -100.5 -30s-39.5 -48.333 -39.5 -85s13.167 -65 39.5 -85s59.833 -30 100.5 -30s74.167 10 100.5 30s39.5 48.333 39.5 85z" />
    <glyph glyph-name="trademark" unicode="&#x2122;" horiz-adv-x="1215" 
d="M804 284l-165 308v-308h-68v422h79l181 -341l183 341h79v-422h-68v307l-166 -307h-55zM510 644h-192v-360h-70v360h-192v62h454v-62z" />
    <glyph glyph-name="minus" unicode="&#x2212;" horiz-adv-x="586" 
d="M85 275v79h415v-79h-415z" />
    <glyph glyph-name="fi" unicode="&#xfb01;" horiz-adv-x="566" 
d="M21 440l0.00292969 78.999h99v40c0 62.667 14.5 110 43.5 142s69.833 48 122.5 48c35.333 0 61.666 -2.66699 78.999 -8c1.33301 -9.33301 3.66602 -23.166 6.99902 -41.499s5.66602 -32.166 6.99902 -41.499c-20 6 -45.333 9 -76 9c-32.667 0 -56.667 -8.33301 -72 -25
s-23 -44.334 -23 -83.001v-40h267v-519h-88v440h-179v-440h-88v440h-99z" />
    <glyph glyph-name="fl" unicode="&#xfb02;" horiz-adv-x="565" 
d="M386 0l0.000976562 659c-23.333 5.33301 -49.333 8 -78 8c-34 0 -59.167 -8.5 -75.5 -25.5s-24.5 -44.5 -24.5 -82.5v-40h126v-79h-126v-440h-88v440h-99v79h99v40c0 62.667 14.667 110 44 142s71.666 48 126.999 48c38 0 69.667 -3.33301 95 -10h88v-739h-88z" />
    <glyph glyph-name=".null" horiz-adv-x="0" 
 />
    <glyph glyph-name="nonmarkingreturn" horiz-adv-x="333" 
 />
    <glyph glyph-name="NULL" horiz-adv-x="0" 
 />
    </font>
</defs>
</svg>
