<svg width="24" height="24" viewBox="0 0 24 24" fill="none" xmlns="http://www.w3.org/2000/svg">
<path d="M14.3129 11.9001C14.5366 11.981 14.7864 11.9433 14.9763 11.7996C15.1662 11.6559 15.2703 11.4259 15.2533 11.1884L15.0816 8.80819L16.547 6.92496C16.6931 6.73691 16.7343 6.4877 16.6565 6.26285C16.5784 6.03781 16.3917 5.8677 16.1606 5.81058L13.844 5.23819L12.5056 3.26266C12.372 3.06546 12.1478 2.94919 11.9096 2.95413C11.6716 2.95871 11.452 3.08359 11.3264 3.28573L10.0663 5.31216L7.77382 5.97446C7.54512 6.04056 7.36531 6.21799 7.2961 6.44595C7.22707 6.67373 7.27797 6.92111 7.43123 7.10312L8.96914 8.92776L8.89077 11.3127C8.88289 11.5507 8.99605 11.7765 9.19143 11.9127C9.38717 12.049 9.63802 12.0768 9.8583 11.9873L12.0689 11.0884L14.3129 11.9001ZM11.7893 9.68417L10.3318 10.2767L10.3836 8.70419C10.3893 8.53042 10.3305 8.36087 10.2185 8.22793L9.20443 7.02493L10.716 6.58822C10.883 6.54007 11.0261 6.43167 11.1179 6.28409L11.9486 4.94797L12.8312 6.25058C12.9286 6.39432 13.076 6.49704 13.2446 6.53879L14.7721 6.91598L13.806 8.1578C13.6993 8.29495 13.6471 8.4667 13.6596 8.6401L13.7727 10.2093L12.2932 9.67428C12.1297 9.61514 11.9503 9.61862 11.7893 9.68417Z" fill="#0F94F7"/>
<path d="M18.4563 19.0979C17.3073 18.7793 15.8324 18.5546 14.2145 18.4471C16.8029 14.6065 18.1395 12.6777 18.8842 11.2319C19.5989 9.84412 19.7344 8.93207 19.7344 7.73438C19.7344 3.46967 16.2647 0 12 0C7.73529 0 4.26562 3.46967 4.26562 7.73438C4.26562 10.4482 4.96948 11.2993 9.78571 18.4471C8.1676 18.5546 6.69287 18.7793 5.5437 19.0979C4.4101 19.4123 2.85938 20.0092 2.85938 21.1875C2.85938 22.4513 4.6344 23.0539 5.86322 23.3611C7.51099 23.7731 9.69049 24 12 24C14.3095 24 16.489 23.7731 18.1368 23.3611C19.3652 23.0541 21.1406 22.4513 21.1406 21.1875C21.1406 20.0092 19.5897 19.4123 18.4563 19.0979ZM5.67188 7.73438C5.67188 4.24512 8.51074 1.40625 12 1.40625C15.4893 1.40625 18.3281 4.24512 18.3281 7.73438C18.3281 9.84155 17.833 10.5747 13.9797 16.2808C13.3901 17.1539 12.7379 18.1198 12 19.2204C11.2714 18.1337 10.6263 17.1782 10.0432 16.3141C6.16956 10.5758 5.67188 9.83844 5.67188 7.73438ZM17.4679 22.0745C15.9694 22.4094 14.0275 22.5938 12 22.5938C9.97247 22.5938 8.03064 22.4094 6.5321 22.0745C4.9151 21.713 4.42548 21.3235 4.2973 21.1875C4.41669 21.0606 4.8512 20.7134 6.22833 20.3721C7.43774 20.0724 9.01355 19.8739 10.7001 19.8069C10.9299 20.1495 11.1682 20.5051 11.4153 20.8751C11.5459 21.0703 11.7653 21.1875 12 21.1875C12.2347 21.1875 12.4541 21.0703 12.5847 20.8751C12.8318 20.5049 13.0701 20.1493 13.2999 19.8069C14.9866 19.8739 16.5623 20.0722 17.7717 20.3721C19.1488 20.7134 19.5833 21.0606 19.7027 21.1875C19.5747 21.3235 19.0849 21.713 17.4679 22.0745Z" fill="#0F94F7"/>
</svg>
