<svg width="30" height="28" viewBox="0 0 30 28" fill="none" xmlns="http://www.w3.org/2000/svg">
<path d="M4.90052 21.5335C4.58634 21.3437 4.17612 21.376 3.89253 21.6076C3.60729 21.8405 3.50124 22.2373 3.62306 22.5831C3.7447 22.9286 4.0839 23.1662 4.44929 23.1662C4.86395 23.1662 5.228 22.8645 5.31056 22.4589C5.38386 22.0985 5.21382 21.7227 4.90052 21.5335Z" fill="black"/>
<path d="M8.32756 21.4889C7.98297 21.3306 7.56262 21.4166 7.30914 21.6998C7.09228 21.9421 7.02566 22.2928 7.1408 22.5972C7.26847 22.9349 7.60035 23.1662 7.96187 23.1662C8.3967 23.1662 8.77158 22.8352 8.83199 22.4057C8.88531 22.0264 8.6739 21.648 8.32756 21.4889Z" fill="black"/>
<path d="M11.9259 21.5335C11.6117 21.3437 11.2015 21.376 10.9179 21.6076C10.6339 21.8394 10.5245 22.2385 10.6483 22.5831C10.7722 22.928 11.1076 23.1662 11.4746 23.1662C11.8892 23.1662 12.2533 22.8644 12.3358 22.4589C12.4092 22.0985 12.2392 21.7227 11.9259 21.5335Z" fill="black"/>
<path d="M15.4387 21.5335C15.1244 21.3437 14.7143 21.3759 14.4307 21.6076C14.1461 21.84 14.0386 22.2379 14.1612 22.583C14.2838 22.9283 14.6212 23.1661 14.9874 23.1661C15.4015 23.1661 15.7671 22.8645 15.8487 22.4589C15.9212 22.0982 15.7525 21.723 15.4387 21.5335Z" fill="black"/>
<path d="M4.90052 18.0178C4.58628 17.8281 4.17618 17.8603 3.89253 18.092C3.60729 18.3249 3.50124 18.7217 3.62306 19.0675C3.7447 19.413 4.08384 19.6506 4.44929 19.6506C4.86401 19.6506 5.228 19.3489 5.31056 18.9433C5.38386 18.5829 5.21382 18.2071 4.90052 18.0178Z" fill="black"/>
<path d="M8.41319 18.0179C8.09901 17.8281 7.68879 17.8604 7.4052 18.092C7.11996 18.325 7.01397 18.7218 7.13572 19.0675C7.25737 19.4129 7.59668 19.6506 7.96195 19.6506C8.3758 19.6506 8.74172 19.3489 8.82322 18.9434C8.8957 18.5826 8.72701 18.2074 8.41319 18.0179Z" fill="black"/>
<path d="M11.9259 18.0179C11.6117 17.8281 11.2015 17.8604 10.9179 18.092C10.6339 18.3238 10.5245 18.7229 10.6483 19.0675C10.7722 19.4125 11.1076 19.6506 11.4746 19.6506C11.8892 19.6506 12.2533 19.3488 12.3358 18.9434C12.4092 18.5829 12.2392 18.2071 11.9259 18.0179Z" fill="black"/>
<path d="M15.4387 18.0178C15.1244 17.8281 14.7143 17.8603 14.4307 18.092C14.1461 18.3243 14.0386 18.7223 14.1612 19.0674C14.2838 19.4127 14.6213 19.6505 14.9874 19.6505C15.4013 19.6505 15.7671 19.3489 15.8487 18.9433C15.9212 18.5826 15.7525 18.2074 15.4387 18.0178Z" fill="black"/>
<path d="M4.44931 16.1349C4.86404 16.1349 5.22802 15.8332 5.31058 15.4277C5.38394 15.0673 5.2139 14.6914 4.9006 14.5022C4.58636 14.3124 4.17627 14.3447 3.89261 14.5763C3.60791 14.8088 3.5005 15.2065 3.62314 15.5518C3.74566 15.8972 4.08304 16.1349 4.44931 16.1349Z" fill="black"/>
<path d="M8.41314 14.5022C8.09843 14.3122 7.68933 14.3451 7.40515 14.5763C7.11956 14.8087 7.01409 15.2066 7.13568 15.5519C7.25732 15.8973 7.59652 16.1349 7.96191 16.1349C8.37587 16.1349 8.74161 15.8334 8.82318 15.4277C8.89566 15.067 8.72697 14.6918 8.41314 14.5022Z" fill="black"/>
<path d="M11.4746 16.135C11.8892 16.135 12.2533 15.8331 12.3359 15.4277C12.4092 15.0673 12.2392 14.6914 11.9259 14.5022C11.6117 14.3125 11.2015 14.3447 10.9179 14.5764C10.6345 14.8078 10.5237 15.2077 10.6483 15.5518C10.7732 15.8967 11.1068 16.135 11.4746 16.135Z" fill="black"/>
<path d="M15.4386 14.5022C15.1246 14.3126 14.714 14.3449 14.4306 14.5764C14.1455 14.8092 14.0393 15.2064 14.1612 15.5521C14.2828 15.8973 14.6223 16.1349 14.9874 16.1349C15.4012 16.1349 15.7672 15.8332 15.8487 15.4277C15.9211 15.067 15.7524 14.6918 15.4386 14.5022Z" fill="black"/>
<path d="M25.5253 12.6193C25.9235 12.6193 26.2793 12.3403 26.3769 11.9542C26.4677 11.5948 26.3142 11.2037 26.0027 11.0028C25.7109 10.8146 25.3269 10.8164 25.0376 11.0097C24.7202 11.2219 24.5736 11.6297 24.6857 11.9953C24.798 12.361 25.1419 12.6193 25.5253 12.6193Z" fill="black"/>
<path d="M22.0127 12.6193C22.4266 12.6193 22.7925 12.3176 22.874 11.9121C22.9465 11.5513 22.7778 11.1761 22.464 10.9866C22.1497 10.7968 21.7397 10.829 21.456 11.0607C21.1708 11.2937 21.0647 11.6907 21.1865 12.0364C21.3081 12.3817 21.6476 12.6193 22.0127 12.6193Z" fill="black"/>
<path d="M4.90052 10.9866C4.58634 10.7969 4.17612 10.8291 3.89253 11.0607C3.60729 11.2937 3.50124 11.6905 3.62306 12.0363C3.7447 12.3816 4.08395 12.6193 4.44929 12.6193C4.8639 12.6193 5.228 12.3175 5.31056 11.9121C5.38386 11.5517 5.21382 11.1759 4.90052 10.9866Z" fill="black"/>
<path d="M7.96183 12.6193C8.37579 12.6193 8.74154 12.3177 8.8231 11.9121C8.89558 11.5513 8.72689 11.1761 8.41312 10.9866C8.09888 10.7968 7.68878 10.829 7.40513 11.0607C7.12042 11.2932 7.01308 11.691 7.13566 12.0361C7.25824 12.3815 7.59568 12.6193 7.96183 12.6193Z" fill="black"/>
<path d="M11.4746 12.6193C11.8894 12.6193 12.2533 12.3176 12.3359 11.9121C12.4092 11.5516 12.2392 11.1758 11.9259 10.9866C11.6117 10.7969 11.2015 10.8291 10.9179 11.0607C10.6345 11.2922 10.5237 11.6921 10.6483 12.0361C10.7732 12.3811 11.1067 12.6193 11.4746 12.6193Z" fill="black"/>
<path d="M15.4387 10.9866C15.1245 10.7969 14.7143 10.8291 14.4307 11.0607C14.1455 11.2936 14.0394 11.6906 14.1612 12.0363C14.2828 12.3817 14.622 12.6193 14.9874 12.6193C15.4014 12.6193 15.7671 12.3177 15.8487 11.9121C15.9212 11.5513 15.7525 11.1762 15.4387 10.9866Z" fill="black"/>
<path d="M18.4999 12.6193C18.9146 12.6193 19.2786 12.3176 19.3612 11.9121C19.4346 11.5516 19.2645 11.1758 18.9512 10.9866C18.637 10.7969 18.2267 10.8289 17.9432 11.0607C17.6586 11.2934 17.5511 11.6908 17.6738 12.0361C17.7963 12.3816 18.1337 12.6193 18.4999 12.6193Z" fill="black"/>
<path d="M25.5254 9.10368C25.9238 9.10368 26.2793 8.8249 26.377 8.43853C26.4677 8.07929 26.3144 7.68794 26.0028 7.48726C25.7109 7.29923 25.3271 7.30093 25.0377 7.49412C24.72 7.70623 24.5741 8.11415 24.6858 8.47966C24.7977 8.84534 25.1421 9.10368 25.5254 9.10368Z" fill="black"/>
<path d="M22.0127 9.10369C22.4267 9.10369 22.7924 8.8021 22.874 8.39646C22.9465 8.0357 22.7778 7.66046 22.464 7.47097C22.1497 7.28119 21.7397 7.31341 21.456 7.54509C21.1708 7.77806 21.0647 8.17509 21.1865 8.5208C21.3082 8.86615 21.6474 9.10369 22.0127 9.10369Z" fill="black"/>
<path d="M30 20.5896L29.975 2.93933C29.975 2.45394 29.5818 2.06042 29.0968 2.06042H26.4037V1.58276C26.4037 1.09737 26.0106 0.703857 25.5255 0.703857C25.0406 0.703857 24.6474 1.09737 24.6474 1.58276V2.06042H22.8911V1.58276C22.8911 1.09737 22.4979 0.703857 22.0129 0.703857C21.5279 0.703857 21.1348 1.09737 21.1348 1.58276V2.06042H19.3784V1.58276C19.3784 1.09737 18.9853 0.703857 18.5003 0.703857C18.0153 0.703857 17.6221 1.09737 17.6221 1.58276V2.06042H15.8658V1.58276C15.8658 1.09737 15.4726 0.703857 14.9876 0.703857C14.5027 0.703857 14.1094 1.09737 14.1094 1.58276V2.06042H12.3531V1.58276C12.3531 1.09737 11.9599 0.703857 11.4749 0.703857C10.9899 0.703857 10.5967 1.09737 10.5967 1.58276V2.06042H8.84039V1.58276C8.84039 1.09737 8.44723 0.703857 7.96225 0.703857C7.47727 0.703857 7.08404 1.09737 7.08404 1.58276V2.06042H5.32758V1.58276C5.32758 1.09737 4.93441 0.703857 4.44937 0.703857C3.96439 0.703857 3.57123 1.09737 3.57123 1.58276V2.06042H0.878203C0.393164 2.06042 0 2.45394 0 2.93933V26.4173C0 26.9027 0.393164 27.2962 0.878203 27.2962C0.878203 27.2962 23.3923 27.2921 23.4336 27.2861C27.0658 27.2186 30 24.2408 30 20.5896ZM1.75635 3.81823H3.57123V4.19435C3.57123 4.67974 3.96439 5.07325 4.44937 5.07325C4.93436 5.07325 5.32758 4.67974 5.32758 4.19435V3.81823H7.08393V4.19435C7.08393 4.67974 7.47709 5.07325 7.96213 5.07325C8.44711 5.07325 8.84027 4.67974 8.84027 4.19435V3.81823H10.5966V4.19435C10.5966 4.67974 10.9898 5.07325 11.4748 5.07325C11.9597 5.07325 12.353 4.67974 12.353 4.19435V3.81823H14.1093V4.19435C14.1093 4.67974 14.5025 5.07325 14.9875 5.07325C15.4725 5.07325 15.8657 4.67974 15.8657 4.19435V3.81823H17.622V4.19435C17.622 4.67974 18.0152 5.07325 18.5002 5.07325C18.9851 5.07325 19.3783 4.67974 19.3783 4.19435V3.81823H21.1346V4.19435C21.1346 4.67974 21.5278 5.07325 22.0128 5.07325C22.4978 5.07325 22.8909 4.67974 22.8909 4.19435V3.81823H24.6473V4.19435C24.6473 4.67974 25.0404 5.07325 25.5254 5.07325C26.0104 5.07325 26.4036 4.67974 26.4036 4.19435V3.81823H28.2185V16.0446C26.9951 14.7215 25.2464 13.8916 23.3074 13.8916C21.8382 13.8916 20.4785 14.3683 19.3734 15.1746C19.3465 14.9015 19.1911 14.6472 18.9512 14.5023C18.637 14.3126 18.2266 14.3446 17.9432 14.5764C17.658 14.8095 17.5519 15.206 17.6737 15.5519C17.7762 15.8429 18.0332 16.0568 18.3302 16.1172C17.2645 17.3039 16.615 18.8723 16.615 20.5897C16.615 22.548 17.4591 24.3126 18.8022 25.5384H1.75635V3.81823ZM23.3075 25.5299C20.5858 25.5299 18.3714 23.3137 18.3714 20.5896C18.3714 17.8656 20.5858 15.6494 23.3075 15.6494C26.0293 15.6494 28.2437 17.8656 28.2437 20.5896C28.2437 23.3137 26.0293 25.5299 23.3075 25.5299Z" fill="black"/>
<path d="M25.0714 19.7108H24.1857V18.7571C24.1857 18.2717 23.7926 17.8782 23.3076 17.8782C22.8226 17.8782 22.4294 18.2717 22.4294 18.7571V20.5897C22.4294 21.075 22.8225 21.4686 23.3076 21.4686H25.0715C25.5565 21.4686 25.9496 21.075 25.9496 20.5897C25.9496 20.1043 25.5564 19.7108 25.0714 19.7108Z" fill="black"/>
</svg>
