<svg width="22" height="30" viewBox="0 0 22 30" fill="none" xmlns="http://www.w3.org/2000/svg">
<path d="M11 0C5.18445 0 0.453125 4.73133 0.453125 10.5469C0.453125 12.5118 0.997403 14.4293 2.02748 16.0929L10.3996 29.5845C10.56 29.843 10.8426 30 11.1464 30C11.1488 30 11.1511 30 11.1534 30C11.4599 29.9976 11.743 29.8357 11.9005 29.5727L20.0592 15.9504C21.0325 14.322 21.5469 12.4535 21.5469 10.5469C21.5469 4.73133 16.8155 0 11 0ZM18.5507 15.0479L11.1331 27.4328L3.5215 15.1668C2.6641 13.7821 2.19922 12.1846 2.19922 10.5469C2.19922 5.70059 6.15371 1.74609 11 1.74609C15.8463 1.74609 19.7949 5.70059 19.7949 10.5469C19.7949 12.136 19.3607 13.6927 18.5507 15.0479Z" fill="white"/>
<path d="M11 5.27344C8.09223 5.27344 5.72656 7.6391 5.72656 10.5469C5.72656 13.4361 8.05373 15.8203 11 15.8203C13.9826 15.8203 16.2734 13.4043 16.2734 10.5469C16.2734 7.6391 13.9078 5.27344 11 5.27344ZM11 14.0742C9.05135 14.0742 7.47266 12.4903 7.47266 10.5469C7.47266 8.60836 9.06148 7.01953 11 7.01953C12.9385 7.01953 14.5215 8.60836 14.5215 10.5469C14.5215 12.4619 12.9795 14.0742 11 14.0742Z" fill="white"/>
</svg>
