<svg width="26" height="26" viewBox="0 0 26 26" fill="none" xmlns="http://www.w3.org/2000/svg">
<path d="M25.2516 19.4909L21.4937 15.7314C20.9891 15.2293 20.3133 14.9527 19.5911 14.9527C18.8396 14.9527 18.1301 15.2486 17.5936 15.7854L16.1308 17.2479C14.9941 16.6161 13.4834 15.7471 11.9148 14.1786C10.3481 12.6114 9.47907 11.105 8.84405 9.96223L10.3082 8.49912C11.3968 7.40827 11.4191 5.65819 10.358 4.5981L6.60093 0.840881C6.09767 0.336219 5.42188 0.0582886 4.69791 0.0582886C3.96318 0.0582886 3.26814 0.341166 2.73476 0.856046C2.41208 1.11591 0.792796 2.54535 0.189288 5.4933C-0.655687 9.61955 1.28573 13.5896 6.89037 19.1965C13.1512 25.4554 18.4961 25.9419 19.9851 25.9419C20.2951 25.9419 20.4822 25.9228 20.5321 25.917C23.4519 25.5747 24.4974 24.278 25.2607 23.3312C26.2498 22.104 26.2464 20.4894 25.2516 19.4909ZM24.0047 22.3185C23.2872 23.2084 22.6095 24.0489 20.3444 24.3145C20.3432 24.3146 20.2193 24.3284 19.9851 24.3284C18.6529 24.3284 13.8535 23.876 8.03124 18.0556C2.86275 12.885 1.04868 9.33915 1.76985 5.81684C2.29624 3.24556 3.69374 2.15266 3.74806 2.11114L3.79625 2.07554L3.83852 2.03316C4.07181 1.80008 4.37695 1.67166 4.6978 1.67166C4.98993 1.67166 5.26011 1.78115 5.45931 1.981L9.21728 5.73907C9.64966 6.17103 9.62664 6.8979 9.16662 7.3589L7.51076 9.01335L7.48355 9.04186C7.05203 9.51716 7.1028 10.1595 7.3405 10.5778C8.0264 11.8156 8.96592 13.5108 10.7738 15.3192C12.5756 17.121 14.2683 18.0597 15.5026 18.7443C15.6262 18.8137 15.8814 18.9301 16.2007 18.9301C16.5778 18.9301 16.924 18.7705 17.1803 18.4795L18.7343 16.926C18.9663 16.6939 19.2705 16.566 19.5909 16.566C19.8837 16.566 20.1553 16.6758 20.3541 16.8735L24.1094 20.6305C24.5865 21.1092 24.3895 21.8412 24.0047 22.3185Z" fill="white"/>
<path d="M15.7516 4.01117C17.1377 4.17068 18.7698 5.01028 19.9095 6.15007C21.0598 7.3004 21.9015 8.94905 22.0534 10.3502C22.0983 10.7636 22.4479 11.0699 22.8544 11.0699C22.8835 11.0699 22.9129 11.0683 22.9424 11.0651C23.3853 11.0171 23.7054 10.6191 23.6573 10.1762C23.4651 8.40502 22.4661 6.4252 21.0504 5.00931C19.6478 3.60664 17.6882 2.61012 15.9361 2.40845C15.4937 2.35714 15.0935 2.67508 15.0425 3.11758C14.9915 3.56007 15.3089 3.96019 15.7516 4.01117Z" fill="white"/>
<path d="M14.9982 7.39041C15.7478 7.47678 16.7853 8.03285 17.465 8.71251C18.1505 9.39809 18.7076 10.4455 18.7897 11.2032C18.8345 11.6167 19.1841 11.923 19.5907 11.923C19.6197 11.923 19.6491 11.9214 19.6786 11.9183C20.1215 11.8702 20.4417 11.4722 20.3936 11.0293C20.2533 9.7356 19.3945 8.36047 18.6057 7.57164C17.8239 6.7898 16.4622 5.93504 15.1826 5.78758C14.7396 5.73606 14.3399 6.05411 14.2889 6.4966C14.238 6.9392 14.5556 7.33942 14.9982 7.39041Z" fill="white"/>
</svg>
