<svg width="26" height="26" viewBox="0 0 26 26" fill="none" xmlns="http://www.w3.org/2000/svg">
<path d="M13.0001 25.9877C1.46067 25.9762 -4.34362 11.9622 3.80777 3.79537C8.64666 -1.24725 17.3536 -1.24807 22.1924 3.79557C30.3438 11.9632 24.5388 25.9768 13.0001 25.9877V25.9877ZM13.0001 2.01904C6.95189 2.01904 2.03135 6.93958 2.03135 12.9878C2.63387 27.5393 23.3685 27.535 23.9688 12.9877C23.9688 6.93963 19.0482 2.01904 13.0001 2.01904ZM17.7299 16.2813L14.5212 13.0726C14.5494 12.5987 14.3473 12.1458 14.0152 11.8518C14.0155 11.8412 14.0157 11.8306 14.0157 11.8199V5.87846C13.9621 4.53093 12.0376 4.53195 11.9845 5.87846V11.8199C11.9845 11.8306 11.9847 11.8412 11.985 11.8518C10.9229 12.8026 11.6434 14.5832 13.0848 14.5089L16.2936 17.7177C16.6902 18.1143 17.3333 18.1143 17.7299 17.7177C18.1265 17.321 18.1265 16.678 17.7299 16.2813V16.2813Z" fill="white"/>
</svg>
