<svg width="168" height="58" viewBox="0 0 168 58" fill="none" xmlns="http://www.w3.org/2000/svg">
<g clip-path="url(#clip0)">
<path d="M0 9.33398V46.7842C-2.73555e-07 48.7871 0.800091 50.7081 2.22438 52.1247C3.64866 53.5414 5.58055 54.3378 7.59532 54.3388H10.2525C15.056 54.3388 16.7945 58 16.7945 58C17.3978 56.8672 18.3072 55.9244 19.4203 55.2776C20.5333 54.6307 21.806 54.3056 23.0949 54.3388H25.752C27.7668 54.3378 29.6987 53.5414 31.123 52.1247C32.5473 50.7081 33.3473 48.7871 33.3473 46.7842V9.33398H0ZM28.5122 46.1386C27.9261 47.8117 26.8648 49.0951 24.8571 49.0911C22.8493 49.0872 21.293 47.1228 22.877 44.43C20.2476 45.1505 19.4833 49.0951 16.5767 49.0911C13.67 49.0872 13.0126 45.2174 14.7788 43.6427C11.4603 44.1741 10.799 49.0951 7.55176 49.0951C5.87667 49.0951 4.49859 47.5834 5.61531 44.9103C8.32397 38.4304 12.0028 25.884 8.78333 13.5424C8.78206 13.5355 8.78288 13.5283 8.7857 13.5219C8.78851 13.5155 8.79318 13.51 8.79912 13.5062C8.80506 13.5024 8.812 13.5004 8.81906 13.5006C8.82612 13.5007 8.83298 13.5029 8.83877 13.5069C18.3428 23.1677 19.0833 34.2063 18.9487 41.0641C18.9487 41.1822 19.0715 41.1822 19.0952 41.0641C21.0396 35.3755 21.1505 26.4273 18.7547 19.7388C18.7547 19.7034 18.7824 19.6797 18.8101 19.7034C29.2804 28.6673 29.9417 42.0877 28.5201 46.1386H28.5122Z" fill="#5392F3"/>
<path d="M28.4726 0C25.0471 1.02749 20.8614 -0.30313 19.3883 0.208647C19.2536 0.251951 19.0596 0.33856 19.0239 0.492093L18.8735 1.14165C17.1113 1.80696 9.15161 1.68098 9.15161 1.68098V7.24754C9.15161 7.24754 15.8599 6.21612 17.6538 4.98392C18.4141 4.45639 17.9151 4.07846 18.525 3.54307C19.2061 2.94862 26.7579 2.02742 28.3538 0.503902L28.4726 0Z" fill="#5392F3"/>
<path d="M54.478 13.2708V19.7507H51.9278V13.2708H48.3638V11.0938H58.0183V13.2708H54.478Z" fill="#5392F3"/>
<path d="M63.8315 20.0852C62.9603 21.8292 62.2475 22.5969 60.8853 22.5969C60.5341 22.5891 60.186 22.5308 59.8517 22.4237L59.5389 20.4553C59.7671 20.5355 60.0059 20.582 60.2477 20.5931C60.4512 20.6111 60.6561 20.58 60.845 20.5026C61.0338 20.4252 61.2012 20.3036 61.3328 20.1482L61.4555 19.975L58.0974 13.2196H60.612L62.6633 17.4004L64.5998 13.2078H67.0748C65.9858 15.5068 64.9007 17.798 63.8315 20.0852Z" fill="#5392F3"/>
<path d="M72.2783 19.9474C71.4951 19.9714 70.7274 19.7267 70.1042 19.2546V22.4669H67.7678V13.2077H70.033V13.7667C70.6674 13.2647 71.4597 13.0012 72.2704 13.0227C74.4603 13.0227 75.9294 14.2825 75.9294 16.487C75.9294 18.6916 74.4682 19.9474 72.2783 19.9474ZM71.8427 17.9791C72.8644 17.9791 73.5732 17.4594 73.5732 16.4713C73.5732 15.4832 72.8644 14.9753 71.8427 14.9753C70.821 14.9753 70.1161 15.4792 70.1161 16.4713C70.1161 17.4633 70.825 17.9948 71.8427 17.9948V17.9791Z" fill="#5392F3"/>
<path d="M77.272 13.2078H79.6005V16.9201C80.7885 15.806 81.9765 14.7037 83.1645 13.6054V13.2117H85.5049V19.7545H83.1645V15.932C81.9765 17.0343 80.7885 18.1366 79.6005 19.2467V19.7545H77.272V13.2078Z" fill="#5392F3"/>
<path d="M92.6684 15.7431C92.4229 15.2352 91.7972 14.9911 91.029 14.9911C89.9835 14.9911 89.2113 15.5462 89.2113 16.4871C89.2113 17.428 89.9716 17.9949 91.0408 17.9949C91.8328 17.9949 92.4823 17.7232 92.7199 17.2075L94.7474 18.2468C94.0742 19.2743 92.7318 19.9396 91.0408 19.9396C88.5143 19.9396 86.8472 18.6799 86.8472 16.4792C86.8472 14.2786 88.5381 13.0149 91.029 13.0149C92.708 13.0149 94.0505 13.6723 94.7237 14.6841L92.6684 15.7431Z" fill="#5392F3"/>
<path d="M100.145 19.7506H97.8204V15.0895H95.0088V13.2078H102.961V15.0895H100.145V19.7506Z" fill="#5392F3"/>
<path d="M103.943 13.2078H106.267V16.9201C107.455 15.806 108.643 14.7037 109.831 13.6054V13.2117H112.168V19.7545H109.831V15.932C108.643 17.0343 107.455 18.1366 106.267 19.2467V19.7545H103.943V13.2078Z" fill="#5392F3"/>
<path d="M113.546 14.9242V13.192H115.886V14.4557C115.886 15.2194 116.183 15.5659 116.991 15.5659C117.553 15.5591 118.114 15.5144 118.67 15.432V13.192H121.01V19.7349H118.67V17.3374C117.917 17.4621 117.156 17.5279 116.393 17.5342C114.753 17.5382 113.546 16.6721 113.546 14.9242Z" fill="#5392F3"/>
<path d="M122.812 13.2078H125.137V15.1131H128.507V13.2078H130.847V19.7506H128.507V16.9949H125.137V19.7506H122.812V13.2078Z" fill="#5392F3"/>
<path d="M136.375 19.9474C133.884 19.9474 132.205 18.6877 132.205 16.487C132.205 14.2864 133.884 13.0227 136.375 13.0227C138.866 13.0227 140.541 14.2825 140.541 16.487C140.541 18.6916 138.874 19.9474 136.375 19.9474ZM136.375 17.9791C137.444 17.9791 138.177 17.4594 138.177 16.4713C138.177 15.4832 137.444 14.9753 136.375 14.9753C135.306 14.9753 134.569 15.4792 134.569 16.4713C134.569 17.4633 135.306 17.9948 136.375 17.9948V17.9791Z" fill="#5392F3"/>
<path d="M49.5002 25.0416H52.0267V33.7025H49.5002V25.0416Z" fill="#5392F3"/>
<path d="M54.1296 27.1556H56.4542V29.061H59.8479V27.1556H62.1843V33.6985H59.8479V30.9428H56.474V33.6985H54.1494L54.1296 27.1556Z" fill="#5392F3"/>
<path d="M70.3141 33.8954H70.1636V36.4464H67.8272V33.8954H67.6767C65.1898 33.8954 63.5068 32.6356 63.5068 30.435C63.5068 28.2343 65.1898 26.9707 67.6767 26.9707H67.8272V24.4236H70.1636V26.9707H70.3022C72.801 26.9707 74.4801 28.2304 74.4801 30.435C74.4801 32.6396 72.801 33.8954 70.3141 33.8954ZM67.6767 31.9546H67.8272V28.9233H67.6767C66.6075 28.9233 65.871 29.4429 65.871 30.435C65.871 31.427 66.6075 31.9546 67.6767 31.9546ZM70.3022 28.9233H70.1636V31.9546H70.3141C71.3714 31.9546 72.1199 31.4349 72.1199 30.435C72.1199 29.4351 71.3714 28.9233 70.3022 28.9233Z" fill="#5392F3"/>
<path d="M79.5212 33.8953C77.0304 33.8953 75.3513 32.6355 75.3513 30.4349C75.3513 28.2343 77.0304 26.9706 79.5212 26.9706C82.0121 26.9706 83.6872 28.2303 83.6872 30.4349C83.6872 32.6395 82.024 33.8953 79.5212 33.8953ZM79.5212 31.9269C80.5904 31.9269 81.323 31.4073 81.323 30.4192C81.323 29.431 80.5904 28.9193 79.5212 28.9193C78.452 28.9193 77.7155 29.4271 77.7155 30.4192C77.7155 31.4112 78.4599 31.9427 79.5212 31.9427V31.9269Z" fill="#5392F3"/>
<path d="M89.548 33.8953C88.7648 33.9245 87.9954 33.6839 87.37 33.2142V36.4306H85.0415V27.1556H87.3066V27.7107C87.9443 27.2121 88.737 26.9504 89.548 26.9706C91.7379 26.9706 93.2031 28.2303 93.2031 30.4349C93.2031 32.6395 91.726 33.8953 89.548 33.8953ZM89.1124 31.9269C90.1301 31.9269 90.839 31.4073 90.839 30.4191C90.839 29.431 90.1301 28.9192 89.1124 28.9192C88.0947 28.9192 87.3819 29.4271 87.3819 30.4191C87.3819 31.4112 88.0788 31.9427 89.1005 31.9427L89.1124 31.9269Z" fill="#5392F3"/>
<path d="M104.513 33.6985H102.176V30.1869L100.335 33.6985H98.7035L96.8621 30.1869V33.6985H94.5376V27.1556H97.2859L99.5114 31.2853L101.753 27.1556H104.525L104.513 33.6985Z" fill="#5392F3"/>
<path d="M113.522 31.1121C113.522 31.7341 113.696 31.9309 114.092 31.9309C114.342 31.9193 114.589 31.877 114.829 31.8049L114.552 33.6867C114.166 33.8027 113.766 33.8649 113.363 33.8717C112.465 33.8717 111.819 33.5607 111.494 32.8324L111.435 32.6986C111.062 33.0902 110.61 33.3981 110.108 33.6018C109.606 33.8055 109.066 33.9002 108.524 33.8796C107.067 33.8796 105.923 33.1513 105.923 31.9112C105.923 30.0216 108.758 29.5767 111.162 29.5767C111.063 29.0295 110.512 28.8445 109.681 28.8445C108.849 28.8445 108.211 29.1437 107.938 29.6004L106.033 28.5256C106.683 27.632 108.247 26.9509 109.891 26.9509C112.168 26.9509 113.538 28.0375 113.538 30.1909L113.522 31.1121ZM111.182 30.9152V30.868C109.415 30.9034 108.334 31.0766 108.334 31.6317C108.334 31.9309 108.655 32.0923 109.126 32.1041C110.1 32.1041 111.071 31.6081 111.182 30.9152Z" fill="#5392F3"/>
<path d="M122.266 33.6985H115.637V27.1556H117.961V31.8207H120.911V27.1556H123.236V31.8207H124.507V35.6393H122.266V33.6985Z" fill="#5392F3"/>
<path d="M125.663 24.1755H128.039V26.0691H125.663V24.1755ZM125.663 27.1557H128.004V33.6985H125.663V27.1557Z" fill="#5392F3"/>
<path d="M129.841 27.1556H132.17V30.8679C133.358 29.7538 134.546 28.6515 135.734 27.5532V27.1595H138.074V33.7024H135.734V29.8838C134.546 30.986 133.358 32.0844 132.17 33.1985V33.7063H129.841V27.1556ZM130.701 24.7935L132.518 24.1991C132.672 24.4276 132.884 24.6105 133.134 24.7284C133.384 24.8462 133.661 24.8946 133.936 24.8683C134.21 24.8888 134.485 24.8379 134.734 24.7205C134.983 24.6032 135.196 24.4235 135.354 24.1991L137.183 24.7935C136.597 25.9076 135.453 26.51 133.936 26.51C132.419 26.51 131.287 25.8958 130.701 24.766V24.7935Z" fill="#5392F3"/>
<path d="M139.884 27.1556H142.216V29.061H145.59V27.1556H147.927V33.6985H145.59V30.9428H142.216V33.6985H139.892L139.884 27.1556Z" fill="#5392F3"/>
<path d="M149.74 27.1556H152.065V30.868C153.253 29.7539 154.441 28.6516 155.629 27.5532V27.1596H157.965V33.7024H155.629V29.8838C154.441 30.9861 153.253 32.0844 152.065 33.1985V33.7064H149.74V27.1556Z" fill="#5392F3"/>
<path d="M159.775 27.1556H162.104V30.8679C163.292 29.7538 164.48 28.6515 165.668 27.5532V27.1595H168.008V33.7024H165.66V29.8838C164.472 30.986 163.284 32.0844 162.096 33.1985V33.7063H159.767L159.775 27.1556ZM160.634 24.7935L162.452 24.1991C162.605 24.4276 162.818 24.6105 163.068 24.7284C163.317 24.8462 163.595 24.8946 163.87 24.8683C164.144 24.8888 164.419 24.8379 164.668 24.7205C164.916 24.6032 165.13 24.4235 165.287 24.1991L167.117 24.7935C166.531 25.9076 165.386 26.51 163.87 26.51C162.353 26.51 161.224 25.8958 160.634 24.766V24.7935Z" fill="#5392F3"/>
<path d="M52.0267 45.4812H55.9076V38.9895H58.4341V45.4812H59.8478V49.7014H57.5589V47.6464H49.5002V38.9856H52.0267V45.4812Z" fill="#5392F3"/>
<path d="M64.778 40.9066C67.2768 40.9066 68.9439 42.1664 68.9439 44.3709V44.8434H63.0158C63.2138 45.5598 63.9622 45.9181 64.9206 45.9181C65.7126 45.9181 66.4373 45.6976 66.6986 45.237L68.7143 46.1425C68.0411 47.166 66.6353 47.8353 64.9206 47.8353C62.2951 47.8353 60.6121 46.5637 60.6121 44.3749C60.6121 42.1861 62.2911 40.9066 64.778 40.9066ZM64.778 42.623C63.986 42.623 63.3484 42.9104 63.0752 43.4655H66.4571C66.1838 42.934 65.574 42.6349 64.778 42.6349V42.623Z" fill="#5392F3"/>
<path d="M70.239 41.1035H72.5675V43.0089H75.9375V41.1035H78.2779V47.6464H75.9375V44.8907H72.5675V47.6464H70.239V41.1035Z" fill="#5392F3"/>
<path d="M84.4 47.6464H82.0754V42.9813H79.252V41.1035H87.1997V42.9813H84.4V47.6464Z" fill="#5392F3"/>
<path d="M92.716 47.8432C91.933 47.8705 91.1643 47.6301 90.538 47.1622V50.3785H88.2095V41.1035H90.4746V41.6586C91.1104 41.1552 91.9034 40.8892 92.716 40.9067C94.9059 40.9067 96.3711 42.1664 96.3711 44.371C96.3711 46.5756 94.8861 47.8432 92.716 47.8432ZM92.2804 45.8749C93.2981 45.8749 94.0069 45.3552 94.0069 44.3671C94.0069 43.379 93.2981 42.8672 92.2804 42.8672C91.2626 42.8672 90.5498 43.375 90.5498 44.3671C90.5498 45.3592 91.2389 45.8906 92.2606 45.8906L92.2804 45.8749Z" fill="#5392F3"/>
</g>
<defs>
<clipPath id="clip0">
<rect width="168" height="58" fill="white"/>
</clipPath>
</defs>
</svg>
