<svg width="229" height="79" viewBox="0 0 229 79" fill="none" xmlns="http://www.w3.org/2000/svg">
<g clip-path="url(#clip0)">
<path d="M0 12.7136V63.7234C-3.72882e-07 66.4515 1.0906 69.068 3.03204 70.9976C4.97347 72.9272 7.60683 74.0119 10.3531 74.0133H13.9751C20.5228 74.0133 22.8924 79.0001 22.8924 79.0001C23.7148 77.4572 24.9544 76.173 26.4717 75.2919C27.9889 74.4109 29.7236 73.9681 31.4805 74.0133H35.1025C37.8488 74.0119 40.4821 72.9272 42.4236 70.9976C44.365 69.068 45.4556 66.4515 45.4556 63.7234V12.7136H0ZM38.8648 62.844C38.0659 65.1229 36.6193 66.871 33.8825 66.8656C31.1458 66.8603 29.0244 64.1846 31.1836 60.5169C27.5994 61.4981 26.5576 66.871 22.5956 66.8656C18.6335 66.8603 17.7375 61.5893 20.1449 59.4445C15.6215 60.1683 14.72 66.871 10.2938 66.871C8.01047 66.871 6.132 64.8119 7.65421 61.1711C11.3464 52.345 16.361 35.2559 11.9725 18.4457C11.9708 18.4363 11.9719 18.4266 11.9757 18.4179C11.9796 18.4091 11.9859 18.4016 11.994 18.3965C12.0021 18.3913 12.0116 18.3886 12.0212 18.3888C12.0308 18.389 12.0402 18.392 12.0481 18.3975C25.003 31.5561 26.0124 46.5915 25.8289 55.9323C25.8289 56.0931 25.9962 56.0931 26.0286 55.9323C28.679 48.184 28.8301 35.9959 25.5644 26.8857C25.5644 26.8374 25.6022 26.8053 25.64 26.8374C39.912 39.047 40.8134 57.3264 38.8756 62.844H38.8648Z" fill="white"/>
<path d="M38.8109 0C34.1417 1.39951 28.4362 -0.412883 26.4281 0.284191C26.2446 0.343175 25.9801 0.461142 25.9315 0.670264L25.7264 1.55501C23.3244 2.46121 12.4746 2.28962 12.4746 2.28962V9.87165C12.4746 9.87165 21.6186 8.46678 24.0639 6.78844C25.1003 6.06991 24.4201 5.55515 25.2514 4.8259C26.1798 4.01622 36.4736 2.76149 38.649 0.68635L38.8109 0Z" fill="white"/>
<path d="M74.2586 18.0756V26.9016H70.7824V18.0756H65.9243V15.1104H79.0844V18.0756H74.2586Z" fill="white"/>
<path d="M87.0085 27.3576C85.821 29.733 84.8494 30.7786 82.9925 30.7786C82.5139 30.7681 82.0393 30.6886 81.5836 30.5427L81.1572 27.8616C81.4683 27.9709 81.7938 28.0342 82.1234 28.0493C82.4008 28.0738 82.6801 28.0315 82.9376 27.9261C83.195 27.8206 83.4231 27.655 83.6025 27.4434L83.7698 27.2074L79.1924 18.0061H82.62L85.4161 23.7006L88.0557 17.99H91.4294C89.945 21.1215 88.4659 24.2422 87.0085 27.3576Z" fill="white"/>
<path d="M98.5222 27.1699C97.4547 27.2026 96.4083 26.8693 95.5588 26.2262V30.6017H92.374V17.99H95.4616V18.7514C96.3265 18.0676 97.4064 17.7087 98.5114 17.738C101.496 17.738 103.499 19.4539 103.499 22.4566C103.499 25.4594 101.507 27.1699 98.5222 27.1699ZM97.9285 24.4889C99.3211 24.4889 100.287 23.7811 100.287 22.4352C100.287 21.0893 99.3211 20.3976 97.9285 20.3976C96.5358 20.3976 95.575 21.0839 95.575 22.4352C95.575 23.7864 96.5412 24.5103 97.9285 24.5103V24.4889Z" fill="white"/>
<path d="M105.329 17.99H108.503V23.0465C110.122 21.529 111.742 20.0276 113.361 18.5316V17.9953H116.551V26.9072H113.361V21.7006C111.742 23.202 110.122 24.7033 108.503 26.2155V26.9072H105.329V17.99Z" fill="white"/>
<path d="M126.316 21.443C125.981 20.7513 125.128 20.4188 124.081 20.4188C122.656 20.4188 121.604 21.1749 121.604 22.4564C121.604 23.738 122.64 24.5101 124.097 24.5101C125.177 24.5101 126.062 24.1401 126.386 23.4377L129.15 24.8533C128.232 26.2528 126.402 27.159 124.097 27.159C120.654 27.159 118.381 25.4431 118.381 22.4457C118.381 19.4483 120.686 17.7271 124.081 17.7271C126.37 17.7271 128.2 18.6225 129.118 20.0006L126.316 21.443Z" fill="white"/>
<path d="M136.507 26.9018H133.339V20.5531H129.506V17.99H140.345V20.5531H136.507V26.9018Z" fill="white"/>
<path d="M141.684 17.99H144.852V23.0465C146.472 21.529 148.091 20.0276 149.71 18.5316V17.9953H152.895V26.9072H149.71V21.7006C148.091 23.202 146.472 24.7033 144.852 26.2155V26.9072H141.684V17.99Z" fill="white"/>
<path d="M154.774 20.3276V17.9683H157.964V19.6895C157.964 20.7297 158.369 21.2016 159.47 21.2016C160.236 21.1924 161.001 21.1315 161.759 21.0193V17.9683H164.949V26.8801H161.759V23.6146C160.733 23.7844 159.695 23.874 158.655 23.8827C156.42 23.888 154.774 22.7084 154.774 20.3276Z" fill="white"/>
<path d="M167.405 17.99H170.573V20.5853H175.167V17.99H178.357V26.9018H175.167V23.1483H170.573V26.9018H167.405V17.99Z" fill="white"/>
<path d="M185.892 27.17C182.497 27.17 180.208 25.4541 180.208 22.4567C180.208 19.4593 182.497 17.738 185.892 17.738C189.288 17.738 191.571 19.4539 191.571 22.4567C191.571 25.4595 189.299 27.17 185.892 27.17ZM185.892 24.4889C187.35 24.4889 188.348 23.7811 188.348 22.4352C188.348 21.0893 187.35 20.3976 185.892 20.3976C184.435 20.3976 183.431 21.084 183.431 22.4352C183.431 23.7865 184.435 24.5104 185.892 24.5104V24.4889Z" fill="white"/>
<path d="M67.4736 34.1084H70.9175V45.905H67.4736V34.1084Z" fill="white"/>
<path d="M73.7837 36.988H76.9523V39.5833H81.5782V36.988H84.763V45.8999H81.5782V42.1464H76.9792V45.8999H73.8107L73.7837 36.988Z" fill="white"/>
<path d="M95.8449 46.1676H95.6398V49.6423H92.455V46.1676H92.2499C88.86 46.1676 86.5659 44.4517 86.5659 41.4543C86.5659 38.4569 88.86 36.7356 92.2499 36.7356H92.455V33.2664H95.6398V36.7356H95.8287C99.2348 36.7356 101.523 38.4515 101.523 41.4543C101.523 44.4571 99.2348 46.1676 95.8449 46.1676ZM92.2499 43.5241H92.455V39.3952H92.2499C90.7925 39.3952 89.7885 40.103 89.7885 41.4543C89.7885 42.8055 90.7925 43.5241 92.2499 43.5241ZM95.8287 39.3952H95.6398V43.5241H95.8449C97.2861 43.5241 98.3063 42.8163 98.3063 41.4543C98.3063 40.0923 97.2861 39.3952 95.8287 39.3952Z" fill="white"/>
<path d="M108.395 46.1678C105 46.1678 102.711 44.4519 102.711 41.4545C102.711 38.4571 105 36.7358 108.395 36.7358C111.79 36.7358 114.074 38.4517 114.074 41.4545C114.074 44.4573 111.806 46.1678 108.395 46.1678ZM108.395 43.4867C109.852 43.4867 110.851 42.7789 110.851 41.433C110.851 40.0871 109.852 39.3901 108.395 39.3901C106.937 39.3901 105.933 40.0818 105.933 41.433C105.933 42.7843 106.948 43.5082 108.395 43.5082V43.4867Z" fill="white"/>
<path d="M122.062 46.168C120.995 46.2078 119.946 45.8801 119.094 45.2404V49.6213H115.92V36.9881H119.007V37.7442C119.877 37.0651 120.957 36.7086 122.062 36.7361C125.048 36.7361 127.045 38.452 127.045 41.4547C127.045 44.4575 125.031 46.168 122.062 46.168ZM121.469 43.487C122.856 43.487 123.822 42.7792 123.822 41.4333C123.822 40.0874 122.856 39.3903 121.469 39.3903C120.081 39.3903 119.11 40.082 119.11 41.4333C119.11 42.7845 120.06 43.5084 121.453 43.5084L121.469 43.487Z" fill="white"/>
<path d="M142.461 45.8999H139.276V41.1169L136.766 45.8999H134.542L132.032 41.1169V45.8999H128.864V36.988H132.61L135.644 42.6129L138.699 36.988H142.477L142.461 45.8999Z" fill="white"/>
<path d="M154.741 42.3767C154.741 43.2239 154.979 43.4921 155.519 43.4921C155.859 43.4763 156.196 43.4187 156.523 43.3205L156.145 45.8836C155.619 46.0415 155.074 46.1263 154.525 46.1356C153.3 46.1356 152.42 45.712 151.978 44.72L151.897 44.5377C151.389 45.0711 150.772 45.4905 150.088 45.768C149.404 46.0454 148.668 46.1744 147.929 46.1463C145.943 46.1463 144.383 45.1543 144.383 43.4652C144.383 40.8914 148.248 40.2855 151.524 40.2855C151.389 39.5402 150.639 39.2882 149.505 39.2882C148.372 39.2882 147.503 39.6957 147.13 40.3177L144.534 38.8538C145.419 37.6366 147.551 36.709 149.791 36.709C152.895 36.709 154.763 38.1889 154.763 41.122L154.741 42.3767ZM151.551 42.1086V42.0443C149.144 42.0925 147.67 42.3285 147.67 43.0845C147.67 43.4921 148.107 43.7119 148.75 43.728C150.078 43.728 151.4 43.0524 151.551 42.1086Z" fill="white"/>
<path d="M166.66 45.8999H157.624V36.988H160.792V43.3421H164.814V36.988H167.982V43.3421H169.715V48.5434H166.66V45.8999Z" fill="white"/>
<path d="M171.291 32.9285H174.53V35.5076H171.291V32.9285ZM171.291 36.9876H174.481V45.8994H171.291V36.9876Z" fill="white"/>
<path d="M176.986 36.9879H180.16V42.0444C181.779 40.5269 183.399 39.0255 185.018 37.5295V36.9932H188.208V45.9051H185.018V40.7038C183.399 42.2052 181.779 43.7013 180.16 45.2187V45.9104H176.986V36.9879ZM178.157 33.7706L180.635 32.9609C180.844 33.2722 181.134 33.5214 181.474 33.6819C181.815 33.8424 182.192 33.9083 182.567 33.8725C182.941 33.9004 183.316 33.831 183.655 33.6712C183.994 33.5113 184.285 33.2665 184.5 32.9609L186.994 33.7706C186.195 35.2881 184.635 36.1085 182.567 36.1085C180.5 36.1085 178.956 35.272 178.157 33.7331V33.7706Z" fill="white"/>
<path d="M190.675 36.988H193.854V39.5833H198.453V36.988H201.638V45.8999H198.453V42.1464H193.854V45.8999H190.686L190.675 36.988Z" fill="white"/>
<path d="M204.11 36.988H207.279V42.0445C208.898 40.527 210.518 39.0256 212.137 37.5296V36.9934H215.322V45.9052H212.137V40.704C210.518 42.2054 208.898 43.7014 207.279 45.2189V45.9106H204.11V36.988Z" fill="white"/>
<path d="M217.789 36.9879H220.963V42.0444C222.582 40.5269 224.201 39.0255 225.821 37.5295V36.9932H229.011V45.9051H225.81V40.7038C224.191 42.2052 222.571 43.7013 220.952 45.2187V45.9104H217.778L217.789 36.9879ZM218.96 33.7706L221.438 32.9609C221.647 33.2722 221.937 33.5214 222.277 33.6819C222.617 33.8424 222.995 33.9083 223.37 33.8725C223.744 33.9004 224.119 33.831 224.458 33.6712C224.797 33.5113 225.088 33.2665 225.302 32.9609L227.796 33.7706C226.997 35.2881 225.437 36.1085 223.37 36.1085C221.303 36.1085 219.764 35.272 218.96 33.7331V33.7706Z" fill="white"/>
<path d="M70.9175 61.9483H76.2074V53.1062H79.6513V61.9483H81.5783V67.6965H78.4583V64.8975H67.4736V53.1008H70.9175V61.9483Z" fill="white"/>
<path d="M88.2987 55.7178C91.7048 55.7178 93.9773 57.4336 93.9773 60.4364V61.0799H85.8966C86.1665 62.0558 87.1867 62.5437 88.493 62.5437C89.5726 62.5437 90.5604 62.2435 90.9167 61.6161L93.6642 62.8494C92.7466 64.2435 90.8303 65.1551 88.493 65.1551C84.9142 65.1551 82.6201 63.4231 82.6201 60.4418C82.6201 57.4605 84.9088 55.7178 88.2987 55.7178ZM88.2987 58.0556C87.2191 58.0556 86.3501 58.4471 85.9776 59.2031H90.5874C90.2149 58.4793 89.3837 58.0717 88.2987 58.0717V58.0556Z" fill="white"/>
<path d="M95.7424 55.9858H98.9164V58.5811H103.51V55.9858H106.7V64.8977H103.51V61.1442H98.9164V64.8977H95.7424V55.9858Z" fill="white"/>
<path d="M115.045 64.8977H111.877V58.5436H108.028V55.9858H118.861V58.5436H115.045V64.8977Z" fill="white"/>
<path d="M126.381 65.1657C125.314 65.2029 124.266 64.8754 123.412 64.2381V68.6189H120.238V55.9858H123.326V56.7418C124.192 56.0562 125.273 55.6938 126.381 55.7177C129.366 55.7177 131.363 57.4335 131.363 60.4363C131.363 63.4391 129.339 65.1657 126.381 65.1657ZM125.787 62.4846C127.174 62.4846 128.141 61.7768 128.141 60.431C128.141 59.0851 127.174 58.388 125.787 58.388C124.4 58.388 123.428 59.0797 123.428 60.431C123.428 61.7822 124.367 62.5061 125.76 62.5061L125.787 62.4846Z" fill="white"/>
</g>
<defs>
<clipPath id="clip0">
<rect width="229" height="79" fill="white"/>
</clipPath>
</defs>
</svg>
