<svg width="108" height="16" viewBox="0 0 108 16" fill="none" xmlns="http://www.w3.org/2000/svg">
<g clip-path="url(#clip0)">
<path d="M13.1654 4.84505C12.6816 4.65357 12.1851 4.49735 11.6798 4.37754C10.4381 4.06181 9.16306 3.90478 7.88376 3.91003C5.91966 3.91003 4.79406 4.18119 4.79406 4.97128C4.79406 5.76138 5.70547 6.00448 8.24833 6.28499C13.7852 6.9208 15.8541 8.15504 15.8541 11.1237C15.8541 14.7049 12.4135 16.0186 7.57844 16.0186C5.61704 16.0668 3.66182 15.7744 1.79549 15.1537C1.16341 14.9311 0.560396 14.6296 0 14.2561L2.00968 11.2453C2.48061 11.4624 2.96649 11.6437 3.46339 11.7876C4.72956 12.1541 6.03956 12.3366 7.35514 12.3299C10.0074 12.3299 11.5021 12.0588 11.5021 11.1004C11.5021 10.3477 10.7684 10.2214 7.40071 9.83808C1.77726 9.22096 0.455709 7.36961 0.455709 4.9479C0.455709 2.34386 2.46994 0.216688 7.67869 0.216688C9.58729 0.189459 11.4886 0.463828 13.3158 1.03016C13.9592 1.2287 14.582 1.49177 15.1751 1.81558L13.1654 4.84505Z" fill="white"/>
<path d="M21.3728 11.914H31.4986V15.5793H17.0754V0.618896H21.3728V11.914Z" fill="white"/>
<path d="M45.6302 13.1622H37.9105L36.6208 15.5793H32.009L40.0022 0.618896H43.5385L51.5316 15.5793H46.9198L45.6302 13.1622ZM39.706 9.8055H43.8529L41.7794 5.92048L39.706 9.8055Z" fill="white"/>
<path d="M61.9354 15.5793H52.4475V0.618896H61.9354C67.5497 0.618896 69.5639 3.89148 69.5639 8.09908C69.5639 12.3067 67.5497 15.5793 61.9354 15.5793ZM56.7448 11.914H61.9354C64.2413 11.914 65.2438 10.6423 65.2438 8.10843C65.2438 5.57452 64.2413 4.30289 61.9354 4.30289H56.7448V11.914Z" fill="white"/>
<path d="M81.8454 0.637597H87.4506L79.8448 7.08458L87.5508 15.5793H82.3011L76.8782 9.5998L75.2832 10.9509V15.5793H70.9858V0.618896H75.2832V6.19164L81.8454 0.637597Z" fill="white"/>
<path d="M86.8308 8.10864C86.8308 3.74208 89.9798 0.217041 96.8564 0.217041C103.733 0.217041 106.882 3.74208 106.882 8.10864C106.882 12.4752 103.733 15.9956 96.8564 15.9956C89.9798 15.9956 86.8308 12.4752 86.8308 8.10864ZM102.525 8.10864C102.525 5.98146 101.309 3.90103 96.8473 3.90103C92.3859 3.90103 91.1692 5.99548 91.1692 8.10864C91.1692 10.2218 92.3859 12.3162 96.8473 12.3162C101.309 12.3162 102.525 10.2311 102.525 8.10864Z" fill="white"/>
</g>
<defs>
<clipPath id="clip0">
<rect width="108" height="16" fill="white"/>
</clipPath>
</defs>
</svg>
